<?xml version="1.0" standalone="no"?>
<!DOCTYPE svg PUBLIC "-//W3C//DTD SVG 1.1//EN" "http://www.w3.org/Graphics/SVG/1.1/DTD/svg11.dtd" >
<svg>
<metadata>
Created by FontForge 20130207 at Mon Apr  1 13:42:13 2013
 By imac6
(c) 1992, 1994, 1997, 2000, 2004 Adobe Systems Incorporated. All rights reserved.
</metadata>
<defs>
<font id="MyriadPro-Semibold" horiz-adv-x="300" >
  <font-face 
    font-family="Myriad Pro Light"
    font-weight="600"
    font-stretch="normal"
    units-per-em="1000"
    panose-1="2 11 6 3 3 4 3 2 2 4"
    ascent="750"
    descent="-250"
    x-height="487"
    cap-height="674"
    bbox="-161 -250 1198 973"
    underline-thickness="50"
    underline-position="-50"
    unicode-range="U+0020-FB04"
  />
<missing-glyph horiz-adv-x="500" 
d="M50 605v-510l170 255zM80 50h340l-170 255zM280 350l170 -255v510zM250 395l170 255h-340zM0 0v700h500v-700h-500z" />
    <glyph glyph-name="f_f_j" unicode="ffj" horiz-adv-x="852" 
d="M282 613q-80 0 -80 -110v-16h181v23q-1 98 63 154t157 57q93 0 144 -28l-29 -93q-44 23 -100 23q-113 0 -113 -116v-20h290v-435q0 -144 -62 -204t-173 -61l-12 96q66 5 88 29t29 61q7 36 7 114v308h-166v-395h-123v395h-180v-395h-123v395h-66v92h66v12q0 101 56 155
t141 54q46 0 86 -19l-30 -89q-24 13 -51 13z" />
    <glyph glyph-name="f_j" unicode="fj" horiz-adv-x="557" 
d="M203 0h-123v395h-66v92h66v23q0 98 64 154t160 57q98 0 146 -31l-28 -93q-44 26 -107 26q-113 0 -113 -116v-20h290v-435q0 -144 -62 -204t-173 -61l-12 96q65 5 87 29t30 61q7 36 7 114v308h-166v-395z" />
    <glyph glyph-name="f_f" unicode="ff" horiz-adv-x="620" 
d="M503 0h-123v395h-177v-395h-123v395h-66v92h66v10q0 105 52 158t140 53q37 0 67 -14l-20 -92q-20 10 -45 10q-72 0 -72 -108v-17h178v21q0 110 54 162t133 51q40 0 78 -12l-9 -95q-23 9 -52 9q-82 0 -82 -111v-25h107v-92h-106v-395z" />
    <glyph glyph-name="f_f_i" unicode="ffi" horiz-adv-x="861" 
d="M282 613q-80 0 -80 -110v-16h181v23q-1 98 63 154t157 57q93 0 144 -28l-29 -93q-44 23 -100 23q-113 0 -113 -116v-20h290v-487h-123v395h-166v-395h-123v395h-180v-395h-123v395h-66v92h66v12q0 101 56 155t141 54q46 0 86 -19l-30 -89q-24 13 -51 13z" />
    <glyph glyph-name="f_f_l" unicode="ffl" horiz-adv-x="861" 
d="M608 628q-103 0 -103 -119v-22h100v-92h-99v-395h-123v395h-180v-395h-123v395h-66v92h66v9q0 104 56 158t149 54q42 0 79 -16l-28 -90q-25 11 -52 11q-82 0 -82 -110v-16h181v21q0 101 68 157q67 56 171 56t173 -37v-684h-123v617q-20 11 -64 11z" />
    <glyph glyph-name="f_i" unicode="fi" horiz-adv-x="559" 
d="M203 0h-123v395h-66v92h66v23q0 98 64 154t160 57q98 0 146 -31l-28 -93q-44 26 -107 26q-113 0 -113 -116v-20h290v-487h-123v395h-166v-395z" />
    <glyph glyph-name="f_l" unicode="fl" horiz-adv-x="559" 
d="M305 628q-103 0 -103 -119v-22h100v-92h-99v-395h-123v395h-66v92h66v21q0 101 67 157t172 56t174 -37v-684h-123v617q-20 11 -65 11z" />
    <glyph glyph-name=".notdef" horiz-adv-x="500" 
d="M50 605v-510l170 255zM80 50h340l-170 255zM280 350l170 -255v510zM250 395l170 255h-340zM0 0v700h500v-700h-500z" />
    <glyph glyph-name=".null" horiz-adv-x="0" 
 />
    <glyph glyph-name="nonmarkingreturn" horiz-adv-x="333" 
 />
    <glyph glyph-name="space" unicode=" " horiz-adv-x="207" 
 />
    <glyph glyph-name="exclam" unicode="!" horiz-adv-x="251" 
d="M125 -11q-34 1 -55 23t-21 56t21 56t55 21q35 1 55 -21t20 -56t-20 -57q-21 -22 -55 -22zM172 208h-93l-19 466h130z" />
    <glyph glyph-name="quotedbl" unicode="&#x22;" horiz-adv-x="370" 
d="M215 692h113l-20 -257h-73zM42 692h113l-20 -257h-73z" />
    <glyph glyph-name="numbersign" unicode="#" horiz-adv-x="526" 
d="M37 187v77h95l17 127h-85v77h97l25 182h75l-25 -182h97l26 182h75l-25 -182h81v-77h-93l-17 -127h84v-77h-96l-26 -187h-76l26 187h-97l-25 -187h-77l26 187h-82zM208 264h96l17 127h-96z" />
    <glyph glyph-name="dollar" unicode="$" horiz-adv-x="536" 
d="M305 -86h-83v97q-100 3 -162 43l27 95q73 -44 139 -44q124 0 124 78q0 34 -26 57t-98 49q-72 25 -115 67q-44 42 -44 107t43 111t118 60v97h82v-92q75 -2 138 -34l-27 -92q-69 35 -127 35t-81 -20t-23 -50t28 -51t103 -50q152 -58 152 -183q-1 -66 -45 -115t-123 -62
v-103z" />
    <glyph glyph-name="percent" unicode="%" horiz-adv-x="840" 
d="M644 322q-34 0 -54 -37t-20 -94t19 -93q20 -36 56 -37q73 1 73 131t-74 130zM648 391q76 -1 120 -53t44 -144t-49 -148q-49 -54 -121 -54t-118 52q-47 52 -48 144q0 91 48 147t124 56zM265 -11h-70l377 672h71zM196 330q73 0 73 131t-74 131q-35 0 -54 -36t-19 -95
t19 -95q20 -36 55 -36zM200 661q76 -1 119 -53q44 -52 44 -145t-49 -147t-120 -55q-71 1 -118 53q-48 52 -48 144t48 147q48 56 124 56z" />
    <glyph glyph-name="ampersand" unicode="&#x26;" horiz-adv-x="645" 
d="M267 417q90 57 90 113q1 32 -17 54q-18 23 -51 23t-52 -24t-19 -67t49 -99zM278 80q61 0 107 46q-50 51 -169 187q-68 -49 -68 -107t34 -92t96 -34zM256 -11q-108 0 -166 56t-59 135q0 126 130 195v3q-54 64 -54 134t50 122q51 52 131 52t128 -42t47 -109
q0 -106 -139 -177l-1 -3q103 -118 136 -154q43 66 61 179h110q-29 -167 -105 -253q112 -123 115 -127h-144l-53 56q-79 -67 -187 -67z" />
    <glyph glyph-name="quotesingle" unicode="'" horiz-adv-x="198" 
d="M42 692h113l-20 -257h-73z" />
    <glyph glyph-name="parenleft" unicode="(" horiz-adv-x="301" 
d="M161 290q0 -237 112 -408h-89q-122 168 -122 405t122 406h89q-112 -166 -112 -403z" />
    <glyph glyph-name="parenright" unicode=")" horiz-adv-x="301" 
d="M140 286q0 236 -112 407h89q121 -166 121 -404t-121 -407h-89q112 168 112 404z" />
    <glyph glyph-name="asterisk" unicode="*" horiz-adv-x="437" 
d="M278 686l75 -44l-102 -126v-2l156 26v-86l-157 24v-3l103 -122l-77 -44l-59 148l-2 -1l-60 -148l-73 45l101 123v3l-153 -25v86l152 -26v2l-100 125l76 44l59 -147h2z" />
    <glyph glyph-name="plus" unicode="+" horiz-adv-x="596" 
d="M257 532h83v-226h217v-78h-217v-228h-83v228h-217v78h217v226z" />
    <glyph glyph-name="comma" unicode="," horiz-adv-x="236" 
d="M92 -113l-84 -8q46 129 67 264l129 10q-51 -166 -112 -266z" />
    <glyph glyph-name="hyphen" unicode="-" horiz-adv-x="315" 
d="M30 309h255v-85h-255v85z" />
    <glyph glyph-name="period" unicode="." horiz-adv-x="236" 
d="M127 -11q-34 1 -55 23t-21 56q-1 34 21 56t56 23q34 0 54 -22q21 -23 21 -57t-21 -56t-55 -23z" />
    <glyph glyph-name="slash" unicode="/" horiz-adv-x="337" 
d="M94 -39h-85l243 725h86z" />
    <glyph glyph-name="zero" unicode="0" horiz-adv-x="536" 
d="M269 567q-51 -1 -81 -63t-30 -180t30 -179q30 -62 80 -62q110 0 110 242t-109 242zM272 661q112 -1 172 -91q58 -90 58 -245t-62 -245t-173 -91q-112 0 -172 91q-61 90 -61 244t63 246t175 91z" />
    <glyph glyph-name="one" unicode="1" horiz-adv-x="536" 
d="M236 0v539h-2l-119 -60l-21 93l159 78h102v-650h-119z" />
    <glyph glyph-name="two" unicode="2" horiz-adv-x="536" 
d="M483 0h-440v75l77 71q125 116 175 180q51 64 51 120q1 115 -116 115q-68 0 -139 -54l-36 87q83 67 193 67t166 -56t55 -138q0 -82 -49 -153t-147 -161l-56 -49v-2h266v-102z" />
    <glyph glyph-name="three" unicode="3" horiz-adv-x="536" 
d="M327 477q0 86 -114 86q-61 0 -123 -41l-28 89q75 50 180 50q104 1 157 -45t53 -114q0 -109 -120 -152v-2q62 -12 102 -55t40 -117t-67 -131q-67 -56 -183 -56t-184 45l28 93q66 -40 140 -40q74 1 106 31t33 78q0 48 -43 77q-43 28 -105 28h-56v90h56q49 0 89 23t39 63z
" />
    <glyph glyph-name="four" unicode="4" horiz-adv-x="536" 
d="M137 258h177v177q0 35 4 113h-4q-30 -61 -57 -110l-120 -178v-2zM430 0h-116v165h-295v80l266 405h145v-392h84v-93h-84v-165z" />
    <glyph glyph-name="five" unicode="5" horiz-adv-x="536" 
d="M457 650v-102h-250l-19 -130q21 3 46 3q96 0 158 -42q85 -54 85 -157q-1 -103 -73 -168t-183 -65t-179 38l25 93q63 -34 132 -34t111 32t41 86q0 124 -184 124q-39 0 -89 -6l42 328h337z" />
    <glyph glyph-name="six" unicode="6" horiz-adv-x="536" 
d="M272 81q52 0 80 37q28 38 29 96q0 58 -30 94q-29 36 -73 35q-82 0 -116 -67q-8 -16 -7 -62t33 -89q32 -44 84 -44zM304 433q90 1 146 -57t56 -154t-64 -165q-64 -68 -172 -68q-108 1 -173 79t-65 202q0 184 113 290q88 85 231 96q33 5 62 3v-97q-139 5 -213 -66
q-54 -52 -67 -126h3q54 63 143 63z" />
    <glyph glyph-name="seven" unicode="7" horiz-adv-x="536" 
d="M53 650h437v-79l-275 -571h-129l274 546v2h-307v102z" />
    <glyph glyph-name="eight" unicode="8" horiz-adv-x="536" 
d="M269 576q-45 0 -70 -26t-25 -62q0 -73 106 -102q35 10 58 36t23 64q1 36 -23 63t-69 27zM268 76q49 0 79 28t30 69q0 89 -121 122q-95 -27 -97 -115q-1 -42 29 -73t80 -31zM378 347q124 -47 124 -179q0 -72 -66 -126t-172 -53q-106 0 -168 53t-62 126q0 114 122 168v3
q-99 47 -99 135t62 138t158 49q97 0 149 -49t52 -115q0 -98 -100 -147v-3z" />
    <glyph glyph-name="nine" unicode="9" horiz-adv-x="536" 
d="M157 440q-1 -122 117 -123q60 0 95 54q7 15 7 61t-28 92t-80 46t-82 -38q-30 -36 -29 -92zM234 228q-88 0 -144 56t-55 148t67 161q66 68 172 68t166 -77t61 -200q0 -195 -113 -303q-86 -80 -222 -89q-37 -4 -74 -2v98q124 -10 195 47t89 150h-2q-52 -57 -140 -57z" />
    <glyph glyph-name="colon" unicode=":" horiz-adv-x="236" 
d="M126 -11q-34 1 -54 23q-21 22 -21 56t21 56t55 22q35 0 55 -22t20 -56t-21 -57q-21 -22 -55 -22zM126 326q-34 0 -54 22q-21 22 -21 57q0 34 21 56t55 22q35 0 55 -22q20 -23 20 -57t-21 -56t-55 -22z" />
    <glyph glyph-name="semicolon" unicode=";" horiz-adv-x="236" 
d="M134 326q-34 0 -55 22t-21 57q0 34 21 56t55 22t54 -22q20 -23 21 -57q0 -34 -21 -56q-20 -22 -54 -22zM92 -113l-83 -8q46 129 67 264l128 10q-51 -166 -112 -266z" />
    <glyph glyph-name="less" unicode="&#x3c;" horiz-adv-x="596" 
d="M61 230v72l473 230v-90l-376 -175v-2l376 -175v-90z" />
    <glyph glyph-name="equal" unicode="=" horiz-adv-x="596" 
d="M556 128h-516v78h516v-78zM556 330h-516v78h516v-78z" />
    <glyph glyph-name="greater" unicode="&#x3e;" horiz-adv-x="596" 
d="M535 304v-76l-474 -228v89l382 176v2l-382 176v89z" />
    <glyph glyph-name="question" unicode="?" horiz-adv-x="428" 
d="M191 -11q-34 1 -55 23t-21 56q-1 34 21 55q22 22 56 22q34 1 54 -21t20 -56t-20 -57q-21 -22 -55 -22zM262 516q0 69 -83 71q-61 0 -100 -30l-30 88q65 41 155 41t136 -44t47 -92q0 -50 -17 -89t-71 -100q-54 -62 -51 -133v-22h-109l-1 26q-8 83 58 162q66 80 66 122z
" />
    <glyph glyph-name="at" unicode="@" horiz-adv-x="755" 
d="M342 -105q-115 1 -205 87t-90 228q0 103 45 190q44 87 130 140t206 53q120 1 203 -81t83 -199t-53 -183t-131 -65q-36 0 -58 21t-23 61h-3q-50 -82 -135 -82q-48 0 -79 35t-31 94q0 94 66 164q67 70 153 70t130 -23l-31 -183q-18 -97 27 -98q38 -2 70 46t32 141
q0 95 -64 161t-181 66q-118 0 -203 -88t-85 -222t71 -206t170 -71q99 0 163 33l17 -51q-79 -38 -194 -38zM423 361q-57 0 -97 -47q-40 -48 -40 -114t58 -66q34 0 64 36t37 82l17 103q-18 6 -39 6z" />
    <glyph glyph-name="A" unicode="A" horiz-adv-x="636" 
d="M226 284h173l-53 166q-9 28 -34 126h-2q-2 -8 -14 -55t-18 -71zM419 191h-213l-58 -191h-127l216 674h157l219 -674h-133z" />
    <glyph glyph-name="B" unicode="B" horiz-adv-x="576" 
d="M193 309v-220q15 -3 73 -3t100 27t42 84t-42 85t-112 27h-61zM193 398h63q63 0 98 26t35 71q0 93 -126 93q-48 0 -70 -5v-185zM262 679q118 0 181 -43q70 -42 70 -127q0 -49 -29 -87t-83 -58v-3q58 -15 97 -58t39 -117q-1 -74 -69 -134q-68 -59 -246 -59q-79 0 -151 9
v662q73 15 191 15z" />
    <glyph glyph-name="C" unicode="C" horiz-adv-x="588" 
d="M379 -11q-159 1 -251 93t-93 251t101 255t260 97q105 0 163 -30l-26 -98q-59 26 -149 26t-154 -65q-65 -64 -65 -180t62 -181t156 -65t151 24l20 -97q-62 -30 -175 -30z" />
    <glyph glyph-name="D" unicode="D" horiz-adv-x="683" 
d="M278 583q-52 0 -84 -7v-483q17 -3 68 -3q121 0 188 66q68 66 68 185t-62 181t-178 61zM267 679q181 0 274 -78q106 -85 106 -253t-103 -262t-307 -93q-92 0 -166 9v663q96 14 196 14z" />
    <glyph glyph-name="E" unicode="E" horiz-adv-x="515" 
d="M448 399v-100h-254v-198h284v-101h-407v674h392v-101h-269v-174h254z" />
    <glyph glyph-name="F" unicode="F" horiz-adv-x="509" 
d="M71 0v674h390v-101h-267v-186h248v-100h-248v-287h-123z" />
    <glyph glyph-name="G" unicode="G" horiz-adv-x="666" 
d="M611 372v-341q-102 -38 -216 -38q-171 -1 -265 89t-94 250t104 254q103 95 271 95q113 0 179 -32l-27 -99q-63 29 -163 29q-100 1 -168 -63q-67 -64 -67 -178t64 -180t170 -65q63 0 93 13v169h-119v97h238z" />
    <glyph glyph-name="H" unicode="H" horiz-adv-x="672" 
d="M71 674h123v-270h285v270h123v-674h-123v297h-285v-297h-123v674z" />
    <glyph glyph-name="I" unicode="I" horiz-adv-x="264" 
d="M71 674h123v-674h-123v674z" />
    <glyph glyph-name="J" unicode="J" horiz-adv-x="392" 
d="M205 241v433h123v-437q0 -133 -58 -191t-165 -57q-61 0 -104 16l15 99q34 -12 83 -12q106 0 106 149z" />
    <glyph glyph-name="K" unicode="K" horiz-adv-x="582" 
d="M71 0v674h122v-310h3q14 22 49 73l177 237h151l-232 -287l247 -387h-144l-190 309l-61 -72v-237h-122z" />
    <glyph glyph-name="L" unicode="L" horiz-adv-x="493" 
d="M71 0v674h123v-571h277v-103h-400z" />
    <glyph glyph-name="M" unicode="M" horiz-adv-x="827" 
d="M653 0l-13 275q-9 195 -8 283h-3q-35 -131 -80 -258l-99 -292h-94l-90 288q-41 135 -68 262h-2q-6 -178 -12 -287l-15 -271h-115l45 674h162l88 -271q35 -116 62 -234h3q31 125 67 235l93 270h160l39 -674h-120z" />
    <glyph glyph-name="N" unicode="N" horiz-adv-x="676" 
d="M184 0h-114v674h141l174 -289q69 -117 115 -226h2q-11 110 -11 280v235h114v-674h-128l-176 297q-76 131 -120 232l-4 -1q7 -122 7 -287v-241z" />
    <glyph glyph-name="O" unicode="O" horiz-adv-x="704" 
d="M353 587q-87 1 -137 -71t-50 -180t50 -178t138 -70q86 0 136 72t49 176q0 106 -49 178t-137 73zM358 686q143 0 227 -96t84 -254t-90 -252q-89 -94 -231 -95q-142 1 -227 97t-85 249t90 252t232 99z" />
    <glyph glyph-name="P" unicode="P" horiz-adv-x="559" 
d="M267 346q55 0 95 33t39 89q0 56 -36 86t-91 30t-81 -6v-226q19 -6 74 -6zM71 0v665q79 14 199 14q120 -1 187 -55q66 -54 66 -150t-57 -151q-74 -73 -213 -73q-39 0 -60 5v-255h-122z" />
    <glyph glyph-name="Q" unicode="Q" horiz-adv-x="704" 
d="M353 88q86 0 136 71t50 177t-49 179q-48 72 -136 72q-88 -1 -138 -73t-50 -178t50 -177t137 -71zM36 332q0 156 89 255t233 99t227 -97q84 -97 84 -229t-48 -214t-126 -112v-4q81 -22 178 -40l-35 -98q-135 37 -209 66t-98 31q-125 6 -210 96q-85 91 -85 247z" />
    <glyph glyph-name="R" unicode="R" horiz-adv-x="569" 
d="M400 478q0 108 -131 108q-52 0 -76 -6v-213h73q62 0 98 30t36 81zM257 679q266 0 266 -190q1 -62 -35 -106t-88 -62v-3q68 -25 94 -130q45 -172 53 -188h-126q-19 38 -39 131t-48 119q-26 26 -79 27h-62v-277h-122v664q78 15 186 15z" />
    <glyph glyph-name="S" unicode="S" horiz-adv-x="519" 
d="M216 91q138 0 138 92q0 38 -28 63t-91 49q-183 65 -183 196q0 85 66 139t166 55q102 0 168 -34l-29 -99q-62 32 -126 32t-92 -24t-28 -59q1 -35 29 -58t108 -54q164 -63 165 -197q1 -87 -65 -145t-185 -58t-188 43l28 102q73 -43 147 -43z" />
    <glyph glyph-name="T" unicode="T" horiz-adv-x="525" 
d="M200 0v571h-192v103h509v-103h-194v-571h-123z" />
    <glyph glyph-name="U" unicode="U" horiz-adv-x="666" 
d="M70 674h123v-393q0 -97 37 -145t101 -48q142 0 142 193v393h123v-385q0 -151 -72 -225t-195 -75q-259 0 -259 299v386z" />
    <glyph glyph-name="V" unicode="V" horiz-adv-x="601" 
d="M366 0h-141l-218 674h134l92 -307q47 -154 66 -245h2q20 91 69 244l98 308h131z" />
    <glyph glyph-name="W" unicode="W" horiz-adv-x="869" 
d="M313 0h-133l-165 674h131l64 -306q26 -126 44 -235h2q8 55 49 236l73 305h129l67 -310q31 -155 41 -228h2q14 87 46 234l70 304h125l-182 -674h-131l-70 317q-26 119 -38 214h-2q-17 -108 -44 -214z" />
    <glyph glyph-name="X" unicode="X" horiz-adv-x="594" 
d="M574 0h-143l-72 134q-36 64 -68 127h-2q-19 -45 -61 -127l-67 -134h-141l200 341l-193 333h142l73 -139q30 -58 55 -113h3q25 58 53 113l72 139h141l-197 -329z" />
    <glyph glyph-name="Y" unicode="Y" horiz-adv-x="575" 
d="M347 0h-123v281l-213 393h141l80 -173q36 -78 59 -134h2q19 50 58 134l81 173h139l-224 -390v-284z" />
    <glyph glyph-name="Z" unicode="Z" horiz-adv-x="566" 
d="M26 0v68l344 501v3h-314v102h474v-72l-340 -497v-3h345v-102h-509z" />
    <glyph glyph-name="bracketleft" unicode="[" horiz-adv-x="301" 
d="M269 -112h-195v798h195v-71h-104v-656h104v-71z" />
    <glyph glyph-name="backslash" unicode="\" horiz-adv-x="335" 
d="M327 -39h-86l-234 725h86z" />
    <glyph glyph-name="bracketright" unicode="]" horiz-adv-x="301" 
d="M31 686h195v-798h-195v71h104v656h-104v71z" />
    <glyph glyph-name="asciicircum" unicode="^" horiz-adv-x="596" 
d="M546 182h-91l-156 371h-2l-156 -371h-90l208 468h79z" />
    <glyph glyph-name="underscore" unicode="_" horiz-adv-x="500" 
d="M0 -75h500v-50h-500v50z" />
    <glyph glyph-name="grave" unicode="`" 
d="M12 698h120l87 -148h-85z" />
    <glyph glyph-name="a" unicode="a" horiz-adv-x="508" 
d="M154 147q0 -70 72 -70q34 0 66 24t32 70v67q-170 2 -170 -91zM444 292v-175q0 -77 8 -117h-111l-9 54h-3q-50 -65 -132 -65q-81 0 -123 43t-42 102q0 90 76 138t213 46v8q0 33 -21 59q-20 26 -86 26t-123 -36l-24 80q70 43 177 43q108 0 154 -58t46 -148z" />
    <glyph glyph-name="b" unicode="b" horiz-adv-x="585" 
d="M189 280v-79q1 -57 37 -86t84 -29t82 43q33 43 33 114t-32 115q-33 44 -81 44t-86 -31q-38 -30 -37 -91zM66 137v573h123v-290h2q50 78 148 78t155 -68q56 -68 56 -186q0 -117 -66 -186t-162 -69q-98 0 -147 84h-2l-6 -73h-105q4 66 4 137z" />
    <glyph glyph-name="c" unicode="c" horiz-adv-x="449" 
d="M271 -10q-99 0 -167 68t-69 181q0 113 73 186t198 73q68 0 119 -22l-22 -93q-38 19 -100 19q-63 0 -103 -45t-40 -115t43 -113q42 -42 100 -42t104 19l17 -91q-54 -25 -153 -25z" />
    <glyph glyph-name="d" unicode="d" horiz-adv-x="581" 
d="M392 211v73q0 60 -34 89q-34 30 -84 30t-82 -45q-32 -44 -32 -114t32 -113t80 -43t84 29q36 30 36 94zM256 498q95 0 134 -63h2v275h123v-573q0 -71 4 -137h-109l-6 77h-2q-47 -88 -147 -88t-160 69q-61 70 -61 184t64 185t158 71z" />
    <glyph glyph-name="e" unicode="e" horiz-adv-x="516" 
d="M268 414q-54 0 -82 -37t-33 -82h214q1 43 -23 81q-22 38 -76 38zM306 83q68 0 132 22l18 -84q-72 -31 -180 -31t-174 66q-67 66 -67 178q-1 110 63 187t175 77q156 0 199 -154q11 -40 11 -76t-4 -59h-326q2 -63 44 -95q41 -32 109 -31z" />
    <glyph glyph-name="f" unicode="f" horiz-adv-x="319" 
d="M203 0h-123v395h-66v92h66v21q0 110 54 162t132 51q40 0 78 -12l-8 -95q-25 9 -53 9q-81 0 -81 -111v-25h106v-92h-105v-395z" />
    <glyph glyph-name="g" unicode="g" horiz-adv-x="573" 
d="M384 213v79q0 56 -33 84t-79 28t-78 -43q-34 -43 -34 -112t32 -111t76 -43q86 0 111 75q5 15 5 43zM507 347v-276q0 -156 -69 -218t-182 -62t-179 39l27 93q64 -37 135 -37q147 0 147 147v42h-2q-47 -72 -140 -72t-151 67t-58 177q0 111 65 181t159 70t138 -76h2l5 65
h107q-4 -66 -4 -140z" />
    <glyph glyph-name="h" unicode="h" horiz-adv-x="572" 
d="M191 421q51 77 159 77q58 0 108 -52t49 -159v-287h-123v274q0 124 -94 124q-34 0 -68 -26t-33 -80v-292h-123v710h123v-289h2z" />
    <glyph glyph-name="i" unicode="i" horiz-adv-x="256" 
d="M128 690q30 0 50 -19q18 -19 18 -47t-18 -48q-20 -19 -50 -19t-50 19q-19 20 -19 48q-1 28 19 47t50 19zM189 0h-123v487h123v-487z" />
    <glyph glyph-name="j" unicode="j" horiz-adv-x="270" 
d="M144 690q30 0 50 -19q18 -19 18 -47t-18 -48q-18 -19 -50 -19t-50 19q-18 20 -19 48t19 47t50 19zM82 87v400h123v-435q0 -144 -62 -204t-173 -61l-12 96q62 5 86 29t31 61q7 36 7 114z" />
    <glyph glyph-name="k" unicode="k" horiz-adv-x="509" 
d="M189 710v-437h2q19 30 38 57l119 157h148l-181 -199l206 -288h-151l-140 215l-41 -49v-166h-123v710h123z" />
    <glyph glyph-name="l" unicode="l" horiz-adv-x="257" 
d="M66 0v710h123v-710h-123z" />
    <glyph glyph-name="m" unicode="m" horiz-adv-x="848" 
d="M784 287v-287h-120v269q0 129 -87 129q-30 0 -61 -25t-31 -81v-292h-120v282q1 52 -21 84t-58 32q-69 0 -94 -69q-6 -19 -6 -41v-288h-120v342q0 61 -4 145h105l6 -72h3q50 83 150 83q47 0 83 -24t52 -66h2q58 90 159 90q68 0 115 -52t47 -159z" />
    <glyph glyph-name="n" unicode="n" horiz-adv-x="572" 
d="M178 414q47 84 164 84q64 0 114 -51t51 -158v-289h-123v275q0 123 -93 123q-35 0 -69 -28t-33 -83v-287h-123v342q0 61 -4 145h107l6 -73h3z" />
    <glyph glyph-name="o" unicode="o" horiz-adv-x="564" 
d="M282 409q-60 0 -90 -49t-30 -119q0 -71 33 -117t87 -46t87 46t33 116t-30 120t-90 49zM285 498q110 0 177 -70t67 -188t-74 -184t-178 -67q-104 0 -173 68q-69 69 -69 185t70 186t180 70z" />
    <glyph glyph-name="p" unicode="p" horiz-adv-x="585" 
d="M189 279v-75q1 -62 37 -91t84 -29t82 44q33 44 33 114t-32 114t-80 45q-48 0 -86 -31q-38 -32 -38 -91zM326 -11q-93 0 -135 65h-2v-252h-123v523q0 70 -4 162h108l6 -75h2q56 86 154 86t158 -68t60 -186t-66 -186t-158 -69z" />
    <glyph glyph-name="q" unicode="q" horiz-adv-x="581" 
d="M392 205v81q0 56 -34 85q-34 30 -84 30t-82 -44t-32 -114q0 -69 32 -113t79 -44q91 0 115 81q6 17 6 38zM392 -198v265h-2q-48 -78 -142 -78t-154 68t-59 186q0 119 66 187q67 68 159 68t135 -75l2 -1l3 65h119q-4 -88 -4 -141v-544h-123z" />
    <glyph glyph-name="r" unicode="r" horiz-adv-x="356" 
d="M66 0v330q0 100 -4 157h106l5 -92h3q16 49 54 76t66 27t43 -3v-115q-17 3 -49 3t-66 -30q-35 -30 -35 -100v-253h-123z" />
    <glyph glyph-name="s" unicode="s" horiz-adv-x="417" 
d="M190 78q72 0 73 55q0 24 -17 39t-63 32q-134 45 -134 142q1 66 51 109t130 43t133 -29l-25 -86q-47 28 -91 28q-80 0 -80 -52q0 -22 18 -36q18 -15 76 -35q119 -42 121 -145q0 -69 -52 -111t-142 -42t-152 34l25 90q57 -36 129 -36z" />
    <glyph glyph-name="t" unicode="t" horiz-adv-x="351" 
d="M231 -11q-145 0 -145 177v229h-69v92h69v91l121 34v-125h117v-92h-117v-215q0 -90 63 -90q30 0 48 5l2 -93q-33 -13 -89 -13z" />
    <glyph glyph-name="u" unicode="u" horiz-adv-x="569" 
d="M502 487v-341q0 -66 4 -146h-107l-6 73h-3q-52 -84 -157 -84q-73 1 -121 51t-48 161v286h123v-265q0 -133 91 -133q36 -1 60 19q42 33 41 85v294h123z" />
    <glyph glyph-name="v" unicode="v" horiz-adv-x="508" 
d="M11 487h133l79 -247q18 -55 33 -122h3q10 43 33 122l78 247h129l-186 -487h-121z" />
    <glyph glyph-name="w" unicode="w" horiz-adv-x="749" 
d="M14 487h126l50 -221q20 -85 32 -158h2q5 26 39 157l64 222h100l61 -216q24 -93 39 -163h2q7 54 32 163l54 216h121l-153 -487h-114l-58 198q-22 74 -37 156h-2q-14 -78 -37 -156l-62 -198h-115z" />
    <glyph glyph-name="x" unicode="x" horiz-adv-x="494" 
d="M11 487h137l58 -92q22 -36 44 -75h2q20 39 43 77l54 90h134l-163 -234l166 -253h-140l-59 97q-19 31 -44 79h-2q-10 -20 -25 -45q-14 -25 -19 -34l-56 -97h-136l169 248z" />
    <glyph glyph-name="y" unicode="y" horiz-adv-x="500" 
d="M193 16q0 10 -6 24l-179 447h136l87 -261q16 -49 28 -94h3q19 73 26 95l76 260h131l-122 -332q-50 -135 -88 -205q-83 -153 -210 -170l-28 103q36 8 71 34q42 26 68 77q7 12 7 22z" />
    <glyph glyph-name="z" unicode="z" horiz-adv-x="450" 
d="M20 0v71l183 234q31 37 71 82v2h-236v98h386v-75l-178 -229q-48 -58 -72 -83v-2h256v-98h-410z" />
    <glyph glyph-name="braceleft" unicode="{" horiz-adv-x="301" 
d="M243 686h28v-71h-18q-69 -1 -69 -78l12 -135q2 -95 -79 -113v-2q81 -18 79 -113l-12 -136q0 -78 70 -79h17v-71h-29q-148 0 -148 137l13 159q0 70 -78 71v65q78 2 78 71l-13 162q0 133 149 133z" />
    <glyph glyph-name="bar" unicode="|" horiz-adv-x="263" 
d="M87 750h89v-1000h-89v1000z" />
    <glyph glyph-name="braceright" unicode="}" horiz-adv-x="301" 
d="M58 -112h-29v71h17q70 1 70 79l-12 136q-2 95 79 113v2q-81 18 -79 113l12 135q0 77 -69 78h-18v71h28q149 0 149 -133l-13 -162q-1 -31 15 -51t63 -20v-65q-78 -1 -78 -71l13 -159q0 -137 -148 -137z" />
    <glyph glyph-name="asciitilde" unicode="~" horiz-adv-x="596" 
d="M162 371q46 0 74 -10q28 -9 94 -43q64 -34 95 -34q44 0 47 83h79q5 -90 -31 -131t-90 -41q-54 1 -140 45q-85 44 -112 44q-49 0 -53 -83h-79q-2 85 34 127t82 43z" />
    <glyph glyph-name="uni00A0" unicode="&#xa0;" horiz-adv-x="207" 
 />
    <glyph glyph-name="exclamdown" unicode="&#xa1;" horiz-adv-x="251" 
d="M126 491q34 0 54 -22t21 -56q0 -34 -21 -56q-20 -22 -54 -22t-55 22t-21 56t22 56q20 22 54 22zM191 -193h-130l19 463h93z" />
    <glyph glyph-name="cent" unicode="&#xa2;" horiz-adv-x="536" 
d="M356 -13h-82v100q-90 11 -147 73q-56 64 -56 163q1 99 55 167t148 85v98h82v-94q54 -1 101 -22l-22 -92q-41 21 -101 21t-99 -44t-39 -112q0 -70 40 -110t100 -41q60 0 108 21l17 -89q-44 -22 -105 -26v-98z" />
    <glyph glyph-name="sterling" unicode="&#xa3;" horiz-adv-x="536" 
d="M354 563q-101 0 -101 -109q0 -45 11 -89h140v-85h-129q3 -58 -9 -98t-56 -79v-2h281v-101h-438v67q47 21 79 65t33 86q0 42 -4 62h-99v85h85q-9 61 -9 93q0 92 58 148t142 55q82 0 124 -24l-22 -93q-36 19 -86 19z" />
    <glyph glyph-name="currency" unicode="&#xa4;" horiz-adv-x="536" 
d="M267 459q-46 0 -75 -36q-29 -35 -29 -93t32 -92q33 -34 73 -33q40 0 71 33t31 91t-28 94t-75 36zM268 543q70 0 116 -38l74 80l57 -58l-83 -75q33 -50 33 -119t-35 -120l80 -77l-56 -57l-71 83q-47 -41 -118 -41t-113 39l-70 -81l-56 57l79 74q-37 50 -37 120t37 122
l-82 75l57 58l73 -81q45 39 115 39z" />
    <glyph glyph-name="yen" unicode="&#xa5;" horiz-adv-x="536" 
d="M321 0h-116v167h-155v61h155v68h-155v61h124l-165 293h132l85 -181q20 -45 41 -101h2q36 90 42 103l88 179h129l-174 -293h124v-61h-157v-68h157v-61h-157v-167z" />
    <glyph glyph-name="brokenbar" unicode="&#xa6;" horiz-adv-x="263" 
d="M87 674h89v-350h-89v350zM87 174h89v-350h-89v350z" />
    <glyph glyph-name="section" unicode="&#xa7;" horiz-adv-x="542" 
d="M91 540q-1 64 57 104t146 40t149 -31l-23 -77q-54 30 -112 30q-110 0 -110 -60q0 -28 27 -45t101 -41t120 -60q45 -36 45 -106t-69 -118q42 -35 42 -90q0 -56 -34 -92q-59 -65 -171 -64q-112 0 -177 43l27 76q65 -41 127 -41q116 0 116 65q0 29 -25 48t-103 45t-125 61
q-48 36 -48 106t79 114q-39 29 -39 93zM148 346q0 -51 96 -85t116 -45q33 23 33 63q0 53 -78 82q-110 40 -127 49q-40 -25 -40 -64z" />
    <glyph glyph-name="dieresis" unicode="&#xa8;" 
d="M250 563h-2q-24 0 -42 18q-18 17 -18 43t18 44t44 18t43 -18t17 -43q0 -26 -17 -44t-43 -18zM50 563q-26 0 -44 18q-18 17 -17 43q0 26 18 44t44 18t43 -18t17 -43q1 -26 -17 -44t-44 -18z" />
    <glyph glyph-name="copyright" unicode="&#xa9;" horiz-adv-x="677" 
d="M363 468q-61 0 -95 -36t-35 -94q-1 -59 35 -96t98 -37t99 25l14 -45q-47 -32 -128 -32t-131 51t-49 132q0 80 57 132t137 52t109 -27l-13 -48q-37 23 -98 23zM338 598q-102 0 -174 -76t-72 -184t72 -183t175 -75t175 74q72 76 71 184q0 108 -72 184t-175 76zM340 648
q128 0 216 -90t88 -218t-88 -220q-88 -90 -216 -90t-218 90t-89 220q-1 128 89 218t218 90z" />
    <glyph glyph-name="ordfeminine" unicode="&#xaa;" horiz-adv-x="363" 
d="M119 364q-1 -44 59 -44q30 0 49 33q7 13 7 24v44q-115 2 -115 -57zM232 481q0 49 -80 49q-40 0 -77 -26l-18 55q51 32 124 32q138 0 138 -140v-107q0 -43 5 -78h-78l-6 37h-2q-40 -42 -94 -42q-54 -1 -82 27t-29 77q0 49 53 79t146 29v8z" />
    <glyph glyph-name="guillemotleft" unicode="&#xab;" horiz-adv-x="444" 
d="M421 440l-126 -188l126 -187h-90l-123 187l123 188h90zM240 440l-125 -188l126 -187h-91l-123 187l123 188h90z" />
    <glyph glyph-name="logicalnot" unicode="&#xac;" horiz-adv-x="596" 
d="M40 412h516v-299h-82v221h-434v78z" />
    <glyph glyph-name="uni00AD" unicode="&#xad;" horiz-adv-x="291" 
d="M30 309h255v-85h-255v85z" />
    <glyph glyph-name="registered" unicode="&#xae;" horiz-adv-x="441" 
d="M220 645q-54 1 -89 -37q-36 -38 -36 -92t36 -93q35 -39 89 -39t90 38t36 93t-36 93t-90 37zM222 684q72 0 122 -49t50 -119t-50 -120t-122 -50t-124 50q-51 50 -51 120t51 119q52 49 124 49zM198 524h16q34 0 34 22t-31 22l-19 -1v-43zM220 599q77 0 77 -47
q0 -28 -35 -38v-2q24 -8 31 -40t11 -40h-48q-5 6 -12 37q-4 24 -30 24h-17v-61h-44v161q26 6 67 6z" />
    <glyph glyph-name="macron" unicode="&#xaf;" 
d="M31 655h239v-71h-239v71z" />
    <glyph glyph-name="degree" unicode="&#xb0;" horiz-adv-x="339" 
d="M170 627q-34 0 -54 -25q-20 -24 -20 -58t22 -57t53 -23q32 0 53 24t21 56q0 34 -20 58q-21 24 -55 25zM173 686q61 0 101 -41t40 -100t-43 -99t-103 -41q-60 0 -100 40q-40 39 -41 99q0 60 42 101t104 41z" />
    <glyph glyph-name="plusminus" unicode="&#xb1;" horiz-adv-x="596" 
d="M40 78h517v-78h-517v78zM257 575h83v-182h217v-78h-217v-187h-83v187h-217v78h217v182z" />
    <glyph glyph-name="twosuperior" unicode="&#xb2;" horiz-adv-x="333" 
d="M13 443v47l62 57q69 61 95 93t26 61q0 61 -66 61q-44 0 -85 -29l-27 62q55 42 130 42q75 1 112 -33t37 -72q0 -63 -31 -101t-92 -91l-27 -23v-2h157v-72h-291z" />
    <glyph glyph-name="threesuperior" unicode="&#xb3;" horiz-adv-x="328" 
d="M289 741q0 -65 -79 -89v-2q42 -4 68 -30t27 -70q0 -44 -46 -78q-45 -34 -125 -34t-125 28l21 65q43 -26 87 -26q43 1 65 17t22 42t-28 40q-28 15 -67 15h-29v58h27q32 1 58 13t26 34q-1 46 -53 46t-92 -26l-20 62q50 31 122 31q72 1 106 -27t35 -69z" />
    <glyph glyph-name="acute" unicode="&#xb4;" 
d="M174 698h120l-122 -148h-85z" />
    <glyph glyph-name="mu" unicode="&#xb5;" horiz-adv-x="570" 
d="M189 207q0 -119 90 -119q33 0 67 27t35 78v294h123v-340q0 -35 10 -49t33 -16l-8 -86q-15 -7 -43 -7q-83 0 -99 82h-4q-15 -31 -49 -55t-86 -24t-80 40v-50q0 -132 11 -180h-109q-14 38 -14 178v507h123v-280z" />
    <glyph glyph-name="paragraph" unicode="&#xb6;" horiz-adv-x="529" 
d="M298 -48h-81v312h-7q-56 0 -98 34q-77 62 -79 152t59 158q61 69 227 69q90 0 131 -10v-715h-81v646h-71v-646z" />
    <glyph glyph-name="periodcentered" unicode="&#xb7;" horiz-adv-x="236" 
d="M118 182q-34 0 -55 22t-21 57t22 57t54 22q34 0 55 -22t21 -56t-21 -58q-21 -22 -55 -22z" />
    <glyph glyph-name="cedilla" unicode="&#xb8;" 
d="M239 -118q0 -84 -114 -84q-45 0 -75 19l18 49q28 -15 60 -15t33 28q0 33 -78 39l45 85h69l-29 -50q29 -4 50 -23t21 -48z" />
    <glyph glyph-name="onesuperior" unicode="&#xb9;" horiz-adv-x="275" 
d="M209 443h-96v310h-1l-76 -35l-14 69l103 46h84v-390z" />
    <glyph glyph-name="ordmasculine" unicode="&#xba;" horiz-adv-x="372" 
d="M184 528q-36 0 -55 -32t-19 -72q0 -42 22 -71t54 -29q34 0 54 28t21 72q0 42 -20 73q-21 31 -57 31zM189 591q73 1 117 -45t44 -122t-48 -120t-118 -43q-69 1 -116 45t-47 118q-1 74 47 120t121 47z" />
    <glyph glyph-name="guillemotright" unicode="&#xbb;" horiz-adv-x="444" 
d="M327 252l-126 188h90l124 -188l-124 -187h-89zM149 252l-126 188h89l124 -188l-124 -187h-89z" />
    <glyph glyph-name="onequarter" unicode="&#xbc;" horiz-adv-x="799" 
d="M618 159v93q0 27 4 69h-3q-21 -40 -35 -60l-74 -101l2 -1h106zM707 0h-89v96h-198v52l181 246h106v-235h56v-63h-56v-96zM228 -11h-71l374 672h71zM226 266h-96v310h-1l-76 -35l-14 69l103 46h84v-390z" />
    <glyph glyph-name="onehalf" unicode="&#xbd;" horiz-adv-x="799" 
d="M647 264q0 56 -72 56q-38 0 -79 -29l-26 62q56 42 130 42q74 1 111 -33t37 -72q0 -63 -31 -101t-92 -91l-27 -24v-2h157v-72h-291v48l63 56q81 75 101 105q19 31 19 55zM207 -11h-71l373 672h70zM213 266h-96v310h-1l-76 -35l-14 69l103 46h84v-390z" />
    <glyph glyph-name="threequarters" unicode="&#xbe;" horiz-adv-x="799" 
d="M628 159v93q0 27 4 69h-3q-20 -38 -34 -60l-75 -101l2 -1h106zM717 0h-89v96h-198v52l181 246h106v-235h56v-63h-56v-96zM263 -11h-71l373 672h71zM211 552q1 42 -51 42t-94 -25l-20 60q50 32 122 32q72 1 106 -27t35 -64q0 -71 -80 -95v-2q43 -5 69 -31t26 -70t-46 -78
t-125 -33q-79 0 -125 28l21 65q43 -26 87 -26t66 16t21 39q0 58 -95 60h-29v58h28q32 1 58 13t26 38z" />
    <glyph glyph-name="questiondown" unicode="&#xbf;" horiz-adv-x="428" 
d="M173 -36q0 -69 83 -71q57 0 100 30l29 -88q-65 -41 -155 -41t-136 44t-46 92q0 50 17 89t71 100q54 62 51 134v21h108l2 -26q6 -84 -59 -162t-65 -122zM244 491q34 0 54 -22q21 -22 21 -56t-21 -56t-55 -22t-55 22t-21 56q-1 34 21 56t56 22z" />
    <glyph glyph-name="Agrave" unicode="&#xc0;" horiz-adv-x="636" 
d="M156 830h136l88 -119h-99zM226 284h173l-53 166q-9 28 -34 126h-2q-2 -8 -14 -55t-18 -71zM419 191h-213l-58 -191h-127l216 674h157l219 -674h-133z" />
    <glyph glyph-name="Aacute" unicode="&#xc1;" horiz-adv-x="636" 
d="M342 830h136l-125 -120h-99zM226 284h173l-53 166q-9 28 -34 126h-2q-2 -8 -14 -55t-18 -71zM419 191h-213l-58 -191h-127l216 674h157l219 -674h-133z" />
    <glyph glyph-name="Acircumflex" unicode="&#xc2;" horiz-adv-x="636" 
d="M273 829h93l103 -119h-92l-56 65h-2l-56 -65h-91zM226 284h173l-53 166q-9 28 -34 126h-2q-2 -8 -14 -55t-18 -71zM419 191h-213l-58 -191h-127l216 674h157l219 -674h-133z" />
    <glyph glyph-name="Atilde" unicode="&#xc3;" horiz-adv-x="636" 
d="M369 792q24 0 27 41h59q3 -112 -74 -112q-31 0 -65 19t-43 19q-22 0 -25 -44h-60q-2 55 18 85t51 31t65 -19t47 -20zM226 284h174l-54 166q-9 28 -34 126h-2q-2 -8 -14 -55t-18 -71zM420 191h-214l-58 -191h-127l216 674h157l219 -674h-132z" />
    <glyph glyph-name="Adieresis" unicode="&#xc4;" horiz-adv-x="636" 
d="M420 715q-26 -1 -42 17t-17 44q0 26 17 42q16 18 42 18t42 -18t17 -42q0 -26 -17 -44q-16 -18 -42 -17zM222 715q-26 0 -42 18q-17 18 -17 43q-1 24 17 42t43 18t41 -18t17 -42q-1 -26 -17 -44t-42 -17zM226 284h173l-53 166q-9 28 -34 126h-2q-2 -8 -14 -55t-18 -71z
M419 191h-213l-58 -191h-127l216 674h157l219 -674h-133z" />
    <glyph glyph-name="Aring" unicode="&#xc5;" horiz-adv-x="636" 
d="M316 845q-21 0 -33 -15t-12 -35q1 -21 13 -35t32 -14t34 14q13 14 13 35t-13 35t-34 15zM318 889q50 0 78 -27q28 -28 29 -68t-29 -66t-78 -27q-48 0 -79 27q-30 27 -30 67q-1 40 29 67t80 27zM226 284h173l-53 166q-9 28 -34 126h-2q-2 -8 -14 -55t-18 -71zM419 191
h-213l-58 -191h-127l216 674h157l219 -674h-133z" />
    <glyph glyph-name="AE" unicode="&#xc6;" horiz-adv-x="832" 
d="M255 307h149l-21 177q-9 69 -12 103h-4q-16 -47 -38 -102zM769 674v-101h-280l21 -176h253v-100h-238l25 -196h252v-101h-358l-26 208h-201l-89 -208h-127l296 674h472z" />
    <glyph glyph-name="Ccedilla" unicode="&#xc7;" horiz-adv-x="592" 
d="M438 -132q0 -38 -32 -60t-80 -21q-48 0 -79 18l18 55q22 -14 58 -14t36 30t-78 37l40 81q-134 18 -210 106t-76 240q-1 152 101 248t260 97q105 0 163 -30l-27 -98q-58 26 -148 26t-154 -65q-65 -64 -65 -180t62 -181t156 -65t151 24l20 -96q-57 -29 -166 -30l-21 -37
q71 -17 71 -85z" />
    <glyph glyph-name="Egrave" unicode="&#xc8;" horiz-adv-x="515" 
d="M114 830h136l88 -119h-99zM448 399v-100h-254v-198h284v-101h-407v674h392v-101h-269v-174h254z" />
    <glyph glyph-name="Eacute" unicode="&#xc9;" horiz-adv-x="515" 
d="M295 830h136l-125 -120h-99zM448 399v-100h-254v-198h284v-101h-407v674h392v-101h-269v-174h254z" />
    <glyph glyph-name="Ecircumflex" unicode="&#xca;" horiz-adv-x="515" 
d="M222 829h93l103 -119h-92l-56 65h-2l-56 -65h-91zM448 399v-100h-254v-198h284v-101h-407v674h392v-101h-269v-174h254z" />
    <glyph glyph-name="Edieresis" unicode="&#xcb;" horiz-adv-x="515" 
d="M364 716q-26 0 -43 18t-17 43t18 43t42 17q26 1 42 -17t16 -44t-16 -42q-16 -18 -42 -18zM166 716q-26 0 -43 18t-17 43t18 43t42 17q26 1 42 -17t16 -44t-16 -42q-16 -18 -42 -18zM448 399v-100h-254v-198h284v-101h-407v674h392v-101h-269v-174h254z" />
    <glyph glyph-name="Igrave" unicode="&#xcc;" horiz-adv-x="264" 
d="M-26 830h136l88 -119h-99zM71 674h123v-674h-123v674z" />
    <glyph glyph-name="Iacute" unicode="&#xcd;" horiz-adv-x="264" 
d="M156 830h136l-125 -120h-99zM71 674h123v-674h-123v674z" />
    <glyph glyph-name="Icircumflex" unicode="&#xce;" horiz-adv-x="264" 
d="M85 829h93l103 -119h-92l-56 65h-2l-56 -65h-91zM71 674h123v-674h-123v674z" />
    <glyph glyph-name="Idieresis" unicode="&#xcf;" horiz-adv-x="264" 
d="M230 716q-26 0 -42 18t-16 42q0 26 17 44t43 17q26 1 42 -17t16 -44t-17 -42q-17 -18 -43 -18zM34 716q-26 0 -43 18t-17 43t18 43t42 17q26 1 42 -17t16 -44t-16 -42q-16 -18 -42 -18zM71 674h123v-674h-123v674z" />
    <glyph glyph-name="Eth" unicode="&#xd0;" horiz-adv-x="689" 
d="M355 391v-97h-155v-203q17 -3 69 -3q123 0 189 66t66 189t-61 183q-62 60 -179 60q-52 0 -84 -7v-188h155zM1 294v97h76v277q96 14 196 14q183 0 275 -77q106 -85 106 -255t-104 -264t-307 -95q-92 0 -166 9v294h-76z" />
    <glyph glyph-name="Ntilde" unicode="&#xd1;" horiz-adv-x="676" 
d="M389 792q24 0 27 41h59q3 -112 -74 -112q-29 0 -63 19t-45 19q-22 0 -25 -44h-60q-2 55 18 85t50 31t65 -19q34 -20 48 -20zM184 0h-114v674h141l174 -289q69 -117 115 -226h2q-11 110 -11 280v235h114v-674h-128l-176 297q-76 131 -120 232l-4 -1q7 -122 7 -287v-241z
" />
    <glyph glyph-name="Ograve" unicode="&#xd2;" horiz-adv-x="704" 
d="M193 832h136l88 -119h-99zM353 587q-87 1 -137 -71t-50 -180t50 -178t138 -70q86 0 136 72t49 176q0 106 -49 178t-137 73zM358 686q143 0 227 -96t84 -254t-90 -252q-89 -94 -231 -95q-142 1 -227 97t-85 249t90 252t232 99z" />
    <glyph glyph-name="Oacute" unicode="&#xd3;" horiz-adv-x="704" 
d="M378 832h136l-125 -120h-99zM353 587q-87 1 -137 -71t-50 -180t50 -178t138 -70q86 0 136 72t49 176q0 106 -49 178t-137 73zM358 686q143 0 227 -96t84 -254t-90 -252q-89 -94 -231 -95q-142 1 -227 97t-85 249t90 252t232 99z" />
    <glyph glyph-name="Ocircumflex" unicode="&#xd4;" horiz-adv-x="704" 
d="M305 830h93l103 -119h-92l-56 65h-2l-56 -65h-91zM353 587q-87 1 -137 -71t-50 -180t50 -178t138 -70q86 0 136 72t49 176q0 106 -49 178t-137 73zM358 686q143 0 227 -96t84 -254t-90 -252q-89 -94 -231 -95q-142 1 -227 97t-85 249t90 252t232 99z" />
    <glyph glyph-name="Otilde" unicode="&#xd5;" horiz-adv-x="704" 
d="M400 793q24 0 27 41h59q3 -112 -74 -112q-28 0 -62 18t-46 19q-22 0 -25 -43h-60q-1 54 19 84t50 31q30 0 64 -19t48 -19zM353 587q-87 1 -137 -71t-50 -180t50 -178t138 -70q86 0 136 72t49 176q0 106 -49 178t-137 73zM358 686q143 0 227 -96t84 -254t-90 -252
q-89 -94 -231 -95q-142 1 -227 97t-85 249t90 252t232 99z" />
    <glyph glyph-name="Odieresis" unicode="&#xd6;" horiz-adv-x="704" 
d="M450 716q-26 0 -42 18t-16 42q0 26 17 44t43 17q26 1 42 -17t16 -44t-17 -42q-17 -18 -43 -18zM254 716q-26 0 -43 18t-17 43t18 43t42 17q26 1 42 -17t16 -44t-16 -42q-16 -18 -42 -18zM353 587q-87 1 -137 -71t-50 -180t50 -178t138 -70q86 0 136 72t49 176
q0 106 -49 178t-137 73zM358 686q143 0 227 -96t84 -254t-90 -252q-89 -94 -231 -95q-142 1 -227 97t-85 249t90 252t232 99z" />
    <glyph glyph-name="multiply" unicode="&#xd7;" horiz-adv-x="596" 
d="M40 470l55 56l203 -207l202 207l56 -56l-202 -207l202 -206l-56 -57l-202 206l-202 -206l-56 57l202 206z" />
    <glyph glyph-name="Oslash" unicode="&#xd8;" horiz-adv-x="704" 
d="M353 86q89 0 141 72t51 165q0 94 -33 159h-3l-254 -361q40 -35 98 -35zM354 589q-90 1 -142 -71t-52 -166t36 -163h2l256 365q-45 35 -100 35zM36 335q0 155 90 253t229 98q92 0 157 -45l57 81l71 -48l-58 -85q87 -95 87 -253q1 -158 -89 -253q-90 -94 -227 -94
q-87 0 -156 43l-61 -88l-68 54l59 86q-91 97 -91 251z" />
    <glyph glyph-name="Ugrave" unicode="&#xd9;" horiz-adv-x="666" 
d="M178 830h136l88 -119h-99zM70 674h123v-393q0 -97 37 -145t101 -48q142 0 142 193v393h123v-385q0 -151 -72 -225t-195 -75q-259 0 -259 299v386z" />
    <glyph glyph-name="Uacute" unicode="&#xda;" horiz-adv-x="666" 
d="M356 830h136l-125 -120h-99zM70 674h123v-393q0 -97 37 -145t101 -48q142 0 142 193v393h123v-385q0 -151 -72 -225t-195 -75q-259 0 -259 299v386z" />
    <glyph glyph-name="Ucircumflex" unicode="&#xdb;" horiz-adv-x="666" 
d="M294 829h93l103 -119h-92l-56 65h-2l-56 -65h-91zM70 674h123v-393q0 -97 37 -145t101 -48q142 0 142 193v393h123v-385q0 -151 -72 -225t-195 -75q-259 0 -259 299v386z" />
    <glyph glyph-name="Udieresis" unicode="&#xdc;" horiz-adv-x="666" 
d="M436 716q-26 0 -42 18t-17 42q0 26 17 44q16 18 42 17q26 1 42 -17t17 -44q0 -26 -17 -42q-16 -18 -42 -18zM238 716q-26 0 -42 18q-17 18 -17 43q-1 25 17 43t43 17q25 1 41 -17t17 -44q-1 -26 -17 -42q-16 -18 -42 -18zM70 674h123v-393q0 -97 37 -145t101 -48
q142 0 142 193v393h123v-385q0 -151 -72 -225t-195 -75q-259 0 -259 299v386z" />
    <glyph glyph-name="Yacute" unicode="&#xdd;" horiz-adv-x="575" 
d="M319 827h136l-125 -120h-99zM347 0h-123v281l-213 393h141l80 -173q36 -78 59 -134h2q19 50 58 134l81 173h139l-224 -390v-284z" />
    <glyph glyph-name="Thorn" unicode="&#xde;" horiz-adv-x="558" 
d="M401 350q0 109 -133 109q-48 0 -76 -6v-213q27 -6 82 -6t91 31t36 85zM71 0v674h121v-126q33 6 89 6q119 0 181 -54t61 -152q1 -98 -71 -154t-188 -56q-44 0 -72 5v-143h-121z" />
    <glyph glyph-name="germandbls" unicode="&#xdf;" horiz-adv-x="576" 
d="M332 83q83 1 83 71q-1 34 -35 68q-34 36 -46 50q-40 46 -40 99q0 80 84 123q8 18 8 50t-24 56q-24 26 -66 26q-107 0 -107 -177v-449h-123v440q0 154 68 218t163 63q95 0 151 -48t56 -130q0 -50 -23 -82q-64 -29 -64 -67q-1 -38 33 -74t47 -51q41 -47 41 -118
q0 -70 -51 -116t-127 -46t-120 18l18 92q34 -16 74 -16z" />
    <glyph glyph-name="agrave" unicode="&#xe0;" horiz-adv-x="508" 
d="M98 698h120l87 -148h-85zM154 147q0 -70 72 -70q34 0 66 24t32 70v67q-170 2 -170 -91zM444 292v-175q0 -77 8 -117h-111l-9 54h-3q-50 -65 -132 -65q-81 0 -123 43t-42 102q0 90 76 138t213 46v8q0 33 -21 59q-20 26 -86 26t-123 -36l-24 80q70 43 177 43q108 0 154 -58
t46 -148z" />
    <glyph glyph-name="aacute" unicode="&#xe1;" horiz-adv-x="508" 
d="M279 698h120l-122 -148h-85zM154 147q0 -70 72 -70q34 0 66 24t32 70v67q-170 2 -170 -91zM444 292v-175q0 -77 8 -117h-111l-9 54h-3q-50 -65 -132 -65q-81 0 -123 43t-42 102q0 90 76 138t213 46v8q0 33 -21 59q-20 26 -86 26t-123 -36l-24 80q70 43 177 43
q108 0 154 -58t46 -148z" />
    <glyph glyph-name="acircumflex" unicode="&#xe2;" horiz-adv-x="508" 
d="M208 698h83l98 -148h-85l-53 90h-2l-54 -90h-84zM154 147q0 -70 72 -70q34 0 66 24t32 70v67q-170 2 -170 -91zM444 292v-175q0 -77 8 -117h-111l-9 54h-3q-50 -65 -132 -65q-81 0 -123 43t-42 102q0 90 76 138t213 46v8q0 33 -21 59q-20 26 -86 26t-123 -36l-24 80
q70 43 177 43q108 0 154 -58t46 -148z" />
    <glyph glyph-name="atilde" unicode="&#xe3;" horiz-adv-x="508" 
d="M183 681q30 1 66 -19t47 -20q23 0 26 43h60q3 -116 -76 -116q-26 0 -60 19t-46 19q-22 0 -25 -45h-61q-2 56 18 88t51 31zM154 147q0 -70 72 -70q34 0 66 24t32 70v67q-170 2 -170 -91zM444 292v-175q0 -77 8 -117h-111l-9 54h-3q-50 -65 -132 -65q-81 0 -123 43t-42 102
q0 90 76 138t213 46v8q0 33 -21 59q-20 26 -86 26t-123 -36l-24 80q70 43 177 43q108 0 154 -58t46 -148z" />
    <glyph glyph-name="adieresis" unicode="&#xe4;" horiz-adv-x="508" 
d="M354 563h-2q-24 0 -42 18q-18 17 -18 43t18 44t44 18t43 -18t17 -43q0 -26 -17 -44t-43 -18zM154 563q-26 0 -44 18q-18 17 -17 43q0 26 18 44t44 18t43 -18t17 -43q1 -26 -17 -44t-44 -18zM154 147q0 -70 72 -70q34 0 66 24t32 70v67q-170 2 -170 -91zM444 292v-175
q0 -77 8 -117h-111l-9 54h-3q-50 -65 -132 -65q-81 0 -123 43t-42 102q0 90 76 138t213 46v8q0 33 -21 59q-20 26 -86 26t-123 -36l-24 80q70 43 177 43q108 0 154 -58t46 -148z" />
    <glyph glyph-name="aring" unicode="&#xe5;" horiz-adv-x="508" 
d="M254 582q22 0 34 15q14 15 14 37t-14 37t-34 15q-22 0 -35 -16t-13 -36t13 -36t35 -16zM254 538q-48 0 -79 27q-30 27 -30 69q-1 42 29 68q30 28 80 28t79 -27t29 -69t-30 -69t-78 -27zM154 147q0 -70 72 -70q34 0 66 24t32 70v67q-170 2 -170 -91zM444 292v-175
q0 -77 8 -117h-111l-9 54h-3q-50 -65 -132 -65q-81 0 -123 43t-42 102q0 90 76 138t213 46v8q0 33 -21 59q-20 26 -86 26t-123 -36l-24 80q70 43 177 43q108 0 154 -58t46 -148z" />
    <glyph glyph-name="ae" unicode="&#xe6;" horiz-adv-x="790" 
d="M546 415q-51 -1 -79 -37t-30 -77h205q1 40 -22 77t-74 37zM326 175v60q-173 2 -173 -91q1 -31 21 -49t54 -18q68 0 93 65q5 13 5 33zM438 216q0 -63 39 -99t106 -36t131 27l19 -84q-69 -35 -151 -35q-158 0 -204 96h-3q-57 -96 -182 -96q-75 1 -118 43t-43 103
q0 87 77 133t214 45v17q0 20 -14 41q-28 40 -93 40q-66 0 -124 -37l-25 79q76 45 163 45q119 0 159 -89h3q57 89 167 89q145 0 187 -154q10 -40 11 -68q0 -28 -3 -60h-316z" />
    <glyph glyph-name="ccedilla" unicode="&#xe7;" horiz-adv-x="449" 
d="M355 -124q-1 -46 -33 -68t-80 -21q-48 0 -77 18l17 55q22 -14 58 -14t36 30t-78 37l40 81q-93 12 -148 78t-55 173t73 180t198 73q66 0 119 -22l-22 -93q-38 19 -100 19q-63 0 -103 -45t-40 -115t43 -113q42 -42 100 -42t104 19l17 -91q-47 -24 -120 -25l-21 -37
q72 -16 72 -77z" />
    <glyph glyph-name="egrave" unicode="&#xe8;" horiz-adv-x="516" 
d="M127 698h120l87 -148h-85zM268 414q-54 0 -82 -37t-33 -82h214q1 43 -23 81q-22 38 -76 38zM306 83q68 0 132 22l18 -84q-72 -31 -180 -31t-174 66q-67 66 -67 178q-1 110 63 187t175 77q156 0 199 -154q11 -40 11 -76t-4 -59h-326q2 -63 44 -95q41 -32 109 -31z" />
    <glyph glyph-name="eacute" unicode="&#xe9;" horiz-adv-x="516" 
d="M302 698h120l-122 -148h-85zM268 414q-54 0 -82 -37t-33 -82h214q1 43 -23 81q-22 38 -76 38zM306 83q68 0 132 22l18 -84q-72 -31 -180 -31t-174 66q-67 66 -67 178q-1 110 63 187t175 77q156 0 199 -154q11 -40 11 -76t-4 -59h-326q2 -63 44 -95q41 -32 109 -31z" />
    <glyph glyph-name="ecircumflex" unicode="&#xea;" horiz-adv-x="516" 
d="M227 698h83l98 -148h-85l-53 90h-2l-54 -90h-84zM268 414q-54 0 -82 -37t-33 -82h214q1 43 -23 81q-22 38 -76 38zM306 83q68 0 132 22l18 -84q-72 -31 -180 -31t-174 66q-67 66 -67 178q-1 110 63 187t175 77q156 0 199 -154q11 -40 11 -76t-4 -59h-326q2 -63 44 -95
q41 -32 109 -31z" />
    <glyph glyph-name="edieresis" unicode="&#xeb;" horiz-adv-x="516" 
d="M375 563h-2q-25 0 -43 18q-18 17 -17 43q0 26 18 44t44 18t43 -18t17 -43q0 -26 -17 -44t-43 -18zM175 563q-25 0 -43 18q-18 17 -18 43t18 44t44 18t43 -18t17 -43q0 -26 -18 -44t-43 -18zM268 414q-54 0 -82 -37t-33 -82h214q1 43 -23 81q-22 38 -76 38zM306 83
q68 0 132 22l18 -84q-72 -31 -180 -31t-174 66q-67 66 -67 178q-1 110 63 187t175 77q156 0 199 -154q11 -40 11 -76t-4 -59h-326q2 -63 44 -95q41 -32 109 -31z" />
    <glyph glyph-name="igrave" unicode="&#xec;" horiz-adv-x="256" 
d="M-29 698h120l87 -148h-85zM189 0h-123v487h123v-487z" />
    <glyph glyph-name="iacute" unicode="&#xed;" horiz-adv-x="256" 
d="M157 698h121l-122 -148h-85zM189 0h-123v487h123v-487z" />
    <glyph glyph-name="icircumflex" unicode="&#xee;" horiz-adv-x="256" 
d="M86 698h83l98 -148h-85l-54 90h-2l-53 -90h-84zM189 0h-123v487h123v-487z" />
    <glyph glyph-name="idieresis" unicode="&#xef;" horiz-adv-x="256" 
d="M229 563h-2q-25 0 -43 18q-18 17 -17 43q0 26 18 44t44 18t43 -18t17 -43q0 -26 -17 -44t-43 -18zM28 563q-26 0 -44 18q-18 17 -17 43q0 26 18 44t44 18t43 -18t17 -43q1 -26 -17 -44t-44 -18zM189 0h-123v487h123v-487z" />
    <glyph glyph-name="eth" unicode="&#xf0;" horiz-adv-x="560" 
d="M356 599q167 -134 167 -335t-155 -259q-43 -16 -90 -16q-106 -1 -174 67t-69 178q1 110 67 176t161 68q54 0 90 -30l2 3q-41 61 -101 104l-143 -64l-23 52l110 51q-37 25 -99 53l54 72q73 -29 150 -80l133 60l26 -52zM396 242q0 158 -115 158q-59 0 -89 -50t-30 -116
t32 -110q32 -46 86 -46t85 46t31 118z" />
    <glyph glyph-name="ntilde" unicode="&#xf1;" horiz-adv-x="572" 
d="M334 642q25 0 27 43h60q3 -116 -76 -116q-27 0 -61 19t-45 19q-22 0 -25 -45h-61q-1 56 19 88t50 31q30 1 66 -19t46 -20zM178 414q47 84 164 84q64 0 114 -51t51 -158v-289h-123v275q0 123 -93 123q-35 0 -69 -28t-33 -83v-287h-123v342q0 61 -4 145h107l6 -73h3z" />
    <glyph glyph-name="ograve" unicode="&#xf2;" horiz-adv-x="564" 
d="M138 698h120l87 -148h-85zM282 409q-60 0 -90 -49t-30 -119q0 -71 33 -117t87 -46t87 46t33 116t-30 120t-90 49zM285 498q110 0 177 -70t67 -188t-74 -184t-178 -67q-104 0 -173 68q-69 69 -69 185t70 186t180 70z" />
    <glyph glyph-name="oacute" unicode="&#xf3;" horiz-adv-x="564" 
d="M308 698h120l-122 -148h-85zM282 409q-60 0 -90 -49t-30 -119q0 -71 33 -117t87 -46t87 46t33 116t-30 120t-90 49zM285 498q110 0 177 -70t67 -188t-74 -184t-178 -67q-104 0 -173 68q-69 69 -69 185t70 186t180 70z" />
    <glyph glyph-name="ocircumflex" unicode="&#xf4;" horiz-adv-x="564" 
d="M240 698h83l98 -148h-85l-53 90h-2l-54 -90h-84zM282 409q-60 0 -90 -49t-30 -119q0 -71 33 -117t87 -46t87 46t33 116t-30 120t-90 49zM285 498q110 0 177 -70t67 -188t-74 -184t-178 -67q-104 0 -173 68q-69 69 -69 185t70 186t180 70z" />
    <glyph glyph-name="otilde" unicode="&#xf5;" horiz-adv-x="564" 
d="M330 642q24 0 26 43h60q3 -116 -76 -116q-26 0 -60 19t-46 19q-22 0 -25 -45h-61q-2 56 18 88t51 31q30 1 67 -19t46 -20zM282 409q-60 0 -90 -49t-30 -119q0 -71 33 -117t87 -46t87 46t33 116t-30 120t-90 49zM285 498q110 0 177 -70t67 -188t-74 -184t-178 -67
q-104 0 -173 68q-69 69 -69 185t70 186t180 70z" />
    <glyph glyph-name="odieresis" unicode="&#xf6;" horiz-adv-x="564" 
d="M382 563h-2q-24 0 -42 18q-18 17 -18 43t18 44t44 18t43 -18t17 -43q0 -26 -17 -44t-43 -18zM182 563q-26 0 -44 18q-18 17 -17 43q0 26 18 44t44 18t43 -18t17 -43q1 -26 -17 -44t-44 -18zM282 409q-60 0 -90 -49t-30 -119q0 -71 33 -117t87 -46t87 46t33 116t-30 120
t-90 49zM285 498q110 0 177 -70t67 -188t-74 -184t-178 -67q-104 0 -173 68q-69 69 -69 185t70 186t180 70z" />
    <glyph glyph-name="divide" unicode="&#xf7;" horiz-adv-x="596" 
d="M298 26q-28 0 -46 18t-18 48t18 48t46 18t46 -18t18 -48t-18 -48t-46 -18zM556 228h-516v78h516v-78zM298 376q-28 0 -46 18t-18 48t18 48t46 18t46 -18t18 -48t-18 -48t-46 -18z" />
    <glyph glyph-name="oslash" unicode="&#xf8;" horiz-adv-x="564" 
d="M290 78q50 0 85 46t35 110t-24 104l-2 1l-168 -238q24 -23 74 -23zM270 409q-52 0 -84 -50t-32 -112t25 -102h3l168 241q-28 23 -80 23zM284 498q66 0 120 -30l44 65l47 -33l-44 -64q78 -70 78 -192t-73 -188q-74 -66 -158 -67q-84 0 -135 29l-46 -66l-45 36l43 62
q-80 68 -80 188q-1 120 69 190t180 70z" />
    <glyph glyph-name="ugrave" unicode="&#xf9;" horiz-adv-x="569" 
d="M136 698h120l87 -148h-85zM502 487v-341q0 -66 4 -146h-107l-6 73h-3q-52 -84 -157 -84q-73 1 -121 51t-48 161v286h123v-265q0 -133 91 -133q36 -1 60 19q42 33 41 85v294h123z" />
    <glyph glyph-name="uacute" unicode="&#xfa;" horiz-adv-x="569" 
d="M318 698h120l-122 -148h-85zM502 487v-341q0 -66 4 -146h-107l-6 73h-3q-52 -84 -157 -84q-73 1 -121 51t-48 161v286h123v-265q0 -133 91 -133q36 -1 60 19q42 33 41 85v294h123z" />
    <glyph glyph-name="ucircumflex" unicode="&#xfb;" horiz-adv-x="569" 
d="M242 698h84l98 -148h-85l-54 90h-2l-53 -90h-84zM502 487v-341q0 -66 4 -146h-107l-6 73h-3q-52 -84 -157 -84q-73 1 -121 51t-48 161v286h123v-265q0 -133 91 -133q36 -1 60 19q42 33 41 85v294h123z" />
    <glyph glyph-name="udieresis" unicode="&#xfc;" horiz-adv-x="569" 
d="M388 563h-2q-24 0 -42 18q-18 17 -18 43t18 44t44 18t43 -18t17 -43q0 -26 -17 -44t-43 -18zM187 563q-25 0 -43 18q-18 17 -18 43t18 44t44 18t43 -18t17 -43q0 -26 -18 -44t-43 -18zM502 487v-341q0 -66 4 -146h-107l-6 73h-3q-52 -84 -157 -84q-73 1 -121 51t-48 161
v286h123v-265q0 -133 91 -133q36 -1 60 19q42 33 41 85v294h123z" />
    <glyph glyph-name="yacute" unicode="&#xfd;" horiz-adv-x="500" 
d="M292 698h120l-122 -148h-85zM193 16q0 10 -6 24l-179 447h136l87 -261q16 -49 28 -94h3q19 73 26 95l76 260h131l-122 -332q-50 -135 -88 -205q-83 -153 -210 -170l-28 103q36 8 71 34q42 26 68 77q7 12 7 22z" />
    <glyph glyph-name="thorn" unicode="&#xfe;" horiz-adv-x="585" 
d="M189 282v-86q0 -59 52 -94q27 -18 72 -18t79 44t33 114q0 70 -32 115q-31 44 -77 44q-88 0 -117 -74q-10 -24 -10 -45zM66 674h123v-254h2q51 78 145 79t154 -67t60 -189q0 -120 -66 -187t-156 -67t-137 65h-2v-252h-123v872z" />
    <glyph glyph-name="ydieresis" unicode="&#xff;" horiz-adv-x="500" 
d="M362 563h-2q-24 0 -42 18q-18 17 -18 43t18 44t44 18t43 -18t17 -43q0 -26 -17 -44t-43 -18zM161 563q-25 0 -43 18q-18 17 -18 43t18 44t44 18t43 -18t17 -43q0 -26 -18 -44t-43 -18zM193 16q0 10 -6 24l-179 447h136l87 -261q16 -49 28 -94h3q19 73 26 95l76 260h131
l-122 -332q-50 -135 -88 -205q-83 -153 -210 -170l-28 103q36 8 71 34q42 26 68 77q7 12 7 22z" />
    <glyph glyph-name="Amacron" unicode="&#x100;" horiz-adv-x="636" 
d="M190 803h250v-69h-250v69zM226 284h173l-53 166q-9 28 -34 126h-2q-2 -8 -14 -55t-18 -71zM419 191h-213l-58 -191h-127l216 674h157l219 -674h-133z" />
    <glyph glyph-name="amacron" unicode="&#x101;" horiz-adv-x="508" 
d="M135 655h239v-71h-239v71zM154 147q0 -70 72 -70q34 0 66 24t32 70v67q-170 2 -170 -91zM444 292v-175q0 -77 8 -117h-111l-9 54h-3q-50 -65 -132 -65q-81 0 -123 43t-42 102q0 90 76 138t213 46v8q0 33 -21 59q-20 26 -86 26t-123 -36l-24 80q70 43 177 43
q108 0 154 -58t46 -148z" />
    <glyph glyph-name="Abreve" unicode="&#x102;" horiz-adv-x="636" 
d="M318 779q57 0 66 47h66q-2 -53 -35 -85t-99 -32q-128 0 -132 117h68q9 -47 66 -47zM226 284h173l-53 166q-9 28 -34 126h-2q-2 -8 -14 -55t-18 -71zM419 191h-213l-58 -191h-127l216 674h157l219 -674h-133z" />
    <glyph glyph-name="abreve" unicode="&#x103;" horiz-adv-x="508" 
d="M252 553q-63 0 -96 38t-34 97h67q9 -65 64 -65q31 0 47 19t19 46h67q-1 -61 -36 -98t-98 -37zM154 147q0 -70 72 -70q34 0 66 24t32 70v67q-170 2 -170 -91zM444 292v-175q0 -77 8 -117h-111l-9 54h-3q-50 -65 -132 -65q-81 0 -123 43t-42 102q0 90 76 138t213 46v8
q0 33 -21 59q-20 26 -86 26t-123 -36l-24 80q70 43 177 43q108 0 154 -58t46 -148z" />
    <glyph glyph-name="Aogonek" unicode="&#x104;" horiz-adv-x="636" 
d="M226 284h173l-53 166q-9 28 -34 126h-2q-1 -2 -13 -52t-19 -74zM514 -78q0 -28 15 -42q15 -15 37 -15t45 8l18 -58q-35 -28 -87 -28q-108 0 -109 97q0 55 47 119l-60 188h-214l-58 -191h-127l216 674h157l219 -674l-62 -1q-37 -49 -37 -77z" />
    <glyph glyph-name="aogonek" unicode="&#x105;" horiz-adv-x="508" 
d="M154 147q0 -70 72 -70q34 0 66 24t32 70v67q-170 2 -170 -91zM402 -213q-102 0 -102 97q0 47 40 118l-8 52h-3q-50 -65 -132 -65q-81 0 -123 43t-42 102q0 90 76 138t213 46v8q0 33 -21 59q-20 26 -86 26t-123 -36l-24 80q70 43 177 43q108 0 154 -58t46 -148v-175
q0 -76 7 -117h-41q-29 -46 -29 -82q0 -51 48 -51q23 0 45 10l18 -60q-40 -30 -90 -30z" />
    <glyph glyph-name="Cacute" unicode="&#x106;" horiz-adv-x="588" 
d="M387 831h136l-125 -120h-99zM379 -11q-159 1 -251 93t-93 251t101 255t260 97q105 0 163 -30l-26 -98q-59 26 -149 26t-154 -65q-65 -64 -65 -180t62 -181t156 -65t151 24l20 -97q-62 -30 -175 -30z" />
    <glyph glyph-name="cacute" unicode="&#x107;" horiz-adv-x="449" 
d="M296 698h120l-122 -148h-85zM271 -10q-99 0 -167 68t-69 181q0 113 73 186t198 73q68 0 119 -22l-22 -93q-38 19 -100 19q-63 0 -103 -45t-40 -115t43 -113q42 -42 100 -42t104 19l17 -91q-54 -25 -153 -25z" />
    <glyph glyph-name="Ccircumflex" unicode="&#x108;" horiz-adv-x="588" 
d="M307 833h93l103 -119h-92l-56 65h-2l-56 -65h-91zM379 -11q-159 1 -251 93t-93 251t101 255t260 97q105 0 163 -30l-26 -98q-59 26 -149 26t-154 -65q-65 -64 -65 -180t62 -181t156 -65t151 24l20 -97q-62 -30 -175 -30z" />
    <glyph glyph-name="ccircumflex" unicode="&#x109;" horiz-adv-x="449" 
d="M221 698h83l98 -148h-85l-54 90h-2l-53 -90h-84zM271 -10q-99 0 -167 68t-69 181q0 113 73 186t198 73q68 0 119 -22l-22 -93q-38 19 -100 19q-63 0 -103 -45t-40 -115t43 -113q42 -42 100 -42t104 19l17 -91q-54 -25 -153 -25z" />
    <glyph glyph-name="Cdotaccent" unicode="&#x10a;" horiz-adv-x="588" 
d="M354 715q-26 0 -42 18q-18 18 -18 43q0 24 18 42t44 18t42 -18t16 -42q0 -25 -17 -43t-43 -18zM379 -11q-159 1 -251 93t-93 251t101 255t260 97q105 0 163 -30l-26 -98q-59 26 -149 26t-154 -65q-65 -64 -65 -180t62 -181t156 -65t151 24l20 -97q-62 -30 -175 -30z" />
    <glyph glyph-name="cdotaccent" unicode="&#x10b;" horiz-adv-x="449" 
d="M272 562q-26 0 -44 18t-18 44t18 44t44 18t43 -18t17 -44t-17 -44t-43 -18zM271 -10q-99 0 -167 68t-69 181q0 113 73 186t198 73q68 0 119 -22l-22 -93q-38 19 -100 19q-63 0 -103 -45t-40 -115t43 -113q42 -42 100 -42t104 19l17 -91q-54 -25 -153 -25z" />
    <glyph glyph-name="Ccaron" unicode="&#x10c;" horiz-adv-x="588" 
d="M404 711h-93l-103 119h92l57 -66h2l55 66h91zM379 -11q-159 1 -251 93t-93 251t101 255t260 97q105 0 163 -30l-26 -98q-59 26 -149 26t-154 -65q-65 -64 -65 -180t62 -181t156 -65t151 24l20 -97q-62 -30 -175 -30z" />
    <glyph glyph-name="ccaron" unicode="&#x10d;" horiz-adv-x="449" 
d="M308 550h-85l-98 148h85l55 -91h2l54 91h84zM271 -10q-99 0 -167 68t-69 181q0 113 73 186t198 73q68 0 119 -22l-22 -93q-38 19 -100 19q-63 0 -103 -45t-40 -115t43 -113q42 -42 100 -42t104 19l17 -91q-54 -25 -153 -25z" />
    <glyph glyph-name="Dcaron" unicode="&#x10e;" horiz-adv-x="683" 
d="M363 711h-93l-103 119h92l57 -66h2l55 66h91zM278 583q-52 0 -84 -7v-483q17 -3 68 -3q121 0 188 66q68 66 68 185t-62 181t-178 61zM267 679q181 0 274 -78q106 -85 106 -253t-103 -262t-307 -93q-92 0 -166 9v663q96 14 196 14z" />
    <glyph glyph-name="dcaron" unicode="&#x10f;" horiz-adv-x="591" 
d="M588 632q0 44 -25 73l81 15q34 -24 34 -74q0 -83 -69 -139l-52 36q31 45 31 89zM392 211v73q0 60 -34 89q-34 30 -84 30t-82 -45q-32 -44 -32 -114t32 -113t80 -43t84 29q36 30 36 94zM256 498q95 0 134 -63h2v275h123v-573q0 -71 4 -137h-109l-6 77h-2q-47 -88 -147 -88
t-160 69q-61 70 -61 184t64 185t158 71z" />
    <glyph glyph-name="Dcroat" unicode="&#x110;" horiz-adv-x="689" 
d="M355 391v-97h-155v-203q17 -3 69 -3q123 0 189 66t66 189t-61 183q-62 60 -179 60q-52 0 -84 -7v-188h155zM1 294v97h76v277q96 14 196 14q183 0 275 -77q106 -85 106 -255t-104 -264t-307 -95q-92 0 -166 9v294h-76z" />
    <glyph glyph-name="dcroat" unicode="&#x111;" horiz-adv-x="581" 
d="M392 211v73q0 60 -34 89q-34 30 -84 30t-82 -45q-32 -44 -32 -114t32 -113t80 -43t84 29q36 30 36 94zM256 498q95 0 134 -63h2v110h-189v71h189v94h123v-94h79v-71h-79v-408q0 -71 4 -137h-109l-6 77h-2q-47 -88 -147 -88t-160 69q-61 70 -61 184t64 185t158 71z" />
    <glyph glyph-name="Emacron" unicode="&#x112;" horiz-adv-x="515" 
d="M141 803h250v-69h-250v69zM448 399v-100h-254v-198h284v-101h-407v674h392v-101h-269v-174h254z" />
    <glyph glyph-name="emacron" unicode="&#x113;" horiz-adv-x="516" 
d="M142 655h239v-71h-239v71zM268 414q-54 0 -82 -37t-33 -82h214q1 43 -23 81q-22 38 -76 38zM306 83q68 0 132 22l18 -84q-72 -31 -180 -31t-174 66q-67 66 -67 178q-1 110 63 187t175 77q156 0 199 -154q11 -40 11 -76t-4 -59h-326q2 -63 44 -95q41 -32 109 -31z" />
    <glyph glyph-name="Ebreve" unicode="&#x114;" horiz-adv-x="515" 
d="M267 784q57 0 66 47h66q-2 -53 -35 -85t-99 -32q-128 0 -132 117h68q9 -47 66 -47zM448 399v-100h-254v-198h284v-101h-407v674h392v-101h-269v-174h254z" />
    <glyph glyph-name="ebreve" unicode="&#x115;" horiz-adv-x="516" 
d="M260 553q-64 0 -97 38t-34 97h67q9 -65 65 -65q31 0 47 19t19 46h67q-1 -61 -36 -98q-34 -37 -98 -37zM268 414q-54 0 -82 -37t-33 -82h214q1 43 -23 81q-22 38 -76 38zM306 83q68 0 132 22l18 -84q-72 -31 -180 -31t-174 66q-67 66 -67 178q-1 110 63 187t175 77
q156 0 199 -154q11 -40 11 -76t-4 -59h-326q2 -63 44 -95q41 -32 109 -31z" />
    <glyph glyph-name="Edotaccent" unicode="&#x116;" horiz-adv-x="515" 
d="M260 717q-26 0 -42 18q-18 18 -18 43q0 24 18 42t44 18t42 -18t16 -42q0 -25 -17 -43t-43 -18zM448 399v-100h-254v-198h284v-101h-407v674h392v-101h-269v-174h254z" />
    <glyph glyph-name="edotaccent" unicode="&#x117;" horiz-adv-x="516" 
d="M263 562q-26 0 -44 18t-18 44t18 44t44 18t43 -18t17 -44t-17 -44t-43 -18zM268 414q-54 0 -82 -37t-33 -82h214q1 43 -23 81q-22 38 -76 38zM306 83q68 0 132 22l18 -84q-72 -31 -180 -31t-174 66q-67 66 -67 178q-1 110 63 187t175 77q156 0 199 -154q11 -40 11 -76
t-4 -59h-326q2 -63 44 -95q41 -32 109 -31z" />
    <glyph glyph-name="Eogonek" unicode="&#x118;" horiz-adv-x="515" 
d="M382 -92q0 -42 41 -42q24 0 43 8l18 -60q-39 -27 -90 -27q-104 0 -104 87q0 74 75 126h-294v674h392v-101h-269v-174h254v-100h-254v-198h284v-101h-22q-74 -50 -74 -92z" />
    <glyph glyph-name="eogonek" unicode="&#x119;" horiz-adv-x="516" 
d="M268 414q-54 0 -82 -36t-33 -83h214q1 43 -23 81q-22 38 -76 38zM322 -97q0 -37 37 -37q26 0 46 10l19 -59q-40 -30 -90 -30q-102 0 -102 83q0 64 70 120v1q-7 -1 -20 -1q-115 2 -181 68t-66 176q-1 110 63 187t175 77q156 0 199 -154q11 -40 11 -78t-4 -57h-326
q3 -63 45 -95t110 -31q68 0 130 22l18 -84q-17 -8 -44 -16q-32 -15 -61 -45t-29 -57z" />
    <glyph glyph-name="Ecaron" unicode="&#x11a;" horiz-adv-x="515" 
d="M312 710h-93l-103 119h92l57 -66h2l55 66h91zM448 399v-100h-254v-198h284v-101h-407v674h392v-101h-269v-174h254z" />
    <glyph glyph-name="ecaron" unicode="&#x11b;" horiz-adv-x="516" 
d="M304 550h-85l-98 148h85l54 -91h2l55 91h84zM268 414q-54 0 -82 -37t-33 -82h214q1 43 -23 81q-22 38 -76 38zM306 83q68 0 132 22l18 -84q-72 -31 -180 -31t-174 66q-67 66 -67 178q-1 110 63 187t175 77q156 0 199 -154q11 -40 11 -76t-4 -59h-326q2 -63 44 -95
q41 -32 109 -31z" />
    <glyph glyph-name="Gcircumflex" unicode="&#x11c;" horiz-adv-x="666" 
d="M321 832h92l103 -119h-92l-56 65h-2l-56 -65h-91zM611 372v-341q-102 -38 -216 -38q-171 -1 -265 89t-94 250t104 254q103 95 271 95q113 0 179 -32l-27 -99q-63 29 -163 29q-100 1 -168 -63q-67 -64 -67 -178t64 -180t170 -65q63 0 93 13v169h-119v97h238z" />
    <glyph glyph-name="gcircumflex" unicode="&#x11d;" horiz-adv-x="573" 
d="M245 700h83l98 -148h-85l-53 90h-2l-54 -90h-84zM384 213v79q0 56 -33 84t-79 28t-78 -43q-34 -43 -34 -112t32 -111t76 -43q86 0 111 75q5 15 5 43zM507 347v-276q0 -156 -69 -218t-182 -62t-179 39l27 93q64 -37 135 -37q147 0 147 147v42h-2q-47 -72 -140 -72t-151 67
t-58 177q0 111 65 181t159 70t138 -76h2l5 65h107q-4 -66 -4 -140z" />
    <glyph glyph-name="Gbreve" unicode="&#x11e;" horiz-adv-x="666" 
d="M368 787q57 0 66 47h66q-2 -53 -35 -85t-99 -32q-128 0 -132 117h68q9 -47 66 -47zM611 372v-341q-102 -38 -216 -38q-171 -1 -265 89t-94 250t104 254q103 95 271 95q113 0 179 -32l-27 -99q-63 29 -163 29q-100 1 -168 -63q-67 -64 -67 -178t64 -180t170 -65
q63 0 93 13v169h-119v97h238z" />
    <glyph glyph-name="gbreve" unicode="&#x11f;" horiz-adv-x="573" 
d="M281 553q-63 0 -96 38t-34 97h67q9 -65 64 -65q32 0 48 19t18 46h67q-1 -61 -36 -98t-98 -37zM384 213v79q0 56 -33 84t-79 28t-78 -43q-34 -43 -34 -112t32 -111t76 -43q86 0 111 75q5 15 5 43zM507 347v-276q0 -156 -69 -218t-182 -62t-179 39l27 93q64 -37 135 -37
q147 0 147 147v42h-2q-47 -72 -140 -72t-151 67t-58 177q0 111 65 181t159 70t138 -76h2l5 65h107q-4 -66 -4 -140z" />
    <glyph glyph-name="Gdotaccent" unicode="&#x120;" horiz-adv-x="666" 
d="M370 715h-2q-24 0 -42 18t-18 43q0 24 18 42t44 18t42 -18t16 -42q0 -25 -17 -43t-41 -18zM611 372v-341q-102 -38 -216 -38q-171 -1 -265 89t-94 250t104 254q103 95 271 95q113 0 179 -32l-27 -99q-63 29 -163 29q-100 1 -168 -63q-67 -64 -67 -178t64 -180t170 -65
q63 0 93 13v169h-119v97h238z" />
    <glyph glyph-name="gdotaccent" unicode="&#x121;" horiz-adv-x="573" 
d="M286 565h-2q-25 0 -43 18t-18 44t18 44t44 18t43 -18t17 -44t-17 -44t-42 -18zM384 213v79q0 56 -33 84t-79 28t-78 -43q-34 -43 -34 -112t32 -111t76 -43q86 0 111 75q5 15 5 43zM507 347v-276q0 -156 -69 -218t-182 -62t-179 39l27 93q64 -37 135 -37q147 0 147 147v42
h-2q-47 -72 -140 -72t-151 67t-58 177q0 111 65 181t159 70t138 -76h2l5 65h107q-4 -66 -4 -140z" />
    <glyph glyph-name="Gcommaaccent" unicode="&#x122;" horiz-adv-x="666" 
d="M342 -114q0 27 -31 58l87 16q39 -28 39 -80q1 -52 -41 -82t-104 -31l-20 54q70 12 70 65zM611 372v-341q-102 -38 -216 -38q-171 -1 -265 89t-94 250t104 254q103 95 271 95q113 0 179 -32l-27 -99q-63 29 -163 29q-100 1 -168 -63q-67 -64 -67 -178t64 -180t170 -65
q63 0 93 13v169h-119v97h238z" />
    <glyph glyph-name="gcommaaccent" unicode="&#x123;" horiz-adv-x="573" 
d="M298 609q0 -30 33 -57l-84 -15q-39 27 -39 75t42 76q42 27 104 29l20 -46q-76 -11 -76 -62zM384 213v79q0 56 -33 84t-79 28t-78 -43q-34 -43 -34 -112t32 -111t76 -43q86 0 111 75q5 15 5 43zM507 347v-276q0 -156 -69 -218t-182 -62t-179 39l27 93q64 -37 135 -37
q147 0 147 147v42h-2q-47 -72 -140 -72t-151 67t-58 177q0 111 65 181t159 70t138 -76h2l5 65h107q-4 -66 -4 -140z" />
    <glyph glyph-name="Hcircumflex" unicode="&#x124;" horiz-adv-x="672" 
d="M289 829h93l103 -119h-92l-56 65h-2l-56 -65h-91zM71 674h123v-270h285v270h123v-674h-123v297h-285v-297h-123v674z" />
    <glyph glyph-name="hcircumflex" unicode="&#x125;" horiz-adv-x="572" 
d="M85 851h93l103 -119h-92l-56 65h-2l-56 -65h-91zM191 421q51 77 159 77q58 0 108 -52t49 -159v-287h-123v274q0 124 -94 124q-34 0 -68 -26t-33 -80v-292h-123v710h123v-289h2z" />
    <glyph glyph-name="Hbar" unicode="&#x126;" horiz-adv-x="681" 
d="M483 383v92h-285v-92h285zM667 475h-61v-475h-123v276h-285v-276h-123v475h-61v75h61v124h123v-124h285v124h123v-124h61v-75z" />
    <glyph glyph-name="hbar" unicode="&#x127;" horiz-adv-x="572" 
d="M191 421q51 77 160 77q57 0 107 -52t49 -159v-287h-123v274q0 124 -94 124q-34 0 -68 -26t-33 -80v-292h-123v545h-78v71h78v94h123v-94h188v-71h-188v-124h2z" />
    <glyph glyph-name="Itilde" unicode="&#x128;" horiz-adv-x="264" 
d="M180 792q24 0 27 41h59q3 -112 -74 -112q-30 0 -64 19t-44 19q-22 0 -25 -44h-60q-1 55 19 85t50 31t64 -19t48 -20zM71 674h123v-674h-123v674z" />
    <glyph glyph-name="itilde" unicode="&#x129;" horiz-adv-x="256" 
d="M64 681q30 1 66 -19t47 -20q23 0 26 43h60q3 -116 -76 -116q-26 0 -60 19t-46 19q-22 0 -25 -45h-61q-1 56 19 88t50 31zM189 0h-123v487h123v-487z" />
    <glyph glyph-name="Imacron" unicode="&#x12a;" horiz-adv-x="264" 
d="M8 803h250v-69h-250v69zM71 674h123v-674h-123v674z" />
    <glyph glyph-name="imacron" unicode="&#x12b;" horiz-adv-x="256" 
d="M9 655h239v-71h-239v71zM189 0h-123v487h123v-487z" />
    <glyph glyph-name="Ibreve" unicode="&#x12c;" horiz-adv-x="264" 
d="M133 784q57 0 66 47h66q-2 -53 -35 -85t-99 -32q-128 0 -132 117h68q9 -47 66 -47zM71 674h123v-674h-123v674z" />
    <glyph glyph-name="ibreve" unicode="&#x12d;" horiz-adv-x="256" 
d="M129 623q31 0 47 19t19 46h67q-1 -61 -36 -98t-98 -37t-96 38t-34 97h67q9 -65 64 -65zM189 0h-123v487h123v-487z" />
    <glyph glyph-name="Iogonek" unicode="&#x12e;" horiz-adv-x="264" 
d="M138 -215q-107 0 -107 97q0 47 40 118v674h123v-674h-52q-30 -48 -30 -78q0 -58 53 -58q24 0 44 8l18 -59q-37 -28 -89 -28z" />
    <glyph glyph-name="iogonek" unicode="&#x12f;" horiz-adv-x="256" 
d="M189 487v-487h-51q-30 -48 -30 -77t15 -44t39 -15t43 8l18 -59q-37 -28 -89 -28q-107 0 -107 98q0 42 39 117v487h123zM128 559q-32 0 -52 20t-19 49q0 28 20 48q19 20 51 20t52 -20t19 -48q1 -29 -19 -49t-52 -20z" />
    <glyph glyph-name="Idotaccent" unicode="&#x130;" horiz-adv-x="264" 
d="M132 717q-26 0 -42 18q-18 18 -18 43q0 24 18 42t44 18t42 -18t16 -42q0 -25 -17 -43t-43 -18zM71 674h123v-674h-123v674z" />
    <glyph glyph-name="dotlessi" unicode="&#x131;" horiz-adv-x="256" 
d="M189 0h-123v487h123v-487z" />
    <glyph glyph-name="IJ" unicode="&#x132;" horiz-adv-x="657" 
d="M469 241v433h123v-437q0 -133 -58 -191t-165 -57q-61 0 -103 16l15 99q33 -12 83 -12q106 0 105 149zM71 674h123v-674h-123v674z" />
    <glyph glyph-name="ij" unicode="&#x133;" horiz-adv-x="526" 
d="M400 690q30 0 48 -19t20 -47q0 -28 -19 -48q-19 -19 -51 -19t-50 19q-18 20 -18 48t20 47t50 19zM338 87v400h123v-435q0 -144 -62 -204t-173 -61l-12 96q66 5 88 29t29 61q7 36 7 114zM128 690q30 0 50 -19q18 -19 18 -47t-18 -48q-20 -19 -50 -19t-50 19q-19 20 -19 48
q-1 28 19 47t50 19zM189 0h-123v487h123v-487z" />
    <glyph glyph-name="Jcircumflex" unicode="&#x134;" horiz-adv-x="392" 
d="M217 829h93l103 -119h-92l-56 65h-2l-56 -65h-91zM205 241v433h123v-437q0 -133 -58 -191t-165 -57q-61 0 -104 16l15 99q34 -12 83 -12q106 0 106 149z" />
    <glyph glyph-name="jcircumflex" unicode="&#x135;" horiz-adv-x="270" 
d="M95 694h83l98 -148h-85l-54 90h-2l-53 -90h-84zM82 87v400h123v-435q0 -144 -62 -204t-173 -61l-12 96q62 5 86 29t31 61q7 36 7 114z" />
    <glyph glyph-name="Kcommaaccent" unicode="&#x136;" horiz-adv-x="582" 
d="M279 -113q0 27 -31 58l87 16q39 -27 39 -79t-42 -82t-103 -32l-20 54q70 12 70 65zM71 0v674h122v-310h3q14 22 49 73l177 237h151l-232 -287l247 -387h-144l-190 309l-61 -72v-237h-122z" />
    <glyph glyph-name="kcommaaccent" unicode="&#x137;" horiz-adv-x="509" 
d="M241 -116q0 29 -31 60l87 16q39 -28 39 -80t-42 -82t-103 -31l-20 54q70 12 70 63zM189 710v-437h2q19 30 38 57l119 157h148l-181 -199l206 -288h-151l-140 215l-41 -49v-166h-123v710h123z" />
    <glyph glyph-name="kgreenlandic" unicode="&#x138;" horiz-adv-x="509" 
d="M189 487v-214h2q19 30 38 57l119 157h148l-181 -199l206 -288h-151l-140 215l-41 -49v-166h-123v487h123z" />
    <glyph glyph-name="Lacute" unicode="&#x139;" horiz-adv-x="493" 
d="M171 830h136l-125 -120h-99zM71 0v674h123v-571h277v-103h-400z" />
    <glyph glyph-name="lacute" unicode="&#x13a;" horiz-adv-x="257" 
d="M149 860h136l-125 -120h-99zM66 0v710h123v-710h-123z" />
    <glyph glyph-name="Lcommaaccent" unicode="&#x13b;" horiz-adv-x="493" 
d="M238 -114q0 27 -31 58l87 16q39 -28 39 -80q1 -52 -41 -82t-104 -31l-20 54q70 12 70 65zM71 0v674h123v-571h277v-103h-400z" />
    <glyph glyph-name="lcommaaccent" unicode="&#x13c;" horiz-adv-x="257" 
d="M106 -116q0 29 -31 60l87 16q39 -28 39 -80q1 -52 -41 -82t-104 -31l-20 54q70 12 70 63zM66 0v710h123v-710h-123z" />
    <glyph glyph-name="Lcaron" unicode="&#x13d;" horiz-adv-x="493" 
d="M328 610q0 29 -31 60l87 16q39 -28 39 -80q1 -52 -41 -82t-104 -31l-20 54q70 14 70 63zM71 0v674h123v-571h277v-103h-400z" />
    <glyph glyph-name="lcaron" unicode="&#x13e;" horiz-adv-x="266" 
d="M315 720q34 -24 34 -76t-14 -73q-13 -21 -17 -27q-8 -10 -20 -22l-14 -15l-56 36q31 49 31 91t-25 71zM66 0v710h123v-710h-123z" />
    <glyph glyph-name="Ldot" unicode="&#x13f;" horiz-adv-x="493" 
d="M364 315q-26 0 -44 18t-17 43q0 24 18 42q17 18 43 18t42 -18t17 -42q0 -25 -17 -43q-16 -18 -42 -18zM71 0v674h123v-571h277v-103h-400z" />
    <glyph glyph-name="ldot" unicode="&#x140;" horiz-adv-x="317" 
d="M286 335q-24 0 -40 18t-16 43t16 42t41 17q23 1 39 -17t16 -43t-16 -43t-40 -17zM66 0v710h123v-710h-123z" />
    <glyph glyph-name="Lslash" unicode="&#x141;" horiz-adv-x="499" 
d="M476 0h-400v251l-79 -56v88l79 56v335h123v-253l129 91v-89l-129 -91v-229h277v-103z" />
    <glyph glyph-name="lslash" unicode="&#x142;" horiz-adv-x="267" 
d="M195 0h-123v256l-66 -55v91l66 55v363h123v-271l71 59v-92l-71 -58v-348z" />
    <glyph glyph-name="Nacute" unicode="&#x143;" horiz-adv-x="676" 
d="M360 830h136l-125 -120h-99zM184 0h-114v674h141l174 -289q69 -117 115 -226h2q-11 110 -11 280v235h114v-674h-128l-176 297q-76 131 -120 232l-4 -1q7 -122 7 -287v-241z" />
    <glyph glyph-name="nacute" unicode="&#x144;" horiz-adv-x="572" 
d="M310 698h121l-122 -148h-85zM178 414q47 84 164 84q64 0 114 -51t51 -158v-289h-123v275q0 123 -93 123q-35 0 -69 -28t-33 -83v-287h-123v342q0 61 -4 145h107l6 -73h3z" />
    <glyph glyph-name="Ncommaaccent" unicode="&#x145;" horiz-adv-x="676" 
d="M323 -112q0 28 -32 58l88 16q39 -28 39 -80t-42 -82t-103 -31l-20 54q70 11 70 65zM184 0h-114v674h141l174 -289q69 -117 115 -226h2q-11 110 -11 280v235h114v-674h-128l-176 297q-76 131 -120 232l-4 -1q7 -122 7 -287v-241z" />
    <glyph glyph-name="ncommaaccent" unicode="&#x146;" horiz-adv-x="572" 
d="M273 -115q0 28 -32 60l88 16q39 -27 39 -79t-42 -82t-104 -32l-20 54q71 12 71 63zM178 414q47 84 164 84q64 0 114 -51t51 -158v-289h-123v275q0 123 -93 123q-35 0 -69 -28t-33 -83v-287h-123v342q0 61 -4 145h107l6 -73h3z" />
    <glyph glyph-name="Ncaron" unicode="&#x147;" horiz-adv-x="676" 
d="M387 707h-92l-103 119h92l57 -66h2l55 66h91zM184 0h-114v674h141l174 -289q69 -117 115 -226h2q-11 110 -11 280v235h114v-674h-128l-176 297q-76 131 -120 232l-4 -1q7 -122 7 -287v-241z" />
    <glyph glyph-name="ncaron" unicode="&#x148;" horiz-adv-x="572" 
d="M328 550h-84l-98 148h85l54 -91h2l55 91h84zM178 414q47 84 164 84q64 0 114 -51t51 -158v-289h-123v275q0 123 -93 123q-35 0 -69 -28t-33 -83v-287h-123v342q0 61 -4 145h107l6 -73h3z" />
    <glyph glyph-name="napostrophe" unicode="&#x149;" horiz-adv-x="572" 
d="M46 648q0 36 -25 59l83 21q33 -22 33 -84t-71 -114l-53 35q33 47 33 83zM178 414q47 84 164 84q64 0 114 -51t51 -158v-289h-123v275q0 123 -93 123q-35 0 -69 -28t-33 -83v-287h-123v342q0 61 -4 145h107l6 -73h3z" />
    <glyph glyph-name="Eng" unicode="&#x14a;" horiz-adv-x="676" 
d="M184 0h-114v674h141l174 -289q69 -117 115 -226l2 1q-11 109 -11 279v235h114v-630q0 -225 -212 -252l-27 94q106 23 119 103l-184 308q-76 131 -120 232l-4 -1q7 -122 7 -287v-241z" />
    <glyph glyph-name="eng" unicode="&#x14b;" horiz-adv-x="572" 
d="M178 414q47 84 164 84q64 0 114 -51t51 -158v-230q0 -220 -199 -247l-24 97q52 9 76 41t24 92v233q0 123 -93 123q-35 0 -69 -28t-33 -83v-287h-123v342q0 61 -4 145h107l6 -73h3z" />
    <glyph glyph-name="Omacron" unicode="&#x14c;" horiz-adv-x="704" 
d="M228 806h250v-69h-250v69zM353 587q-87 1 -137 -71t-50 -180t50 -178t138 -70q86 0 136 72t49 176q0 106 -49 178t-137 73zM358 686q143 0 227 -96t84 -254t-90 -252q-89 -94 -231 -95q-142 1 -227 97t-85 249t90 252t232 99z" />
    <glyph glyph-name="omacron" unicode="&#x14d;" horiz-adv-x="564" 
d="M163 655h239v-71h-239v71zM282 409q-60 0 -90 -49t-30 -119q0 -71 33 -117t87 -46t87 46t33 116t-30 120t-90 49zM285 498q110 0 177 -70t67 -188t-74 -184t-178 -67q-104 0 -173 68q-69 69 -69 185t70 186t180 70z" />
    <glyph glyph-name="Obreve" unicode="&#x14e;" horiz-adv-x="704" 
d="M353 790q57 0 66 47h66q-2 -53 -35 -85t-99 -32q-128 0 -132 117h68q9 -47 66 -47zM353 587q-87 1 -137 -71t-50 -180t50 -178t138 -70q86 0 136 72t49 176q0 106 -49 178t-137 73zM358 686q143 0 227 -96t84 -254t-90 -252q-89 -94 -231 -95q-142 1 -227 97t-85 249
t90 252t232 99z" />
    <glyph glyph-name="obreve" unicode="&#x14f;" horiz-adv-x="564" 
d="M280 553q-64 0 -97 38t-34 97h67q9 -65 65 -65q31 0 47 19t19 46h67q-1 -61 -36 -98q-34 -37 -98 -37zM282 409q-60 0 -90 -49t-30 -119q0 -71 33 -117t87 -46t87 46t33 116t-30 120t-90 49zM285 498q110 0 177 -70t67 -188t-74 -184t-178 -67q-104 0 -173 68
q-69 69 -69 185t70 186t180 70z" />
    <glyph glyph-name="Ohungarumlaut" unicode="&#x150;" horiz-adv-x="704" 
d="M464 833h121l-106 -114h-86zM299 833h120l-106 -114h-86zM353 587q-87 1 -137 -71t-50 -180t50 -178t138 -70q86 0 136 72t49 176q0 106 -49 178t-137 73zM358 686q143 0 227 -96t84 -254t-90 -252q-89 -94 -231 -95q-142 1 -227 97t-85 249t90 252t232 99z" />
    <glyph glyph-name="ohungarumlaut" unicode="&#x151;" horiz-adv-x="564" 
d="M378 697h104l-103 -143h-72zM217 697h105l-103 -143h-72zM282 409q-60 0 -90 -49t-30 -119q0 -71 33 -117t87 -46t87 46t33 116t-30 120t-90 49zM285 498q110 0 177 -70t67 -188t-74 -184t-178 -67q-104 0 -173 68q-69 69 -69 185t70 186t180 70z" />
    <glyph glyph-name="OE" unicode="&#x152;" horiz-adv-x="917" 
d="M381 587q-95 1 -155 -67t-60 -182t60 -182t164 -68q52 0 82 12v473q-34 14 -91 14zM864 674v-101h-269v-174h254v-100h-254v-197h284v-102h-364l-146 -11q-159 -1 -246 97t-87 254t92 250q92 96 244 96l153 -12h339z" />
    <glyph glyph-name="oe" unicode="&#x153;" horiz-adv-x="866" 
d="M621 414q-53 0 -80 -37t-31 -81h208q0 44 -22 81t-75 37zM278 409q-60 -1 -88 -51t-28 -118t32 -115t86 -47t86 45t31 117q1 72 -29 120t-90 49zM35 242q0 116 68 186t173 70q58 0 106 -26t71 -74h2q57 100 174 100q151 0 193 -156q10 -40 11 -72q0 -32 -3 -59h-318
q1 -61 42 -95q40 -34 104 -34t133 26l18 -84q-63 -35 -179 -35t-174 99h-3q-57 -99 -185 -99q-100 0 -166 69t-67 184z" />
    <glyph glyph-name="Racute" unicode="&#x154;" horiz-adv-x="569" 
d="M298 832h136l-125 -120h-99zM400 478q0 108 -131 108q-52 0 -76 -6v-213h73q62 0 98 30t36 81zM257 679q266 0 266 -190q1 -62 -35 -106t-88 -62v-3q68 -25 94 -130q45 -172 53 -188h-126q-19 38 -39 131t-48 119q-26 26 -79 27h-62v-277h-122v664q78 15 186 15z" />
    <glyph glyph-name="racute" unicode="&#x155;" horiz-adv-x="356" 
d="M213 698h121l-122 -148h-85zM66 0v330q0 100 -4 157h106l5 -92h3q16 49 54 76t66 27t43 -3v-115q-17 3 -49 3t-66 -30q-35 -30 -35 -100v-253h-123z" />
    <glyph glyph-name="Rcommaaccent" unicode="&#x156;" horiz-adv-x="569" 
d="M270 -109q0 27 -31 58l87 16q39 -27 39 -79q1 -52 -41 -82t-104 -32l-20 54q70 12 70 65zM400 478q0 108 -131 108q-52 0 -76 -6v-213h73q62 0 98 30t36 81zM257 679q266 0 266 -190q1 -62 -35 -106t-88 -62v-3q68 -25 94 -130q45 -172 53 -188h-126q-19 38 -39 131
t-48 119q-26 26 -79 27h-62v-277h-122v664q78 15 186 15z" />
    <glyph glyph-name="rcommaaccent" unicode="&#x157;" horiz-adv-x="356" 
d="M113 -116q0 29 -31 60l87 16q39 -28 39 -80t-42 -82t-103 -31l-20 54q70 12 70 63zM66 0v330q0 100 -4 157h106l5 -92h3q16 49 54 76t66 27t43 -3v-115q-17 3 -49 3t-66 -30q-35 -30 -35 -100v-253h-123z" />
    <glyph glyph-name="Rcaron" unicode="&#x158;" horiz-adv-x="569" 
d="M325 711h-93l-103 119h92l57 -66h2l55 66h91zM400 478q0 108 -131 108q-52 0 -76 -6v-213h73q62 0 98 30t36 81zM257 679q266 0 266 -190q1 -62 -35 -106t-88 -62v-3q68 -25 94 -130q45 -172 53 -188h-126q-19 38 -39 131t-48 119q-26 26 -79 27h-62v-277h-122v664
q78 15 186 15z" />
    <glyph glyph-name="rcaron" unicode="&#x159;" horiz-adv-x="356" 
d="M234 550h-84l-98 148h85l53 -91h2l56 91h84zM66 0v330q0 100 -4 157h106l5 -92h3q16 49 54 76t66 27t43 -3v-115q-17 3 -49 3t-66 -30q-35 -30 -35 -100v-253h-123z" />
    <glyph glyph-name="Sacute" unicode="&#x15a;" horiz-adv-x="519" 
d="M296 832h135l-125 -120h-99zM216 91q138 0 138 92q0 38 -28 63t-91 49q-183 65 -183 196q0 85 66 139t166 55q102 0 168 -34l-29 -99q-62 32 -126 32t-92 -24t-28 -59q1 -35 29 -58t108 -54q164 -63 165 -197q1 -87 -65 -145t-185 -58t-188 43l28 102q73 -43 147 -43z
" />
    <glyph glyph-name="sacute" unicode="&#x15b;" horiz-adv-x="417" 
d="M244 698h120l-122 -148h-85zM190 78q72 0 73 55q0 24 -17 39t-63 32q-134 45 -134 142q1 66 51 109t130 43t133 -29l-25 -86q-47 28 -91 28q-80 0 -80 -52q0 -22 18 -36q18 -15 76 -35q119 -42 121 -145q0 -69 -52 -111t-142 -42t-152 34l25 90q57 -36 129 -36z" />
    <glyph glyph-name="Scircumflex" unicode="&#x15c;" horiz-adv-x="519" 
d="M215 831h92l103 -119h-92l-56 65h-2l-56 -65h-91zM216 91q138 0 138 92q0 38 -28 63t-91 49q-183 65 -183 196q0 85 66 139t166 55q102 0 168 -34l-29 -99q-62 32 -126 32t-92 -24t-28 -59q1 -35 29 -58t108 -54q164 -63 165 -197q1 -87 -65 -145t-185 -58t-188 43
l28 102q73 -43 147 -43z" />
    <glyph glyph-name="scircumflex" unicode="&#x15d;" horiz-adv-x="417" 
d="M169 698h83l98 -148h-85l-53 90h-2l-54 -90h-84zM190 78q72 0 73 55q0 24 -17 39t-63 32q-134 45 -134 142q1 66 51 109t130 43t133 -29l-25 -86q-47 28 -91 28q-80 0 -80 -52q0 -22 18 -36q18 -15 76 -35q119 -42 121 -145q0 -69 -52 -111t-142 -42t-152 34l25 90
q57 -36 129 -36z" />
    <glyph glyph-name="Scedilla" unicode="&#x15e;" horiz-adv-x="519" 
d="M216 91q138 0 138 92q0 38 -28 63t-91 49q-183 65 -183 196q0 85 66 139t166 55q102 0 168 -34l-29 -99q-62 32 -126 32t-92 -24t-28 -59q1 -35 29 -58t108 -54q164 -63 165 -197q0 -72 -47 -126t-137 -71l-25 -42q30 -3 50 -23t21 -56q0 -36 -32 -56t-79 -20t-78 19
l18 49q28 -15 60 -15t33 28q0 33 -78 39l38 71h-4q-108 0 -178 43l28 102q73 -43 147 -43z" />
    <glyph glyph-name="scedilla" unicode="&#x15f;" horiz-adv-x="417" 
d="M289 -118q0 -84 -114 -84q-45 0 -75 19l18 49q28 -15 60 -15t33 28q0 33 -78 39l38 72h-2q-70 0 -134 34l26 89q59 -35 131 -35t71 55q0 24 -17 39t-63 32q-134 45 -134 142q1 66 51 109t130 43t133 -29l-25 -86q-47 28 -91 28q-80 0 -80 -52q0 -22 18 -36t67 -32
q130 -45 130 -148q0 -57 -36 -96t-104 -52l-24 -42q29 -4 50 -23t21 -48z" />
    <glyph glyph-name="Scaron" unicode="&#x160;" horiz-adv-x="519" 
d="M317 711h-93l-103 119h92l57 -66h2l55 66h91zM216 91q138 0 138 92q0 38 -28 63t-91 49q-183 65 -183 196q0 85 66 139t166 55q102 0 168 -34l-29 -99q-62 32 -126 32t-92 -24t-28 -59q1 -35 29 -58t108 -54q164 -63 165 -197q1 -87 -65 -145t-185 -58t-188 43l28 102
q73 -43 147 -43z" />
    <glyph glyph-name="scaron" unicode="&#x161;" horiz-adv-x="417" 
d="M255 550h-85l-98 148h85l55 -91h2l54 91h84zM190 78q72 0 73 55q0 24 -17 39t-63 32q-134 45 -134 142q1 66 51 109t130 43t133 -29l-25 -86q-47 28 -91 28q-80 0 -80 -52q0 -22 18 -36q18 -15 76 -35q119 -42 121 -145q0 -69 -52 -111t-142 -42t-152 34l25 90
q57 -36 129 -36z" />
    <glyph glyph-name="Tcommaaccent" unicode="&#x162;" horiz-adv-x="525" 
d="M237 -114q0 27 -31 58l87 16q39 -28 39 -80t-42 -82t-103 -31l-20 54q70 12 70 65zM200 0v571h-192v103h509v-103h-194v-571h-123z" />
    <glyph glyph-name="tcommaaccent" unicode="&#x163;" horiz-adv-x="351" 
d="M174 -119q0 29 -31 60l87 16q39 -27 39 -79q1 -52 -41 -82t-104 -32l-20 54q70 12 70 63zM231 -11q-145 0 -145 177v229h-69v92h69v91l121 34v-125h117v-92h-117v-215q0 -90 63 -90q30 0 48 5l2 -93q-33 -13 -89 -13z" />
    <glyph glyph-name="Tcaron" unicode="&#x164;" horiz-adv-x="525" 
d="M309 710h-93l-103 119h92l57 -66h2l55 66h91zM200 0v571h-192v103h509v-103h-194v-571h-123z" />
    <glyph glyph-name="tcaron" unicode="&#x165;" horiz-adv-x="357" 
d="M400 657q0 -47 -30 -77t-65 -41l-32 46q35 25 35 63t-24 64l83 15q33 -23 33 -70zM231 -11q-145 0 -145 177v229h-69v92h69v91l121 34v-125h117v-92h-117v-215q0 -90 63 -90q30 0 48 5l2 -93q-33 -13 -89 -13z" />
    <glyph glyph-name="Tbar" unicode="&#x166;" horiz-adv-x="525" 
d="M517 571h-194v-192h119v-76h-119v-303h-123v303h-120v76h120v192h-192v103h509v-103z" />
    <glyph glyph-name="tbar" unicode="&#x167;" horiz-adv-x="351" 
d="M231 -11q-145 0 -145 177v71h-64v68h64v90h-69v92h69v91l121 34v-125h117v-92h-117v-90h90v-68h-90v-65q0 -82 63 -82q30 0 48 5l2 -93q-33 -13 -89 -13z" />
    <glyph glyph-name="Utilde" unicode="&#x168;" horiz-adv-x="666" 
d="M380 792q24 0 27 41h59q3 -112 -74 -112q-28 0 -62 19t-45 19q-22 0 -25 -44h-60q-2 55 18 85t50 31t64 -19t48 -20zM70 674h123v-393q0 -97 37 -145t101 -48q142 0 142 193v393h123v-385q0 -151 -72 -225t-195 -75q-259 0 -259 299v386z" />
    <glyph glyph-name="utilde" unicode="&#x169;" horiz-adv-x="569" 
d="M332 642q25 0 27 43h60q3 -116 -76 -116q-27 0 -61 19t-45 19q-22 0 -25 -45h-61q-1 56 19 88t50 31q30 1 66 -19t46 -20zM502 487v-341q0 -66 4 -146h-107l-6 73h-3q-52 -84 -157 -84q-73 1 -121 51t-48 161v286h123v-265q0 -133 91 -133q36 -1 60 19q42 33 41 85v294
h123z" />
    <glyph glyph-name="Umacron" unicode="&#x16a;" horiz-adv-x="666" 
d="M208 803h250v-69h-250v69zM70 674h123v-393q0 -97 37 -145t101 -48q142 0 142 193v393h123v-385q0 -151 -72 -225t-195 -75q-259 0 -259 299v386z" />
    <glyph glyph-name="umacron" unicode="&#x16b;" horiz-adv-x="569" 
d="M165 655h239v-71h-239v71zM502 487v-341q0 -66 4 -146h-107l-6 73h-3q-52 -84 -157 -84q-73 1 -121 51t-48 161v286h123v-265q0 -133 91 -133q36 -1 60 19q42 33 41 85v294h123z" />
    <glyph glyph-name="Ubreve" unicode="&#x16c;" horiz-adv-x="666" 
d="M334 785q57 0 66 47h66q-2 -53 -35 -85t-99 -32q-128 0 -132 117h68q9 -47 66 -47zM70 674h123v-393q0 -97 37 -145t101 -48q142 0 142 193v393h123v-385q0 -151 -72 -225t-195 -75q-259 0 -259 299v386z" />
    <glyph glyph-name="ubreve" unicode="&#x16d;" horiz-adv-x="569" 
d="M282 553q-64 0 -96 38q-33 38 -34 97h67q9 -65 65 -65q32 0 48 19t18 46h67q-1 -61 -36 -98t-99 -37zM502 487v-341q0 -66 4 -146h-107l-6 73h-3q-52 -84 -157 -84q-73 1 -121 51t-48 161v286h123v-265q0 -133 91 -133q36 -1 60 19q42 33 41 85v294h123z" />
    <glyph glyph-name="Uring" unicode="&#x16e;" horiz-adv-x="666" 
d="M332 836q-21 0 -33 -16t-12 -35q1 -21 13 -35t32 -14t34 14q13 14 13 35t-13 36t-34 15zM334 880q50 0 78 -27t29 -67t-29 -68q-30 -27 -78 -27t-79 27q-30 27 -30 67q-1 39 29 67t80 28zM70 674h123v-393q0 -97 37 -145t101 -48q142 0 142 193v393h123v-385
q0 -151 -72 -225t-195 -75q-259 0 -259 299v386z" />
    <glyph glyph-name="uring" unicode="&#x16f;" horiz-adv-x="569" 
d="M284 582q22 0 35 15t13 37t-14 37t-34 15q-22 0 -34 -16t-13 -36q0 -20 13 -36q12 -16 34 -16zM284 538q-48 0 -78 27t-30 69t30 68q30 28 79 28q51 0 79 -27t28 -69t-30 -69t-78 -27zM502 487v-341q0 -66 4 -146h-107l-6 73h-3q-52 -84 -157 -84q-73 1 -121 51t-48 161
v286h123v-265q0 -133 91 -133q36 -1 60 19q42 33 41 85v294h123z" />
    <glyph glyph-name="Uhungarumlaut" unicode="&#x170;" horiz-adv-x="666" 
d="M434 831h121l-106 -114h-86zM269 831h120l-106 -114h-86zM70 674h123v-393q0 -97 37 -145t101 -48q142 0 142 193v393h123v-385q0 -151 -72 -225t-195 -75q-259 0 -259 299v386z" />
    <glyph glyph-name="uhungarumlaut" unicode="&#x171;" horiz-adv-x="569" 
d="M392 697h104l-103 -143h-72zM231 697h105l-103 -143h-72zM502 487v-341q0 -66 4 -146h-107l-6 73h-3q-52 -84 -157 -84q-73 1 -121 51t-48 161v286h123v-265q0 -133 91 -133q36 -1 60 19q42 33 41 85v294h123z" />
    <glyph glyph-name="Uogonek" unicode="&#x172;" horiz-adv-x="666" 
d="M350 -93q0 -40 42 -40q23 0 44 9l18 -58q-40 -29 -92 -29q-102 0 -102 84q0 55 57 117h-6q-113 4 -177 76t-64 222v386h123v-393q0 -97 37 -145t102 -48q141 0 141 193v393h123v-385q0 -125 -50 -197t-139 -92q-57 -53 -57 -93z" />
    <glyph glyph-name="uogonek" unicode="&#x173;" horiz-adv-x="569" 
d="M502 487v-341q0 -68 4 -146l-36 2q-30 -48 -30 -77t15 -44t39 -15t43 8l18 -59q-37 -28 -89 -28q-107 0 -107 98q0 46 40 117l-6 71h-3q-52 -84 -157 -84q-73 1 -121 51t-48 161v286h123v-265q0 -133 91 -133q36 -1 60 19q42 33 41 85v294h123z" />
    <glyph glyph-name="Wcircumflex" unicode="&#x174;" horiz-adv-x="869" 
d="M391 829h93l103 -119h-92l-56 65h-2l-56 -65h-91zM313 0h-133l-165 674h131l64 -306q26 -126 44 -235h2q8 55 49 236l73 305h129l67 -310q31 -155 41 -228h2q14 87 46 234l70 304h125l-182 -674h-131l-70 317q-26 119 -38 214h-2q-17 -108 -44 -214z" />
    <glyph glyph-name="wcircumflex" unicode="&#x175;" horiz-adv-x="749" 
d="M332 698h83l98 -148h-85l-53 90h-2l-54 -90h-84zM14 487h126l50 -221q20 -85 32 -158h2q5 26 39 157l64 222h100l61 -216q24 -93 39 -163h2q7 54 32 163l54 216h121l-153 -487h-114l-58 198q-22 74 -37 156h-2q-14 -78 -37 -156l-62 -198h-115z" />
    <glyph glyph-name="Ycircumflex" unicode="&#x176;" horiz-adv-x="575" 
d="M240 829h93l103 -119h-92l-56 65h-2l-56 -65h-91zM347 0h-123v281l-213 393h141l80 -173q36 -78 59 -134h2q19 50 58 134l81 173h139l-224 -390v-284z" />
    <glyph glyph-name="ycircumflex" unicode="&#x177;" horiz-adv-x="500" 
d="M212 698h83l98 -148h-85l-53 90h-2l-54 -90h-84zM193 16q0 10 -6 24l-179 447h136l87 -261q16 -49 28 -94h3q19 73 26 95l76 260h131l-122 -332q-50 -135 -88 -205q-83 -153 -210 -170l-28 103q36 8 71 34q42 26 68 77q7 12 7 22z" />
    <glyph glyph-name="Ydieresis" unicode="&#x178;" horiz-adv-x="575" 
d="M394 712q-26 0 -42 18t-16 42q0 26 17 44t43 17q26 1 42 -17t16 -44t-17 -42q-17 -18 -43 -18zM198 712q-26 0 -43 18t-17 43t18 43t42 17q26 1 42 -17t16 -44t-16 -42q-16 -18 -42 -18zM347 0h-123v281l-213 393h141l80 -173q36 -78 59 -134h2q19 50 58 134l81 173h139
l-224 -390v-284z" />
    <glyph glyph-name="Zacute" unicode="&#x179;" horiz-adv-x="566" 
d="M310 830h136l-125 -120h-99zM26 0v68l344 501v3h-314v102h474v-72l-340 -497v-3h345v-102h-509z" />
    <glyph glyph-name="zacute" unicode="&#x17a;" horiz-adv-x="450" 
d="M259 698h121l-122 -148h-85zM20 0v71l183 234q31 37 71 82v2h-236v98h386v-75l-178 -229q-48 -58 -72 -83v-2h256v-98h-410z" />
    <glyph glyph-name="Zdotaccent" unicode="&#x17b;" horiz-adv-x="566" 
d="M286 716q-26 0 -42 18q-18 18 -18 43t18 43t44 17q26 1 42 -17t16 -43t-17 -43t-43 -18zM26 0v68l344 501v3h-314v102h474v-72l-340 -497v-3h345v-102h-509z" />
    <glyph glyph-name="zdotaccent" unicode="&#x17c;" horiz-adv-x="450" 
d="M228 562q-26 0 -44 18t-18 44t18 44t44 18t43 -18t17 -44t-17 -44t-43 -18zM20 0v71l183 234q31 37 71 82v2h-236v98h386v-75l-178 -229q-48 -58 -72 -83v-2h256v-98h-410z" />
    <glyph glyph-name="Zcaron" unicode="&#x17d;" horiz-adv-x="566" 
d="M337 710h-92l-103 119h92l57 -66h2l55 66h91zM26 0v68l344 501v3h-314v102h474v-72l-340 -497v-3h345v-102h-509z" />
    <glyph glyph-name="zcaron" unicode="&#x17e;" horiz-adv-x="450" 
d="M276 550h-84l-98 148h85l54 -91h2l55 91h84zM20 0v71l183 234q31 37 71 82v2h-236v98h386v-75l-178 -229q-48 -58 -72 -83v-2h256v-98h-410z" />
    <glyph glyph-name="florin" unicode="&#x192;" horiz-adv-x="536" 
d="M113 320v87h94l5 39q16 146 109 194q41 22 93 20q52 -1 79 -15l-20 -87q-25 9 -50 9q-79 0 -91 -112l-6 -48h110v-87h-121l-23 -190q-27 -218 -169 -218q-74 0 -103 16l19 87q23 -9 57 -9t54 32q18 32 28 116l19 166h-84z" />
    <glyph glyph-name="Ohorn" unicode="&#x1a0;" horiz-adv-x="704" 
d="M708 666q0 -46 -26 -74t-79 -27q66 -89 66 -238t-90 -243q-89 -94 -231 -95q-142 1 -227 97t-85 249t89 252t231 99q62 0 94 -11t67 -27q36 -16 58 -16q41 0 41 42q0 31 -19 69l90 16q21 -47 21 -93zM352 88q86 0 137 72q50 72 50 176q0 106 -49 178t-137 73
q-87 -1 -137 -73t-50 -178t50 -176q50 -72 136 -72z" />
    <glyph glyph-name="ohorn" unicode="&#x1a1;" horiz-adv-x="573" 
d="M583 491q0 -43 -25 -69t-70 -27q41 -60 41 -147q0 -126 -74 -192t-178 -67q-104 0 -173 68q-69 69 -69 185t70 186t182 70q58 0 103 -20t66 -20q37 0 37 38q0 30 -19 65l89 15q20 -42 20 -85zM282 409q-60 0 -90 -49t-30 -119q0 -71 33 -117t87 -46t87 46t33 117
q0 70 -30 119t-90 49z" />
    <glyph glyph-name="Uhorn" unicode="&#x1af;" horiz-adv-x="705" 
d="M572 674q49 0 49 39q0 32 -18 62l89 15q20 -44 20 -86t-26 -67q-26 -26 -74 -30l-16 -1v-317q0 -151 -72 -225t-195 -75q-259 0 -259 299v386h123v-393q0 -97 37 -145t101 -48q142 0 142 193v393h99z" />
    <glyph glyph-name="uhorn" unicode="&#x1b0;" horiz-adv-x="569" 
d="M600 522q0 -84 -98 -95v-281q0 -66 4 -146h-107l-6 74h-3q-52 -85 -157 -85q-73 1 -121 51t-48 161v286h123v-265q0 -132 91 -133q36 -1 60 19q42 33 41 85v294h82q50 0 50 40q0 29 -20 62l89 15q20 -38 20 -82z" />
    <glyph glyph-name="Aringacute" unicode="&#x1fa;" horiz-adv-x="636" 
d="M226 284h174l-54 166q-9 28 -34 126h-2q-2 -8 -14 -55t-18 -71zM420 191h-214l-58 -191h-127l216 674h157l219 -674h-132zM365 969h143l-146 -90h-105zM320 737q45 0 45 39q-1 18 -13 30t-32 12t-32 -12t-11 -30q0 -16 12 -28t31 -11zM322 692q-46 0 -74 24t-27 60
q0 36 27 60t74 25q47 0 73 -24t26 -61q0 -36 -27 -60q-26 -24 -72 -24z" />
    <glyph glyph-name="aringacute" unicode="&#x1fb;" horiz-adv-x="508" 
d="M254 567q22 1 34 15q14 14 14 36t-14 37t-36 15t-34 -16t-12 -36q0 -21 13 -36t35 -15zM254 523q-48 0 -79 27q-30 27 -30 68q-1 40 29 68t80 28t78 -27t29 -69t-29 -68t-78 -27zM154 147q0 -70 72 -70q34 0 66 24t32 70v67q-170 2 -170 -91zM444 292v-175q0 -75 7 -117
h-111l-8 54h-3q-51 -65 -133 -65t-122 43q-42 43 -42 102q0 90 76 138t213 46v8q0 33 -21 59q-20 26 -86 26t-123 -36l-25 80q72 43 178 43t154 -58q46 -58 46 -148zM305 849h121l-145 -111h-86z" />
    <glyph glyph-name="AEacute" unicode="&#x1fc;" horiz-adv-x="832" 
d="M484 830h136l-125 -120h-99zM255 307h149l-21 177q-9 69 -12 103h-4q-16 -47 -38 -102zM769 674v-101h-280l21 -176h253v-100h-238l25 -196h252v-101h-358l-26 208h-201l-89 -208h-127l296 674h472z" />
    <glyph glyph-name="aeacute" unicode="&#x1fd;" horiz-adv-x="790" 
d="M421 698h120l-122 -148h-85zM546 415q-51 -1 -79 -37t-30 -77h205q1 40 -22 77t-74 37zM326 175v60q-173 2 -173 -91q1 -31 21 -49t54 -18q68 0 93 65q5 13 5 33zM438 216q0 -63 39 -99t106 -36t131 27l19 -84q-69 -35 -151 -35q-158 0 -204 96h-3q-57 -96 -182 -96
q-75 1 -118 43t-43 103q0 87 77 133t214 45v17q0 20 -14 41q-28 40 -93 40q-66 0 -124 -37l-25 79q76 45 163 45q119 0 159 -89h3q57 89 167 89q145 0 187 -154q10 -40 11 -68q0 -28 -3 -60h-316z" />
    <glyph glyph-name="Oslashacute" unicode="&#x1fe;" horiz-adv-x="704" 
d="M379 836h136l-125 -120h-99zM353 86q89 0 141 72t51 165q0 94 -33 159h-3l-254 -361q40 -35 98 -35zM354 589q-90 1 -142 -71t-52 -166t36 -163h2l256 365q-45 35 -100 35zM36 335q0 155 90 253t229 98q92 0 157 -45l57 81l71 -48l-58 -85q87 -95 87 -253
q1 -158 -89 -253q-90 -94 -227 -94q-87 0 -156 43l-61 -88l-68 54l59 86q-91 97 -91 251z" />
    <glyph glyph-name="oslashacute" unicode="&#x1ff;" horiz-adv-x="564" 
d="M308 698h121l-122 -148h-85zM290 78q50 0 85 46t35 110t-24 104l-2 1l-168 -238q24 -23 74 -23zM270 409q-52 0 -84 -50t-32 -112t25 -102h3l168 241q-28 23 -80 23zM284 498q66 0 120 -30l44 65l47 -33l-44 -64q78 -70 78 -192t-73 -188q-74 -66 -158 -67q-84 0 -135 29
l-46 -66l-45 36l43 62q-80 68 -80 188q-1 120 69 190t180 70z" />
    <glyph glyph-name="Scommaaccent" unicode="&#x218;" horiz-adv-x="519" 
d="M243 -114q0 27 -31 58l87 16q39 -28 39 -80t-42 -82t-103 -31l-20 54q70 12 70 65zM216 91q138 0 138 92q0 38 -28 63t-91 49q-183 65 -183 196q0 85 66 139t166 55q102 0 168 -34l-29 -99q-62 32 -126 32t-92 -24t-28 -59q1 -35 29 -58t108 -54q164 -63 165 -197
q1 -87 -65 -145t-185 -58t-188 43l28 102q73 -43 147 -43z" />
    <glyph glyph-name="scommaaccent" unicode="&#x219;" horiz-adv-x="417" 
d="M191 -116q0 29 -31 60l87 16q39 -28 39 -80t-42 -82t-103 -31l-20 54q70 12 70 63zM190 78q72 0 73 55q0 24 -17 39t-63 32q-134 45 -134 142q1 66 51 109t130 43t133 -29l-25 -86q-47 28 -91 28q-80 0 -80 -52q0 -22 18 -36q18 -15 76 -35q119 -42 121 -145
q0 -69 -52 -111t-142 -42t-152 34l25 90q57 -36 129 -36z" />
    <glyph glyph-name="uni021A" unicode="&#x21a;" horiz-adv-x="525" 
d="M237 -114q0 27 -31 58l87 16q39 -28 39 -80t-42 -82t-103 -31l-20 54q70 12 70 65zM200 0v571h-192v103h509v-103h-194v-571h-123z" />
    <glyph glyph-name="uni021B" unicode="&#x21b;" horiz-adv-x="351" 
d="M174 -119q0 29 -31 60l87 16q39 -27 39 -79q1 -52 -41 -82t-104 -32l-20 54q70 12 70 63zM231 -11q-145 0 -145 177v229h-69v92h69v91l121 34v-125h117v-92h-117v-215q0 -90 63 -90q30 0 48 5l2 -93q-33 -13 -89 -13z" />
    <glyph glyph-name="uni021C" unicode="&#x21c;" horiz-adv-x="512" 
d="M342 176q0 50 -34 82t-88 33q-54 0 -106 -17l-15 84q83 17 139 58t56 85q-1 87 -100 89q-68 0 -135 -36l-25 82q83 50 178 50q96 0 150 -42t54 -103q0 -115 -121 -171v-2q77 -9 127 -57t50 -125q0 -122 -114 -208t-288 -99l-15 95q153 18 241 106q46 46 46 96z" />
    <glyph glyph-name="uni021D" unicode="&#x21d;" horiz-adv-x="453" 
d="M257 333q0 70 -97 70q-48 0 -117 -36l-24 80q77 51 169 51t140 -38q49 -38 49 -103q0 -92 -104 -136v-2q70 -9 111 -51t41 -106q0 -112 -106 -188t-271 -83l-13 94q60 2 128 25q69 22 102 57t33 78t-28 70t-73 27q-46 0 -100 -16l-16 85q176 40 176 122z" />
    <glyph glyph-name="uni0232" unicode="&#x232;" horiz-adv-x="575" 
d="M163 803h250v-69h-250v69zM347 0h-123v281l-213 393h141l80 -173q36 -78 59 -134h2q19 50 58 134l81 173h139l-224 -390v-284z" />
    <glyph glyph-name="uni0233" unicode="&#x233;" horiz-adv-x="500" 
d="M131 655h239v-71h-239v71zM193 16q0 10 -6 24l-179 447h136l87 -261q16 -49 28 -94h3q19 73 26 95l76 260h131l-122 -332q-50 -135 -88 -205q-83 -153 -210 -170l-28 103q36 8 71 34q42 26 68 77q7 12 7 22z" />
    <glyph glyph-name="circumflex" unicode="&#x2c6;" 
d="M108 698h83l98 -148h-85l-53 90h-2l-54 -90h-84z" />
    <glyph glyph-name="caron" unicode="&#x2c7;" 
d="M193 550h-85l-98 148h85l54 -91h2l55 91h84z" />
    <glyph glyph-name="uni02C9" unicode="&#x2c9;" 
d="M31 655h239v-71h-239v71z" />
    <glyph glyph-name="breve" unicode="&#x2d8;" 
d="M149 623q31 0 47 19t19 46h67q-1 -61 -36 -98t-98 -37t-96 38t-34 97h67q9 -65 64 -65z" />
    <glyph glyph-name="dotaccent" unicode="&#x2d9;" 
d="M130 562q-26 0 -44 18t-18 44t18 44t44 18t43 -18t17 -44t-17 -44t-43 -18z" />
    <glyph glyph-name="ring" unicode="&#x2da;" 
d="M142 582q22 0 34 15q14 15 14 37t-14 37t-34 15q-22 0 -35 -16t-13 -36t13 -36t35 -16zM142 538q-48 0 -79 27q-30 27 -30 69q-1 42 29 68q30 28 80 28t79 -27t29 -69t-30 -69t-78 -27z" />
    <glyph glyph-name="ogonek" unicode="&#x2db;" 
d="M133 -78q0 -56 52 -56q25 0 45 9l18 -60q-36 -28 -88 -28q-108 0 -108 98q0 59 48 118h70q-37 -55 -37 -81z" />
    <glyph glyph-name="tilde" unicode="&#x2dc;" 
d="M198 642q25 0 27 43h60q3 -116 -76 -116q-27 0 -61 19t-46 19q-22 0 -25 -45h-61q-2 56 18 88t50 31q30 1 67 -19t47 -20z" />
    <glyph glyph-name="hungarumlaut" unicode="&#x2dd;" 
d="M249 697h104l-103 -143h-72zM88 697h105l-103 -143h-72z" />
    <glyph glyph-name="uni037E" unicode="&#x37e;" horiz-adv-x="250" 
d="M134 302q-36 0 -58 24t-22 59t22 59t58 24t58 -23t22 -59t-22 -60t-58 -24zM109 -113l-83 -8q39 149 49 260l128 5q-34 -136 -94 -257z" />
    <glyph glyph-name="tonos" unicode="&#x384;" horiz-adv-x="302" 
d="M132 698h114l-82 -148h-81z" />
    <glyph glyph-name="dieresistonos" unicode="&#x385;" horiz-adv-x="395" 
d="M332 568q-24 0 -40 16t-15 40q0 24 16 40q15 16 39 16t40 -16t15 -40q0 -24 -16 -40q-15 -16 -39 -16zM60 568q-24 0 -39 16q-16 16 -16 40q1 24 17 40t40 16t38 -16q15 -16 15 -40q1 -24 -15 -40t-40 -16zM168 721h95l-52 -167h-65z" />
    <glyph glyph-name="Alphatonos" unicode="&#x386;" horiz-adv-x="642" 
d="M43 674h103l-36 -165h-71zM232 284h173l-53 166q-9 28 -34 126h-2q-2 -8 -14 -55t-18 -71zM426 191h-215l-57 -191h-127l216 674h157l219 -674h-133z" />
    <glyph glyph-name="anoteleia" unicode="&#x387;" horiz-adv-x="250" 
d="M125 231q-37 1 -60 25t-23 61t24 61t60 25q36 0 58 -24q22 -23 24 -61q0 -38 -23 -62t-60 -25z" />
    <glyph glyph-name="Epsilontonos" unicode="&#x388;" horiz-adv-x="606" 
d="M5 674h102l-36 -165h-71zM539 399v-100h-254v-198h284v-101h-408v674h393v-101h-269v-174h254z" />
    <glyph glyph-name="Etatonos" unicode="&#x389;" horiz-adv-x="763" 
d="M4 674h103l-36 -165h-71zM161 674h123v-270h285v270h123v-674h-123v297h-285v-297h-123v674z" />
    <glyph glyph-name="Iotatonos" unicode="&#x38a;" horiz-adv-x="355" 
d="M5 674h102l-36 -165h-71zM161 674h124v-674h-124v674z" />
    <glyph glyph-name="Omicrontonos" unicode="&#x38c;" horiz-adv-x="763" 
d="M4 674h103l-36 -165h-71zM412 88q86 0 136 71t50 177t-49 178t-137 73q-88 -1 -138 -73t-50 -178t50 -176q52 -72 138 -72zM406 -11q-142 1 -227 97t-85 249t90 252t232 99q144 0 228 -96t84 -254t-90 -252t-232 -95z" />
    <glyph glyph-name="Upsilontonos" unicode="&#x38e;" horiz-adv-x="746" 
d="M4 674h103l-36 -165h-71zM498 158v-158h-123v159q0 205 -94 329q-57 75 -136 91l20 101q43 -2 94 -26t88 -64q79 -89 94 -231h6q19 131 105 226q36 40 83 66t84 29l20 -103q-69 -22 -133 -98q-64 -77 -86 -165t-22 -156z" />
    <glyph glyph-name="Omegatonos" unicode="&#x38f;" horiz-adv-x="782" 
d="M4 674h103l-36 -165h-71zM610 95h140v-95h-277v74q137 98 137 277q0 95 -51 165t-139 71t-140 -69q-53 -70 -53 -164q-1 -94 39 -169t99 -111v-74h-279v95h139v3q-53 44 -89 112t-37 154q-1 138 91 230t234 92t228 -91q85 -91 85 -221q0 -170 -127 -276v-3z" />
    <glyph glyph-name="iotadieresistonos" unicode="&#x390;" horiz-adv-x="260" 
d="M272 557q-24 0 -38 16q-16 16 -16 39t16 39t39 16q23 1 39 -15t15 -40q1 -24 -15 -39q-16 -16 -40 -16zM2 557q-23 0 -39 16t-16 39q1 23 17 39t39 16q23 1 38 -15t15 -40t-16 -39q-16 -16 -38 -16zM109 708h95l-53 -165h-63zM190 487v-351q0 -30 10 -42t36 -11l-6 -86
q-18 -8 -62 -8q-100 0 -101 135v363h123z" />
    <glyph glyph-name="Alpha" unicode="&#x391;" horiz-adv-x="636" 
d="M226 284h173l-53 166q-9 28 -34 126h-2q-2 -8 -14 -55t-18 -71zM419 191h-213l-58 -191h-127l216 674h157l219 -674h-133z" />
    <glyph glyph-name="Beta" unicode="&#x392;" horiz-adv-x="576" 
d="M193 309v-220q15 -3 73 -3t100 27t42 84t-42 85t-112 27h-61zM193 398h63q63 0 98 26t35 71q0 93 -126 93q-48 0 -70 -5v-185zM262 679q118 0 181 -43q70 -42 70 -127q0 -49 -29 -87t-83 -58v-3q58 -15 97 -58t39 -117q-1 -74 -69 -134q-68 -59 -246 -59q-79 0 -151 9
v662q73 15 191 15z" />
    <glyph glyph-name="Gamma" unicode="&#x393;" horiz-adv-x="468" 
d="M71 674h387v-103h-264v-571h-123v674z" />
    <glyph glyph-name="uni0394" unicode="&#x394;" horiz-adv-x="636" 
d="M153 101h319l-114 322q-33 102 -45 148h-3q-16 -60 -41 -137zM20 0v64l225 610h146l221 -609v-65h-592z" />
    <glyph glyph-name="Epsilon" unicode="&#x395;" horiz-adv-x="515" 
d="M448 399v-100h-254v-198h284v-101h-407v674h392v-101h-269v-174h254z" />
    <glyph glyph-name="Zeta" unicode="&#x396;" horiz-adv-x="566" 
d="M26 0v68l344 501v3h-314v102h474v-72l-340 -497v-3h345v-102h-509z" />
    <glyph glyph-name="Eta" unicode="&#x397;" horiz-adv-x="672" 
d="M71 674h123v-270h285v270h123v-674h-123v297h-285v-297h-123v674z" />
    <glyph glyph-name="Theta" unicode="&#x398;" horiz-adv-x="706" 
d="M234 395h237v-100h-237v100zM354 87q86 -1 136 71t51 178t-49 179t-138 73t-139 -73q-50 -73 -50 -179t51 -178q52 -72 138 -71zM348 -11q-142 0 -228 96q-86 95 -85 249q-1 154 89 253t234 99t228 -96q85 -96 85 -254q-1 -158 -91 -252t-232 -95z" />
    <glyph glyph-name="Iota" unicode="&#x399;" horiz-adv-x="264" 
d="M71 674h123v-674h-123v674z" />
    <glyph glyph-name="Kappa" unicode="&#x39a;" horiz-adv-x="582" 
d="M71 0v674h122v-310h3q14 22 49 73l177 237h151l-232 -287l247 -387h-144l-190 309l-61 -72v-237h-122z" />
    <glyph glyph-name="Lambda" unicode="&#x39b;" horiz-adv-x="630" 
d="M614 0h-134l-134 431q-16 58 -34 137h-3q-27 -123 -31 -137l-128 -431h-129l216 674h156z" />
    <glyph glyph-name="Mu" unicode="&#x39c;" horiz-adv-x="827" 
d="M653 0l-13 275q-9 195 -8 283h-3q-35 -131 -80 -258l-99 -292h-94l-90 288q-41 135 -68 262h-2q-6 -178 -12 -287l-15 -271h-115l45 674h162l88 -271q35 -116 62 -234h3q31 125 67 235l93 270h160l39 -674h-120z" />
    <glyph glyph-name="Nu" unicode="&#x39d;" horiz-adv-x="676" 
d="M184 0h-114v674h141l174 -289q69 -117 115 -226h2q-11 110 -11 280v235h114v-674h-128l-176 297q-76 131 -120 232l-4 -1q7 -122 7 -287v-241z" />
    <glyph glyph-name="Xi" unicode="&#x39e;" horiz-adv-x="559" 
d="M43 101h480v-101h-480v101zM88 397h390v-100h-390v100zM56 674h454v-100h-454v100z" />
    <glyph glyph-name="Omicron" unicode="&#x39f;" horiz-adv-x="704" 
d="M354 88q86 0 136 72t49 176q0 106 -49 178t-137 73q-87 -1 -137 -73t-50 -178t50 -176q52 -72 138 -72zM348 -11q-142 1 -227 97t-85 249t90 252t232 99q143 0 227 -96t84 -254t-90 -252q-89 -94 -231 -95z" />
    <glyph glyph-name="Pi" unicode="&#x3a0;" horiz-adv-x="652" 
d="M581 674v-674h-123v570h-264v-570h-123v674h510z" />
    <glyph glyph-name="Rho" unicode="&#x3a1;" horiz-adv-x="559" 
d="M267 346q55 0 95 33t39 89q0 56 -36 86t-91 30t-81 -6v-226q19 -6 74 -6zM71 0v665q79 14 199 14q120 -1 187 -55q66 -54 66 -150t-57 -151q-74 -73 -213 -73q-39 0 -60 5v-255h-122z" />
    <glyph glyph-name="Sigma" unicode="&#x3a3;" horiz-adv-x="566" 
d="M186 101h349v-101h-507v71l215 263l-203 259v81h467v-101h-310v-4l180 -230l-191 -234v-4z" />
    <glyph glyph-name="Tau" unicode="&#x3a4;" horiz-adv-x="525" 
d="M200 0v571h-192v103h509v-103h-194v-571h-123z" />
    <glyph glyph-name="Upsilon" unicode="&#x3a5;" horiz-adv-x="609" 
d="M362 158v-158h-123v159q0 205 -94 329q-57 75 -136 91l20 101q43 -2 94 -26t88 -64q79 -89 94 -231h6q19 131 105 226q36 40 83 66t84 29l20 -103q-69 -22 -133 -98q-64 -77 -86 -165t-22 -156z" />
    <glyph glyph-name="Phi" unicode="&#x3a6;" horiz-adv-x="755" 
d="M595 338q1 100 -47 159t-113 67v-450q65 8 113 66t47 158zM159 339q-1 -97 47 -156t113 -69v450q-62 -8 -111 -68t-49 -157zM434 -27h-116v54q-112 12 -198 88q-86 75 -86 219q0 204 186 289q48 22 100 27v51h116v-51q116 -12 200 -92t84 -219q0 -203 -180 -283
q-50 -22 -106 -29v-54z" />
    <glyph glyph-name="Chi" unicode="&#x3a7;" horiz-adv-x="594" 
d="M574 0h-143l-72 134q-36 64 -68 127h-2q-19 -45 -61 -127l-67 -134h-141l200 341l-193 333h142l73 -139q30 -58 55 -113h3q25 58 53 113l72 139h141l-197 -329z" />
    <glyph glyph-name="Psi" unicode="&#x3a8;" horiz-adv-x="717" 
d="M674 674v-195q0 -136 -71 -207t-187 -78v-194h-114v194q-112 6 -185 68t-73 187v225h119v-205q0 -172 139 -180v385h114v-386q139 9 139 207v179h119z" />
    <glyph glyph-name="uni03A9" unicode="&#x3a9;" horiz-adv-x="727" 
d="M555 95h140v-95h-277v74q60 43 98 115t39 165q0 93 -51 163q-50 70 -138 70q-88 1 -141 -69t-53 -162t40 -168q40 -78 98 -114v-74h-278v95h138v3q-54 43 -90 112t-36 154q0 138 92 230t234 92t227 -90t85 -222q0 -166 -127 -276v-3z" />
    <glyph glyph-name="Iotadieresis" unicode="&#x3aa;" horiz-adv-x="264" 
d="M71 674h123v-674h-123v674zM230 713q-26 -1 -42 17t-17 44q0 26 17 42q16 17 42 17t42 -17q16 -16 17 -42q0 -26 -17 -44q-16 -18 -42 -17zM34 713q-26 0 -42 18q-17 18 -17 43q-1 25 17 42t43 17q25 1 41 -17t17 -43q-1 -25 -17 -43t-42 -17z" />
    <glyph glyph-name="Upsilondieresis" unicode="&#x3ab;" horiz-adv-x="609" 
d="M362 158v-158h-123v159q0 205 -94 329q-57 75 -135 91l19 101q43 -2 94 -26t88 -64q79 -89 94 -231h6q19 131 105 226q36 40 83 66t84 29l20 -103q-69 -22 -133 -98q-64 -77 -86 -165t-22 -156zM406 697q-26 -1 -42 17t-17 44q0 26 17 42q16 17 42 17t42 -17
q16 -16 17 -42q0 -26 -17 -44q-16 -18 -42 -17zM210 697q-26 0 -42 18q-17 18 -17 43q-1 25 17 42t43 17q25 1 41 -17t17 -43q-1 -25 -17 -43t-42 -17z" />
    <glyph glyph-name="alphatonos" unicode="&#x3ac;" horiz-adv-x="569" 
d="M160 242q0 -67 30 -111t74 -44t73 31q30 31 37 65t7 66q1 33 -5 63t-34 60t-73 31q-45 0 -77 -47t-32 -114zM499 156q0 -76 46 -74l-7 -87q-16 -6 -43 -6q-82 0 -95 95h-3q-53 -95 -151 -95q-98 -1 -154 67q-57 68 -57 181t66 187q65 74 159 74t135 -85h4q1 13 10 74h103
q-13 -141 -13 -331zM286 694h114l-82 -148h-81z" />
    <glyph glyph-name="epsilontonos" unicode="&#x3ad;" horiz-adv-x="455" 
d="M168 151q0 -70 126 -70q61 0 123 33l18 -81q-69 -44 -171 -44q-102 1 -165 37t-63 112q0 44 32 77t81 42v5q-88 23 -90 102q-1 54 53 94t150 40t157 -37l-23 -79q-48 29 -104 29q-108 0 -109 -57q0 -57 122 -57h53v-82h-53q-137 -2 -137 -64zM251 694h113l-82 -148h-81z
" />
    <glyph glyph-name="etatonos" unicode="&#x3ae;" horiz-adv-x="572" 
d="M178 414q47 84 164 84q64 0 114 -51t51 -158v-311q0 -137 10 -176h-117q-16 33 -16 175v298q0 123 -93 123q-35 0 -69 -28t-33 -83v-287h-123v342q0 100 -15 145h109q15 -28 15 -73h3zM294 694h114l-82 -148h-81z" />
    <glyph glyph-name="iotatonos" unicode="&#x3af;" horiz-adv-x="260" 
d="M189 487v-351q1 -30 11 -42t35 -11l-6 -86q-19 -8 -63 -8q-100 0 -100 135v363h123zM131 694h115l-82 -148h-82z" />
    <glyph glyph-name="upsilondieresistonos" unicode="&#x3b0;" horiz-adv-x="543" 
d="M404 556q-24 0 -38 16q-16 16 -16 39t16 39t39 16t39 -16t15 -38q1 -24 -15 -40t-40 -16zM133 556q-23 0 -39 16t-16 39t16 39t40 16q23 0 38 -16t15 -38q1 -24 -15 -40t-39 -16zM240 707h95l-52 -165h-64zM501 327q0 -338 -237 -338q-91 0 -148 52t-57 152v131
q0 126 -11 163h119q15 -18 15 -93v-190q0 -56 26 -86t66 -29q106 0 106 217q0 108 -31 181h115q37 -72 37 -160z" />
    <glyph glyph-name="alpha" unicode="&#x3b1;" horiz-adv-x="568" 
d="M160 242q0 -67 30 -111t74 -44t73 31q30 31 37 65t7 66q1 33 -5 63t-34 60t-73 31q-45 0 -77 -47t-32 -114zM499 156q0 -76 46 -74l-7 -87q-16 -6 -43 -6q-82 0 -95 95h-3q-53 -95 -151 -95q-98 -1 -154 67q-57 68 -57 181t66 187q65 74 159 74t135 -85h4q1 13 10 74h103
q-13 -141 -13 -331z" />
    <glyph glyph-name="beta" unicode="&#x3b2;" horiz-adv-x="575" 
d="M183 442v-296q45 -64 107 -64t94 34t31 90q-1 54 -37 88t-93 36h-24v78q56 0 83 36t27 80q1 45 -23 73t-62 28q-103 0 -103 -183zM183 41v-62q0 -128 12 -177h-114q-17 39 -17 171v449q0 170 69 234t157 65q88 -1 141 -51q52 -50 52 -113q0 -124 -84 -167v-5
q59 -13 99 -63t41 -134q0 -84 -61 -142q-62 -57 -150 -57t-143 52h-2z" />
    <glyph glyph-name="gamma" unicode="&#x3b3;" horiz-adv-x="492" 
d="M354 448q0 29 -1 39h117q2 -9 2 -36q0 -176 -172 -429q-6 -8 -6 -18t3 -202h-120q6 178 -16 281q-45 206 -170 404h137q33 -49 72 -151t59 -202h4q91 184 91 314z" />
    <glyph glyph-name="delta" unicode="&#x3b4;" horiz-adv-x="562" 
d="M161 233q1 -67 37 -111t87 -44t85 41t33 118q0 77 -77 140l-49 40q-116 -65 -116 -184zM327 632q-70 0 -70 -35q-1 -13 13 -27t50 -42l82 -66q124 -97 124 -216t-71 -188t-175 -69t-175 66q-70 65 -70 163q0 172 173 256v5l-20 17q-58 50 -58 100t50 88t118 37
q125 0 187 -49l-33 -78q-55 38 -125 38z" />
    <glyph glyph-name="epsilon" unicode="&#x3b5;" horiz-adv-x="455" 
d="M168 151q0 -70 126 -70q61 0 123 33l18 -81q-69 -44 -171 -44q-102 1 -165 37t-63 112q0 44 32 77t81 42v5q-88 23 -90 102q-1 54 53 94t152 40t155 -37l-23 -79q-48 29 -104 29q-108 0 -109 -57q0 -57 122 -57h53v-82h-53q-137 -2 -137 -64z" />
    <glyph glyph-name="zeta" unicode="&#x3b6;" horiz-adv-x="427" 
d="M37 228q0 102 59 206t162 180v5h-58q-81 0 -114 13l12 79q32 -4 132 -4h177l18 -82q-110 -53 -186 -161t-76 -218q0 -111 102 -152q45 -20 144 -34q10 -2 10 -12q-1 -46 -21 -104t-46 -92l-78 24q26 52 29 104q-67 11 -114 28q-152 54 -152 220z" />
    <glyph glyph-name="eta" unicode="&#x3b7;" horiz-adv-x="572" 
d="M178 414q47 84 164 84q64 0 114 -51t51 -158v-311q0 -137 10 -176h-117q-16 33 -16 175v298q0 123 -93 123q-35 0 -69 -28t-33 -83v-287h-123v342q0 100 -15 145h109q15 -28 15 -73h3z" />
    <glyph glyph-name="theta" unicode="&#x3b8;" horiz-adv-x="554" 
d="M398 319h-241q0 -115 33 -179t91 -64q57 0 87 66t30 177zM156 408h241q0 98 -31 162t-88 64q-58 0 -90 -65t-32 -161zM280 -11q-118 0 -182 95q-64 96 -63 266q0 170 65 270t183 101q118 0 177 -97q59 -98 59 -268t-61 -268q-60 -98 -178 -99z" />
    <glyph glyph-name="iota" unicode="&#x3b9;" horiz-adv-x="260" 
d="M189 487v-351q1 -30 11 -42t35 -11l-6 -86q-19 -8 -63 -8q-100 0 -100 135v363h123z" />
    <glyph glyph-name="kappa" unicode="&#x3ba;" horiz-adv-x="523" 
d="M190 207v-207h-123v371q0 91 -13 116h121q15 -17 15 -85v-124h4q31 33 176 209h141v-5l-209 -217v-4q55 -13 133 -132l83 -129h-142l-64 100q-69 105 -114 107h-8z" />
    <glyph glyph-name="lambda" unicode="&#x3bb;" horiz-adv-x="497" 
d="M183 475q0 11 -6 24q-44 121 -113 121q-13 0 -19 -1l11 94q15 5 42 5q73 0 118 -56t87 -168l185 -494h-131l-81 246q-20 64 -30 105h-5q-5 -22 -27 -102l-81 -249h-128l173 449q5 15 5 26z" />
    <glyph glyph-name="uni03BC" unicode="&#x3bc;" horiz-adv-x="570" 
d="M189 207q0 -119 90 -119q33 0 67 27t35 78v294h123v-340q0 -35 10 -49t33 -16l-8 -86q-15 -7 -43 -7q-83 0 -99 82h-4q-15 -31 -49 -55t-86 -24t-80 40v-50q0 -132 11 -180h-109q-14 38 -14 178v507h123v-280z" />
    <glyph glyph-name="nu" unicode="&#x3bd;" horiz-adv-x="492" 
d="M352 445q0 28 -1 42h116q3 -17 3 -37q0 -92 -47 -202t-130 -248h-119l-173 487h132l78 -247q18 -57 35 -124h4q102 209 102 329z" />
    <glyph glyph-name="xi" unicode="&#x3be;" horiz-adv-x="454" 
d="M206 536q0 -101 174 -101v-85h-27q-91 0 -139 -36t-49 -92q1 -55 35 -87q55 -51 237 -75q11 -2 11 -12q0 -44 -21 -104t-47 -91l-77 24q24 52 27 103q-160 25 -228 79q-67 54 -67 136q-1 81 43 134t111 71v6q-107 37 -107 142q0 71 58 122t150 51q91 0 145 -27l-22 -82
q-44 21 -96 21q-51 0 -81 -28t-30 -69z" />
    <glyph glyph-name="omicron" unicode="&#x3bf;" horiz-adv-x="564" 
d="M282 78q54 0 87 46t33 116t-30 120t-90 49q-60 0 -90 -49t-30 -119q0 -71 33 -117t87 -46zM277 -11q-104 0 -173 68q-69 69 -69 185t70 186t180 70t177 -70t67 -188t-74 -184t-178 -67z" />
    <glyph glyph-name="pi" unicode="&#x3c0;" horiz-adv-x="580" 
d="M484 393v-244q0 -93 12 -149h-118q-16 27 -16 139v254h-129q-2 -97 -20 -217t-41 -176h-117q24 72 41 188t18 205q-59 0 -92 -8l-14 72q37 30 158 30h393l-12 -94h-63z" />
    <glyph glyph-name="rho" unicode="&#x3c1;" horiz-adv-x="579" 
d="M185 232v-39q1 -54 37 -82q36 -27 84 -27t80 45q33 45 33 114t-31 111t-83 43q-52 -1 -86 -43t-34 -122zM185 47v-69q0 -130 7 -176h-119q-11 37 -11 174v223q0 159 76 229t177 70t165 -69t64 -186t-67 -185t-157 -69q-90 0 -133 58h-2z" />
    <glyph glyph-name="uni03C2" unicode="&#x3c2;" horiz-adv-x="439" 
d="M304 404q-57 0 -100 -47t-43 -117q0 -113 118 -150q51 -15 136 -29q9 -1 9 -31t-20 -90q-20 -61 -45 -89l-79 25q22 40 29 103q-55 10 -87 19q-187 54 -187 240q0 102 74 180q74 80 201 80q72 0 118 -23l-26 -88q-41 17 -98 17z" />
    <glyph glyph-name="sigma" unicode="&#x3c3;" horiz-adv-x="576" 
d="M280 78q52 0 85 47t33 116t-29 118t-87 49t-90 -48q-30 -48 -30 -119t33 -117t85 -46zM520 234q0 -115 -71 -180t-173 -65q-102 -1 -172 67q-69 68 -69 184t71 187q71 70 190 70h269l-4 -90q-42 0 -116 5l-1 -4q76 -59 76 -174z" />
    <glyph glyph-name="tau" unicode="&#x3c4;" horiz-adv-x="435" 
d="M265 -11q-116 0 -116 163v241h-46q-58 0 -95 -7l-16 71q41 30 154 30h279l-13 -94h-140v-235q0 -73 52 -73q16 0 20 1l-5 -87q-18 -10 -74 -10z" />
    <glyph glyph-name="upsilon" unicode="&#x3c5;" horiz-adv-x="543" 
d="M501 327q0 -338 -237 -338q-91 0 -148 52t-57 152v131q0 126 -11 163h119q15 -18 15 -93v-190q0 -56 26 -86t66 -29q106 0 106 217q0 108 -31 181h115q37 -72 37 -160z" />
    <glyph glyph-name="phi" unicode="&#x3c6;" horiz-adv-x="680" 
d="M397 358v-283q59 9 95 56t35 117q0 70 -30 116t-65 46t-35 -52zM157 249q0 -68 34 -115t96 -58v259q0 83 42 123t115 38q72 -2 136 -68t64 -178t-73 -181t-173 -79v-188h-111v188q-105 8 -179 73t-73 172t55 174t118 91l47 -67q-98 -66 -98 -184z" />
    <glyph glyph-name="chi" unicode="&#x3c7;" horiz-adv-x="483" 
d="M11 487h132l108 -239h4q15 39 41 96l64 143h118l-170 -330l173 -349l-116 -28l-129 274l-4 -1q-20 -48 -41 -97l-81 -176l-105 29l173 347z" />
    <glyph glyph-name="psi" unicode="&#x3c8;" horiz-adv-x="694" 
d="M536 309q0 112 -33 178h110q40 -67 40 -191t-59 -212t-184 -95v-187h-111v187q-238 15 -238 260v119q0 86 -8 119h112q14 -17 14 -93v-135q0 -174 120 -183v538h111v-538q58 2 92 62t34 171z" />
    <glyph glyph-name="omega" unicode="&#x3c9;" horiz-adv-x="716" 
d="M155 254q-1 -80 25 -121t56 -41t48 27t17 66l-2 184h116l-3 -184q0 -41 18 -67t49 -26q33 0 57 45t24 126q0 147 -74 225v3h113q33 -31 57 -93t24 -139q0 -128 -56 -199t-138 -71q-44 0 -78 22t-51 59h-4q-41 -81 -124 -81q-83 1 -139 67t-55 168q0 179 83 267h112v-3
q-75 -91 -75 -234z" />
    <glyph glyph-name="iotadieresis" unicode="&#x3ca;" horiz-adv-x="260" 
d="M190 487v-351q0 -30 10 -42t36 -11l-6 -86q-18 -8 -62 -8q-100 0 -101 135v363h123zM230 552q-26 0 -43 18t-17 43t17 43t43 17q26 0 42 -17q17 -16 17 -42t-17 -44q-16 -18 -42 -18zM34 552q-26 0 -43 18t-17 43t18 43t42 17q26 0 42 -17q16 -16 17 -42q-1 -26 -17 -44
t-42 -18z" />
    <glyph glyph-name="upsilondieresis" unicode="&#x3cb;" horiz-adv-x="543" 
d="M501 327q0 -338 -237 -338q-91 0 -148 52t-57 152v131q0 126 -11 163h119q15 -18 15 -93v-190q0 -56 26 -86t66 -29q106 0 106 217q0 108 -31 181h115q37 -72 37 -160zM362 552q-26 0 -42 18q-17 18 -17 43q-1 25 17 43t43 17q25 0 42 -17q17 -16 17 -42t-17 -44t-43 -18
zM167 552q-26 0 -43 18t-17 43q-1 25 17 43t44 17q26 0 42 -17q16 -16 16 -42t-16 -44t-43 -18z" />
    <glyph glyph-name="omicrontonos" unicode="&#x3cc;" horiz-adv-x="564" 
d="M282 78q54 0 87 46t33 116t-30 120t-90 49q-60 0 -90 -49t-30 -119q0 -71 33 -117t87 -46zM277 -11q-104 0 -173 68q-69 69 -69 185t70 186t180 70t177 -70t67 -188t-74 -184t-178 -67zM285 694h114l-82 -148h-81z" />
    <glyph glyph-name="upsilontonos" unicode="&#x3cd;" horiz-adv-x="543" 
d="M501 327q0 -338 -237 -338q-91 0 -148 52t-57 152v131q0 126 -11 163h119q15 -18 15 -93v-190q0 -56 26 -86t66 -29q106 0 106 217q0 108 -31 181h115q37 -72 37 -160zM269 694h115l-83 -148h-82z" />
    <glyph glyph-name="omegatonos" unicode="&#x3ce;" horiz-adv-x="716" 
d="M155 254q-1 -80 25 -121t56 -41t48 27t17 66l-2 184h116l-3 -184q0 -41 18 -67t49 -26q33 0 57 45t24 126q0 147 -74 225v3h113q33 -31 57 -93t24 -139q0 -128 -56 -199t-138 -71q-44 0 -78 22t-51 59h-4q-41 -81 -124 -81q-83 1 -139 67t-55 168q0 179 83 267h112v-3
q-75 -91 -75 -234zM360 694h114l-82 -148h-81z" />
    <glyph glyph-name="uni0401" unicode="&#x401;" horiz-adv-x="515" 
d="M362 716q-26 0 -42 18t-16 42q0 26 17 44t43 17q26 1 42 -17t16 -44t-17 -42q-17 -18 -43 -18zM166 716q-26 0 -43 18t-17 43t18 43t42 17q26 1 42 -17t16 -44t-16 -42q-16 -18 -42 -18zM448 399v-100h-254v-198h284v-101h-407v674h392v-101h-269v-174h254z" />
    <glyph glyph-name="uni0402" unicode="&#x402;" horiz-adv-x="696" 
d="M530 166q0 88 -34 136t-88 48t-97 -30v-320h-123v572h-180v102h541v-102h-238v-155h3q58 34 126 34q104 0 163 -82q56 -73 56 -177q0 -198 -120 -275q-57 -52 -131 -63l-20 99q142 38 142 213z" />
    <glyph glyph-name="uni0403" unicode="&#x403;" horiz-adv-x="464" 
d="M278 830h136l-125 -120h-99zM71 674h385v-101h-262v-573h-123v674z" />
    <glyph glyph-name="uni0404" unicode="&#x404;" horiz-adv-x="587" 
d="M386 585q-86 0 -146 -55t-72 -140h324v-96h-323q5 -88 68 -146t151 -58t146 25l19 -93q-64 -33 -172 -33q-157 0 -251 93t-94 253q0 205 162 301q82 50 188 49q106 0 171 -33l-27 -95q-58 28 -144 28z" />
    <glyph glyph-name="uni0405" unicode="&#x405;" horiz-adv-x="519" 
d="M216 91q138 0 138 92q0 38 -28 63t-91 49q-183 65 -183 196q0 85 66 139t166 55q102 0 168 -34l-29 -99q-62 32 -126 32t-92 -24t-28 -59q1 -35 29 -58t108 -54q164 -63 165 -197q1 -87 -65 -145t-185 -58t-188 43l28 102q73 -43 147 -43z" />
    <glyph glyph-name="uni0406" unicode="&#x406;" horiz-adv-x="264" 
d="M71 674h123v-674h-123v674z" />
    <glyph glyph-name="uni0407" unicode="&#x407;" horiz-adv-x="264" 
d="M230 716q-26 0 -42 18t-16 42q0 26 17 44t43 17q26 1 42 -17t16 -44t-17 -42q-17 -18 -43 -18zM34 716q-26 0 -43 18t-17 43t18 43t42 17q26 1 42 -17t16 -44t-16 -42q-16 -18 -42 -18zM71 674h123v-674h-123v674z" />
    <glyph glyph-name="uni0408" unicode="&#x408;" horiz-adv-x="392" 
d="M205 241v433h123v-437q0 -133 -58 -191t-165 -57q-61 0 -104 16l15 99q34 -12 83 -12q106 0 106 149z" />
    <glyph glyph-name="uni0409" unicode="&#x409;" horiz-adv-x="916" 
d="M612 86q50 0 94 34t45 96t-43 94q-44 30 -88 30t-83 -4v-246q25 -4 75 -4zM124 674h413v-246q35 5 81 5q110 -1 186 -55t75 -152q0 -98 -61 -157q-81 -76 -253 -76q-86 0 -150 10v570h-171v-180q0 -143 -23 -235t-83 -130t-126 -37l-17 99q46 6 75 37q54 54 54 258v289z
" />
    <glyph glyph-name="uni040A" unicode="&#x40a;" horiz-adv-x="928" 
d="M624 86q51 0 95 33t44 95t-42 91t-108 29q-11 0 -65 -3v-241q25 -4 76 -4zM71 674h123v-259h232v259h122v-252q37 5 88 5q110 0 182 -53q72 -52 73 -150q-1 -98 -71 -164t-243 -67q-79 0 -151 9v310h-232v-312h-123v674z" />
    <glyph glyph-name="uni040B" unicode="&#x40b;" horiz-adv-x="705" 
d="M517 230q0 124 -102 124q-57 0 -106 -36v-318h-123v572h-179v102h532v-102h-230v-161h3q68 43 149 43t130 -52t49 -157v-245h-123v230z" />
    <glyph glyph-name="uni040C" unicode="&#x40c;" horiz-adv-x="577" 
d="M314 825h136l-125 -120h-99zM70 674h122v-289h19l207 289h148l-244 -304q68 -13 106 -54t64 -113q59 -169 76 -203h-132q-18 36 -35 89t-21 64q-23 69 -58 105t-102 36h-28v-294h-122v674z" />
    <glyph glyph-name="uni040E" unicode="&#x40e;" horiz-adv-x="558" 
d="M280 763q46 0 53 62h86q-9 -117 -139 -117t-139 117h87q3 -30 14 -46t38 -16zM133 -14q-41 0 -63 9l9 99q15 -4 43 -4q71 0 109 86q7 15 -2 36l-226 462h139l114 -263q18 -44 48 -124h3q12 39 39 126l87 261h130l-133 -339q-78 -197 -138 -273t-159 -76z" />
    <glyph glyph-name="uni040F" unicode="&#x40f;" horiz-adv-x="656" 
d="M71 674h123v-573h270v573h123v-674h-200l-7 -179h-102l-7 179h-200v674z" />
    <glyph glyph-name="uni0410" unicode="&#x410;" horiz-adv-x="636" 
d="M226 284h173l-53 166q-9 28 -34 126h-2q-2 -8 -14 -55t-18 -71zM419 191h-213l-58 -191h-127l216 674h157l219 -674h-133z" />
    <glyph glyph-name="uni0411" unicode="&#x411;" horiz-adv-x="578" 
d="M274 86q58 0 102 42q35 37 35 92q1 56 -43 88t-114 32q-21 0 -61 -4v-246q23 -4 81 -4zM71 674h416v-101h-294v-145q37 5 83 5q111 0 182 -51q82 -55 82 -156t-61 -157q-83 -76 -257 -76q-79 0 -151 9v672z" />
    <glyph glyph-name="uni0412" unicode="&#x412;" horiz-adv-x="576" 
d="M193 309v-220q15 -3 73 -3t100 27t42 84t-42 85t-112 27h-61zM193 398h63q63 0 98 26t35 71q0 93 -126 93q-48 0 -70 -5v-185zM262 679q118 0 181 -43q70 -42 70 -127q0 -49 -29 -87t-83 -58v-3q58 -15 97 -58t39 -117q-1 -74 -69 -134q-68 -59 -246 -59q-79 0 -151 9
v662q73 15 191 15z" />
    <glyph glyph-name="uni0413" unicode="&#x413;" horiz-adv-x="464" 
d="M71 674h385v-101h-262v-573h-123v674z" />
    <glyph glyph-name="uni0414" unicode="&#x414;" horiz-adv-x="662" 
d="M274 467q0 -217 -82 -366h257v472h-175v-106zM160 674h412v-576l64 -3l-7 -262h-94l-7 167h-409l-7 -167h-94l-6 262l54 3q46 84 70 166t24 234v176z" />
    <glyph glyph-name="uni0415" unicode="&#x415;" horiz-adv-x="515" 
d="M448 399v-100h-254v-198h284v-101h-407v674h392v-101h-269v-174h254z" />
    <glyph glyph-name="uni0416" unicode="&#x416;" horiz-adv-x="842" 
d="M361 385v289h119v-289h19l187 289h143l-234 -305q69 -8 107 -50t65 -118q3 -7 27 -85t41 -116h-125q-20 41 -51 153q-22 69 -55 105t-98 36h-26v-294h-119v294h-27q-106 0 -142 -111q-14 -41 -30 -96t-32 -87h-124q21 46 41 112q21 66 37 114t56 90q38 42 106 53
l-234 305h143l187 -289h19z" />
    <glyph glyph-name="uni0417" unicode="&#x417;" horiz-adv-x="520" 
d="M331 496q0 90 -119 90q-60 0 -136 -41l-30 88q84 53 190 53t164 -46q59 -46 59 -116q0 -68 -38 -112t-99 -57v-2q68 -9 114 -53t46 -103q1 -113 -79 -160q-81 -48 -188 -48q-106 0 -185 46l28 95q77 -41 150 -41q74 0 110 29q36 30 36 74q0 112 -161 111h-53v92h53
q59 0 99 29t39 72z" />
    <glyph glyph-name="uni0418" unicode="&#x418;" horiz-adv-x="675" 
d="M71 674h114v-238q0 -176 -8 -296l3 -1q50 109 122 233l178 302h125v-674h-114v238q0 171 10 280h-3q-42 -101 -119 -233l-171 -285h-137v674z" />
    <glyph glyph-name="uni0419" unicode="&#x419;" horiz-adv-x="675" 
d="M338 761q46 0 53 62h86q-9 -117 -139 -117t-139 117h87q3 -30 14 -46t38 -16zM71 674h114v-238q0 -176 -8 -296l3 -1q50 109 122 233l178 302h125v-674h-114v238q0 171 10 280h-3q-42 -101 -119 -233l-171 -285h-137v674z" />
    <glyph glyph-name="uni041A" unicode="&#x41a;" horiz-adv-x="577" 
d="M70 674h122v-289h19l207 289h148l-244 -304q68 -13 106 -54t64 -113q59 -169 76 -203h-132q-18 36 -35 89t-21 64q-23 69 -58 105t-102 36h-28v-294h-122v674z" />
    <glyph glyph-name="uni041B" unicode="&#x41b;" horiz-adv-x="622" 
d="M124 674h427v-674h-123v573h-184v-180q0 -142 -23 -235t-85 -130t-125 -37l-16 99q46 6 74 36q55 55 55 258v290z" />
    <glyph glyph-name="uni041C" unicode="&#x41c;" horiz-adv-x="827" 
d="M653 0l-13 275q-9 195 -8 283h-3q-35 -131 -80 -258l-99 -292h-94l-90 288q-41 135 -68 262h-2q-6 -178 -12 -287l-15 -271h-115l45 674h162l88 -271q35 -116 62 -234h3q31 125 67 235l93 270h160l39 -674h-120z" />
    <glyph glyph-name="uni041D" unicode="&#x41d;" horiz-adv-x="672" 
d="M71 674h123v-270h285v270h123v-674h-123v297h-285v-297h-123v674z" />
    <glyph glyph-name="uni041E" unicode="&#x41e;" horiz-adv-x="704" 
d="M353 587q-87 1 -137 -71t-50 -180t50 -178t138 -70q86 0 136 72t49 176q0 106 -49 178t-137 73zM358 686q143 0 227 -96t84 -254t-90 -252q-89 -94 -231 -95q-142 1 -227 97t-85 249t90 252t232 99z" />
    <glyph glyph-name="uni041F" unicode="&#x41f;" horiz-adv-x="660" 
d="M71 674h518v-674h-123v573h-272v-573h-123v674z" />
    <glyph glyph-name="uni0420" unicode="&#x420;" horiz-adv-x="559" 
d="M267 346q55 0 95 33t39 89q0 56 -36 86t-91 30t-81 -6v-226q19 -6 74 -6zM71 0v665q79 14 199 14q120 -1 187 -55q66 -54 66 -150t-57 -151q-74 -73 -213 -73q-39 0 -60 5v-255h-122z" />
    <glyph glyph-name="uni0421" unicode="&#x421;" horiz-adv-x="588" 
d="M379 -11q-159 1 -251 93t-93 251t101 255t260 97q105 0 163 -30l-26 -98q-59 26 -149 26t-154 -65q-65 -64 -65 -180t62 -181t156 -65t151 24l20 -97q-62 -30 -175 -30z" />
    <glyph glyph-name="uni0422" unicode="&#x422;" horiz-adv-x="525" 
d="M200 0v571h-192v103h509v-103h-194v-571h-123z" />
    <glyph glyph-name="uni0423" unicode="&#x423;" horiz-adv-x="558" 
d="M133 -14q-41 0 -63 9l9 99q15 -4 43 -4q71 0 109 86q7 15 -2 36l-226 462h139l114 -263q18 -44 48 -124h3q12 39 39 126l87 261h130l-133 -339q-78 -197 -138 -273t-159 -76z" />
    <glyph glyph-name="uni0424" unicode="&#x424;" horiz-adv-x="760" 
d="M600 340q0 107 -47 159t-115 58v-436q66 6 114 59t48 160zM160 315q0 -78 48 -132t114 -62v436q-61 -6 -97 -42q-35 -35 -50 -79t-15 -121zM323 702h116v-60q120 -7 203 -82t83 -221q-1 -212 -181 -281q-50 -19 -107 -23v-62h-116v62q-116 8 -201 78t-85 221
q-1 214 187 286q48 18 101 22v60z" />
    <glyph glyph-name="uni0425" unicode="&#x425;" horiz-adv-x="594" 
d="M574 0h-143l-72 134q-36 64 -68 127h-2q-19 -45 -61 -127l-67 -134h-141l200 341l-193 333h142l73 -139q30 -58 55 -113h3q25 58 53 113l72 139h141l-197 -329z" />
    <glyph glyph-name="uni0426" unicode="&#x426;" horiz-adv-x="675" 
d="M71 674h123v-573h269v573h123v-576l63 -3l-7 -262h-94l-7 167h-470v674z" />
    <glyph glyph-name="uni0427" unicode="&#x427;" horiz-adv-x="622" 
d="M65 674h123v-207q0 -128 126 -128q59 0 114 31v304h123v-681h-123v285h-3q-71 -38 -157 -38t-145 50q-58 50 -58 157v227z" />
    <glyph glyph-name="uni0428" unicode="&#x428;" horiz-adv-x="884" 
d="M71 674h121v-573h190v573h121v-573h190v573h121v-674h-743v674z" />
    <glyph glyph-name="uni0429" unicode="&#x429;" horiz-adv-x="903" 
d="M71 674h121v-573h189v573h121v-573h190v573h121v-576l64 -3l-7 -262h-94l-7 167h-698v674z" />
    <glyph glyph-name="uni042A" unicode="&#x42a;" horiz-adv-x="672" 
d="M373 86q51 0 92 34t41 96t-42 94q-42 31 -85 31q-44 0 -80 -4v-247q23 -4 74 -4zM5 674h294v-242q32 5 81 5q107 0 181 -56t74 -152t-53 -154q-81 -82 -255 -82q-78 0 -150 9v571h-172v101z" />
    <glyph glyph-name="uni042B" unicode="&#x42b;" horiz-adv-x="805" 
d="M602 674h123v-674h-123v674zM265 86q52 0 96 34t44 97q0 62 -45 93t-93 31t-74 -4v-247q20 -4 72 -4zM71 674h122v-243q30 6 78 6q111 0 187 -55q76 -54 76 -152q0 -236 -313 -237q-78 0 -150 9v672z" />
    <glyph glyph-name="uni042C" unicode="&#x42c;" horiz-adv-x="577" 
d="M270 86q53 0 97 33t44 97t-43 94t-89 31q-46 0 -86 -4v-247q24 -4 77 -4zM71 674h122v-243q31 6 83 6q114 -1 189 -55t75 -152q0 -237 -318 -237q-79 0 -151 9v672z" />
    <glyph glyph-name="uni042D" unicode="&#x42d;" horiz-adv-x="578" 
d="M110 295v97h300q-8 85 -62 139t-134 54t-150 -30l-26 92q88 38 175 38q162 -1 246 -99t84 -256t-96 -249q-96 -92 -244 -92q-105 0 -174 33l23 96q62 -28 148 -28t144 57t66 148h-300z" />
    <glyph glyph-name="uni042E" unicode="&#x42e;" horiz-adv-x="896" 
d="M570 87q78 0 122 71t45 177q0 105 -44 179t-124 74q-81 0 -125 -73t-44 -179t46 -178t124 -71zM70 674h123v-276h89q18 132 96 210t204 78t203 -96t77 -254t-83 -252t-210 -95q-127 0 -204 84t-86 222h-86v-295h-123v674z" />
    <glyph glyph-name="uni042F" unicode="&#x42f;" horiz-adv-x="574" 
d="M301 586q-51 0 -89 -26t-38 -81q0 -54 40 -83t97 -29q56 0 71 2v210q-30 7 -81 7zM51 496q1 78 67 131q66 52 185 52t201 -14v-665h-122v277h-49q-53 0 -76 -22q-23 -23 -37 -49q-17 -34 -38 -103t-39 -103h-132q17 26 27 56q34 106 44 132q39 106 114 130v3
q-63 11 -104 54t-41 121z" />
    <glyph glyph-name="uni0430" unicode="&#x430;" horiz-adv-x="508" 
d="M154 147q0 -70 72 -70q34 0 66 24t32 70v67q-170 2 -170 -91zM444 292v-175q0 -77 8 -117h-111l-9 54h-3q-50 -65 -132 -65q-81 0 -123 43t-42 102q0 90 76 138t213 46v8q0 33 -21 59q-20 26 -86 26t-123 -36l-24 80q70 43 177 43q108 0 154 -58t46 -148z" />
    <glyph glyph-name="uni0431" unicode="&#x431;" horiz-adv-x="555" 
d="M394 226q0 174 -124 174q-50 0 -80 -52q-25 -41 -25 -102q-1 -60 29 -114t88 -54t84 48q28 46 28 100zM307 487q97 1 155 -65t58 -180t-65 -184q-65 -69 -161 -69t-151 45q-105 84 -105 274t91 288q67 80 190 98t151 26l-6 -98q-32 -11 -128 -23q-96 -13 -143 -71
t-54 -141h4q23 46 67 73t97 27z" />
    <glyph glyph-name="uni0432" unicode="&#x432;" horiz-adv-x="528" 
d="M244 72q124 0 124 72t-131 72h-52v-142q20 -2 59 -2zM186 290h51q114 0 114 62t-106 62q-23 0 -59 -4v-120zM243 493q229 0 229 -123q0 -44 -28 -72t-72 -36v-2q122 -19 122 -119q0 -147 -273 -147l-156 6v481q72 12 178 12z" />
    <glyph glyph-name="uni0433" unicode="&#x433;" horiz-adv-x="402" 
d="M65 487h322v-97h-199v-390h-123v487z" />
    <glyph glyph-name="uni0434" unicode="&#x434;" horiz-adv-x="563" 
d="M233 329q0 -131 -57 -238h189v305h-132v-67zM125 487h360v-398l52 -2l-6 -243h-94l-4 156h-320l-6 -156h-94l-4 242l43 3q73 104 73 276v122z" />
    <glyph glyph-name="uni0435" unicode="&#x435;" horiz-adv-x="516" 
d="M268 414q-54 0 -82 -37t-33 -82h214q1 43 -23 81q-22 38 -76 38zM306 83q68 0 132 22l18 -84q-72 -31 -180 -31t-174 66q-67 66 -67 178q-1 110 63 187t175 77q156 0 199 -154q11 -40 11 -76t-4 -59h-326q2 -63 44 -95q41 -32 109 -31z" />
    <glyph glyph-name="uni0436" unicode="&#x436;" horiz-adv-x="706" 
d="M294 284v203h118v-203h16l133 203h138l-180 -215q88 -13 128 -127t57 -145h-124q-14 25 -45 114t-110 89h-13v-203h-118v203h-13q-43 1 -69 -21t-52 -92t-37 -90h-121q15 28 33 80q19 52 24 65q42 115 128 127l-180 215h137l134 -203h16z" />
    <glyph glyph-name="uni0437" unicode="&#x437;" horiz-adv-x="462" 
d="M276 352q0 58 -98 58q-52 0 -110 -34l-27 73q79 47 181 47t154 -53q30 -31 30 -75t-32 -72t-75 -38v-3q53 -5 91 -35t38 -83q0 -52 -38 -87q-64 -60 -177 -60q-114 0 -188 43l28 79q58 -32 121 -33t91 17t28 48q0 68 -122 68h-60v78h58q51 0 79 18t28 44z" />
    <glyph glyph-name="uni0438" unicode="&#x438;" horiz-adv-x="578" 
d="M65 0v487h117v-175q0 -78 -7 -197h4q63 138 66 144l119 228h149v-487h-117v174q0 59 8 206h-4q-52 -125 -188 -380h-147z" />
    <glyph glyph-name="uni0439" unicode="&#x439;" horiz-adv-x="578" 
d="M284 553q-127 0 -133 133h82q4 -73 55 -73q50 0 57 73h81q-4 -65 -41 -99t-101 -34zM65 0v487h117v-175q0 -78 -7 -197h4q63 138 66 144l119 228h149v-487h-117v174q0 59 8 206h-4q-52 -125 -188 -380h-147z" />
    <glyph glyph-name="uni043A" unicode="&#x43a;" horiz-adv-x="507" 
d="M66 487h123v-202h18l150 202h146l-194 -214q88 -13 141 -140q4 -10 20 -54t35 -79h-128q-14 22 -40 88t-56 91q-30 24 -76 24h-16v-203h-123v487z" />
    <glyph glyph-name="uni043B" unicode="&#x43b;" horiz-adv-x="528" 
d="M93 487h371v-487h-123v392h-133v-105q0 -103 -16 -164t-56 -92q-41 -40 -122 -40l-13 96q71 11 85 85q8 40 7 119v196z" />
    <glyph glyph-name="uni043C" unicode="&#x43c;" horiz-adv-x="683" 
d="M509 384h-3q-20 -71 -50 -159l-78 -219h-89l-71 214q-6 21 -44 162h-4q-2 -107 -6 -173l-10 -209h-111l35 487h155l69 -212q23 -72 38 -127h2q9 33 47 148l64 191h155l32 -487h-115l-9 212q-7 159 -7 172z" />
    <glyph glyph-name="uni043D" unicode="&#x43d;" horiz-adv-x="564" 
d="M65 487h123v-186h188v186h123v-487h-123v205h-188v-205h-123v487z" />
    <glyph glyph-name="uni043E" unicode="&#x43e;" horiz-adv-x="564" 
d="M282 409q-60 0 -90 -49t-30 -119q0 -71 33 -117t87 -46t87 46t33 116t-30 120t-90 49zM285 498q110 0 177 -70t67 -188t-74 -184t-178 -67q-104 0 -173 68q-69 69 -69 185t70 186t180 70z" />
    <glyph glyph-name="uni043F" unicode="&#x43f;" horiz-adv-x="560" 
d="M65 487h430v-487h-124v392h-183v-392h-123v487z" />
    <glyph glyph-name="uni0440" unicode="&#x440;" horiz-adv-x="585" 
d="M189 279v-75q1 -62 37 -91t84 -29t82 44q33 44 33 114t-32 114t-80 45q-48 0 -86 -31q-38 -32 -38 -91zM326 -11q-93 0 -135 65h-2v-252h-123v523q0 70 -4 162h108l6 -75h2q56 86 154 86t158 -68t60 -186t-66 -186t-158 -69z" />
    <glyph glyph-name="uni0441" unicode="&#x441;" horiz-adv-x="449" 
d="M271 -10q-99 0 -167 68t-69 181q0 113 73 186t198 73q68 0 119 -22l-22 -93q-38 19 -100 19q-63 0 -103 -45t-40 -115t43 -113q42 -42 100 -42t104 19l17 -91q-54 -25 -153 -25z" />
    <glyph glyph-name="uni0442" unicode="&#x442;" horiz-adv-x="438" 
d="M12 487h415v-95h-146v-392h-123v392h-146v95z" />
    <glyph glyph-name="uni0443" unicode="&#x443;" horiz-adv-x="500" 
d="M193 16q0 10 -6 24l-179 447h136l87 -261q16 -49 28 -94h3q19 73 26 95l76 260h131l-122 -332q-50 -135 -88 -205q-83 -153 -210 -170l-28 103q36 8 71 34q42 26 68 77q7 12 7 22z" />
    <glyph glyph-name="uni0444" unicode="&#x444;" horiz-adv-x="684" 
d="M528 243q0 67 -34 113t-95 57v-341q61 12 95 58t34 113zM156 242q0 -67 34 -113t97 -57v341q-63 -11 -97 -57t-34 -114zM650 241q0 -111 -72 -177t-179 -74l2 -188h-116l2 188q-110 8 -181 74t-71 178q1 112 71 177t180 75l-1 212h116l-2 -211q111 -9 181 -75t70 -179z
" />
    <glyph glyph-name="uni0445" unicode="&#x445;" horiz-adv-x="494" 
d="M11 487h137l58 -92q22 -36 44 -75h2q20 39 43 77l54 90h134l-163 -234l166 -253h-140l-59 97q-19 31 -44 79h-2q-10 -20 -25 -45q-14 -25 -19 -34l-56 -97h-136l169 248z" />
    <glyph glyph-name="uni0446" unicode="&#x446;" horiz-adv-x="572" 
d="M65 487h123v-392h183v392h124v-398l52 -2l-6 -243h-94l-4 156h-378v487z" />
    <glyph glyph-name="uni0447" unicode="&#x447;" horiz-adv-x="539" 
d="M60 487h123v-158q0 -91 85 -91q48 0 83 26v223h123v-494h-123v189h-2q-51 -33 -127 -33q-76 1 -118 43q-44 42 -44 125v170z" />
    <glyph glyph-name="uni0448" unicode="&#x448;" horiz-adv-x="779" 
d="M65 487h122v-392h142v392h122v-392h142v392h122v-487h-650v487z" />
    <glyph glyph-name="uni0449" unicode="&#x449;" horiz-adv-x="792" 
d="M65 487h122v-392h142v392h122v-392h141v392h123v-398l52 -2l-6 -243h-94l-4 156h-598v487z" />
    <glyph glyph-name="uni044A" unicode="&#x44a;" horiz-adv-x="618" 
d="M462 165q0 89 -130 89q-25 0 -53 -5v-166q23 -3 67 -3t80 20t36 65zM17 487h263v-153q38 5 81 5q87 0 155 -38q69 -38 69 -123q1 -84 -65 -134t-215 -49q-78 0 -148 8v389h-140v95z" />
    <glyph glyph-name="uni044B" unicode="&#x44b;" horiz-adv-x="727" 
d="M539 487h123v-487h-123v487zM250 80q40 0 74 22q35 22 35 66q0 46 -33 66q-32 20 -72 20t-67 -5v-166q23 -3 63 -3zM65 487h123v-154q38 6 86 6q48 1 96 -15t80 -55t32 -107t-66 -117q-66 -50 -203 -50q-78 0 -148 8v484z" />
    <glyph glyph-name="uni044C" unicode="&#x44c;" horiz-adv-x="529" 
d="M254 80q42 0 80 20t39 68q1 46 -39 66t-80 20t-67 -5v-166q25 -3 67 -3zM260 339q236 0 236 -169q0 -75 -66 -125t-217 -50q-78 0 -148 8v484h123v-154q30 6 72 6z" />
    <glyph glyph-name="uni044D" unicode="&#x44d;" horiz-adv-x="475" 
d="M88 206v80h227q-7 54 -44 87t-99 33t-116 -25l-24 80q68 37 168 37t170 -68t70 -184t-72 -186t-197 -71q-83 0 -146 33l20 85q56 -23 117 -23t102 32t49 90h-225z" />
    <glyph glyph-name="uni044E" unicode="&#x44e;" horiz-adv-x="741" 
d="M480 78q50 0 76 48t27 118q-1 68 -27 116t-76 49q-50 0 -78 -49t-28 -118q0 -68 28 -116t78 -48zM65 487h122v-192h72q15 93 75 148t154 55t156 -69t62 -185t-66 -186t-159 -69q-93 -1 -153 57t-71 158h-70v-204h-122v487z" />
    <glyph glyph-name="uni044F" unicode="&#x44f;" horiz-adv-x="528" 
d="M280 416q-109 0 -109 -73q0 -35 34 -54t77 -19t59 1v141q-34 4 -61 4zM463 0h-122v193h-46q-46 0 -75 -32q-24 -20 -43 -75t-36 -86h-131q20 28 37 71q16 42 29 72q30 70 95 84v3q-51 4 -89 36t-38 96t66 98t170 34t183 -11v-483z" />
    <glyph glyph-name="uni0451" unicode="&#x451;" horiz-adv-x="516" 
d="M375 563h-2q-25 0 -43 18q-18 17 -17 43q0 26 18 44t44 18t43 -18t17 -43q0 -26 -17 -44t-43 -18zM175 563q-25 0 -43 18q-18 17 -18 43t18 44t44 18t43 -18t17 -43q0 -26 -18 -44t-43 -18zM268 414q-54 0 -82 -37t-33 -82h214q1 43 -23 81q-22 38 -76 38zM306 83
q68 0 132 22l18 -84q-72 -31 -180 -31t-174 66q-67 66 -67 178q-1 110 63 187t175 77q156 0 199 -154q11 -40 11 -76t-4 -59h-326q2 -63 44 -95q41 -32 109 -31z" />
    <glyph glyph-name="uni0452" unicode="&#x452;" horiz-adv-x="573" 
d="M4 634h77v76h123v-76h218v-83h-218v-124h2q57 61 143 61t136 -84q50 -75 50 -204q0 -218 -114 -298q-58 -42 -120 -49l-23 98q52 12 81 43q52 60 52 176q0 220 -109 219q-48 0 -84 -45q-14 -17 -14 -47v-297h-123v551h-77v83z" />
    <glyph glyph-name="uni0453" unicode="&#x453;" horiz-adv-x="402" 
d="M244 698h121l-122 -148h-85zM65 487h322v-97h-199v-390h-123v487z" />
    <glyph glyph-name="uni0454" unicode="&#x454;" horiz-adv-x="467" 
d="M310 407q-60 1 -100 -33t-48 -88h222v-80h-220q8 -57 48 -90t97 -33t113 21l20 -85q-56 -30 -162 -30t-175 69q-70 68 -70 184t78 186t199 70q76 0 130 -29l-25 -86q-47 24 -107 24z" />
    <glyph glyph-name="uni0455" unicode="&#x455;" horiz-adv-x="417" 
d="M190 78q72 0 73 55q0 24 -17 39t-63 32q-134 45 -134 142q1 66 51 109t130 43t133 -29l-25 -86q-47 28 -91 28q-80 0 -80 -52q0 -22 18 -36q18 -15 76 -35q119 -42 121 -145q0 -69 -52 -111t-142 -42t-152 34l25 90q57 -36 129 -36z" />
    <glyph glyph-name="uni0456" unicode="&#x456;" horiz-adv-x="256" 
d="M128 690q30 0 50 -19q18 -19 18 -47t-18 -48q-20 -19 -50 -19t-50 19q-19 20 -19 48q-1 28 19 47t50 19zM189 0h-123v487h123v-487z" />
    <glyph glyph-name="uni0457" unicode="&#x457;" horiz-adv-x="256" 
d="M229 563h-2q-25 0 -43 18q-18 17 -17 43q0 26 18 44t44 18t43 -18t17 -43q0 -26 -17 -44t-43 -18zM28 563q-26 0 -44 18q-18 17 -17 43q0 26 18 44t44 18t43 -18t17 -43q1 -26 -17 -44t-44 -18zM189 0h-123v487h123v-487z" />
    <glyph glyph-name="uni0458" unicode="&#x458;" horiz-adv-x="270" 
d="M144 690q30 0 50 -19q18 -19 18 -47t-18 -48q-18 -19 -50 -19t-50 19q-18 20 -19 48t19 47t50 19zM82 87v400h123v-435q0 -144 -62 -204t-173 -61l-12 96q62 5 86 29t31 61q7 36 7 114z" />
    <glyph glyph-name="uni0459" unicode="&#x459;" horiz-adv-x="802" 
d="M528 80q42 0 80 20t38 66t-36 67q-36 20 -76 20t-71 -5v-165q23 -3 65 -3zM96 487h368v-155q35 5 86 5t100 -15q49 -14 84 -54t35 -106t-63 -116t-215 -51q-80 0 -150 8v389h-131v-105q0 -101 -16 -163t-59 -92q-40 -40 -121 -40l-13 96q33 5 55 24q40 34 40 179v196z
" />
    <glyph glyph-name="uni045A" unicode="&#x45a;" horiz-adv-x="814" 
d="M657 165q0 85 -121 85q-22 0 -58 -4v-163q22 -3 64 -3t78 20t37 65zM65 487h123v-172h168v172h123v-158q35 5 103 5t132 -41q66 -41 66 -120t-62 -129t-212 -49q-73 0 -150 7v221h-168v-223h-123v487z" />
    <glyph glyph-name="uni045B" unicode="&#x45b;" horiz-adv-x="586" 
d="M521 278v-278h-123v264q0 124 -93 124q-69 0 -95 -69q-6 -13 -6 -40v-279h-123v551h-77v83h77v76h123v-76h200v-83h-200v-139h2q54 76 139 76q86 0 131 -54t45 -156z" />
    <glyph glyph-name="uni045C" unicode="&#x45c;" horiz-adv-x="507" 
d="M280 698h121l-122 -148h-85zM66 487h123v-202h18l150 202h146l-194 -214q88 -13 141 -140q4 -10 20 -54t35 -79h-128q-14 22 -40 88t-56 91q-30 24 -76 24h-16v-203h-123v487z" />
    <glyph glyph-name="uni045E" unicode="&#x45e;" horiz-adv-x="500" 
d="M193 16q0 10 -6 24l-179 447h136l87 -261q16 -49 28 -94h3q19 73 26 95l76 260h131l-122 -332q-50 -135 -88 -205q-83 -153 -210 -170l-28 103q36 8 71 34q42 26 68 77q7 12 7 22zM245 553q-127 0 -133 133h82q4 -73 55 -73q50 0 57 73h81q-4 -65 -41 -99t-101 -34z" />
    <glyph glyph-name="uni045F" unicode="&#x45f;" horiz-adv-x="559" 
d="M65 487h123v-392h183v392h123v-487h-158l-8 -161h-98l-7 161h-158v487z" />
    <glyph glyph-name="uni0490" unicode="&#x490;" horiz-adv-x="471" 
d="M71 674h293l16 126h88l-11 -227h-263v-573h-123v674z" />
    <glyph glyph-name="uni0491" unicode="&#x491;" horiz-adv-x="414" 
d="M65 487h232l13 114h86l-7 -210h-201v-391h-123v487z" />
    <glyph glyph-name="uni04D9" unicode="&#x4d9;" horiz-adv-x="328" 
d="M250 74q54 0 80 36q27 36 32 81h-214q0 -43 24 -80t78 -37zM242 498q106 0 172 -68t66 -177q0 -111 -63 -187t-174 -76q-157 0 -200 154q-11 40 -11 78t5 55h325q-2 64 -42 96t-108 32t-135 -24l-18 83q77 34 183 34z" />
    <glyph glyph-name="Wgrave" unicode="&#x1e80;" horiz-adv-x="869" 
d="M273 830h136l88 -119h-99zM313 0h-133l-165 674h131l64 -306q26 -126 44 -235h2q8 55 49 236l73 305h129l67 -310q31 -155 41 -228h2q14 87 46 234l70 304h125l-182 -674h-131l-70 317q-26 119 -38 214h-2q-17 -108 -44 -214z" />
    <glyph glyph-name="wgrave" unicode="&#x1e81;" horiz-adv-x="749" 
d="M232 698h120l87 -148h-85zM14 487h126l50 -221q20 -85 32 -158h2q5 26 39 157l64 222h100l61 -216q24 -93 39 -163h2q7 54 32 163l54 216h121l-153 -487h-114l-58 198q-22 74 -37 156h-2q-14 -78 -37 -156l-62 -198h-115z" />
    <glyph glyph-name="Wacute" unicode="&#x1e82;" horiz-adv-x="869" 
d="M472 830h136l-125 -120h-99zM313 0h-133l-165 674h131l64 -306q26 -126 44 -235h2q8 55 49 236l73 305h129l67 -310q31 -155 41 -228h2q14 87 46 234l70 304h125l-182 -674h-131l-70 317q-26 119 -38 214h-2q-17 -108 -44 -214z" />
    <glyph glyph-name="wacute" unicode="&#x1e83;" horiz-adv-x="749" 
d="M403 698h121l-122 -148h-85zM14 487h126l50 -221q20 -85 32 -158h2q5 26 39 157l64 222h100l61 -216q24 -93 39 -163h2q7 54 32 163l54 216h121l-153 -487h-114l-58 198q-22 74 -37 156h-2q-14 -78 -37 -156l-62 -198h-115z" />
    <glyph glyph-name="Wdieresis" unicode="&#x1e84;" horiz-adv-x="869" 
d="M540 716q-26 0 -42 18t-17 42q0 26 17 44q16 18 42 17q26 1 42 -17t17 -44q0 -26 -17 -42q-16 -18 -42 -18zM342 716q-26 0 -42 18q-17 18 -17 43q-1 25 17 43t43 17q25 1 41 -17t17 -44q-1 -26 -17 -42q-16 -18 -42 -18zM313 0h-133l-165 674h131l64 -306
q26 -126 44 -235h2q8 55 49 236l73 305h129l67 -310q31 -155 41 -228h2q14 87 46 234l70 304h125l-182 -674h-131l-70 317q-26 119 -38 214h-2q-17 -108 -44 -214z" />
    <glyph glyph-name="wdieresis" unicode="&#x1e85;" horiz-adv-x="749" 
d="M475 563h-2q-25 0 -43 18q-18 17 -17 43q0 26 18 44t44 18t43 -18t17 -43q0 -26 -17 -44t-43 -18zM274 563q-26 0 -44 18q-18 17 -17 43q0 26 18 44t44 18t43 -18t17 -43q1 -26 -17 -44t-44 -18zM14 487h126l50 -221q20 -85 32 -158h2q5 26 39 157l64 222h100l61 -216
q24 -93 39 -163h2q7 54 32 163l54 216h121l-153 -487h-114l-58 198q-22 74 -37 156h-2q-14 -78 -37 -156l-62 -198h-115z" />
    <glyph glyph-name="uni1EA0" unicode="&#x1ea0;" horiz-adv-x="636" 
d="M313 -80q26 0 43 -18t17 -44t-17 -44t-43 -18t-44 18t-18 44t18 44t44 18zM226 284h173l-53 166q-8 27 -34 127h-2q-28 -113 -32 -127zM419 191h-213l-58 -191h-127l216 674h157l219 -674h-133z" />
    <glyph glyph-name="uni1EA1" unicode="&#x1ea1;" horiz-adv-x="508" 
d="M254 -80q26 0 43 -18t17 -44t-17 -44t-43 -18t-44 18t-18 44t18 44t44 18zM154 147q0 -70 72 -70q34 0 66 24t32 70v67q-170 2 -170 -91zM444 292v-175q0 -77 8 -117h-111l-9 54h-3q-50 -65 -132 -65q-81 0 -123 43t-42 102q0 90 76 138t213 46v8q0 33 -21 59
q-20 26 -86 26t-123 -36l-24 80q70 43 177 43q108 0 154 -58t46 -148z" />
    <glyph glyph-name="uni1EA2" unicode="&#x1ea2;" horiz-adv-x="636" 
d="M339 806q0 31 -31 31q-25 0 -47 -35l-42 26q39 73 112 73q39 1 65 -23t26 -52t-12 -46t-32 -36q-20 -19 -30 -37l-59 15q7 20 29 44t21 40zM226 284h173l-53 166q-9 28 -34 126h-2q-2 -8 -14 -55t-18 -71zM419 191h-213l-58 -191h-127l216 674h157l219 -674h-133z" />
    <glyph glyph-name="uni1EA3" unicode="&#x1ea3;" horiz-adv-x="508" 
d="M269 639q0 33 -32 33q-24 0 -45 -34l-43 25q35 74 111 74q39 0 66 -23q27 -22 27 -58t-36 -75t-42 -53l-62 15q6 21 31 49t25 47zM154 147q0 -70 72 -70q34 0 66 24t32 70v67q-170 2 -170 -91zM444 292v-175q0 -77 8 -117h-111l-9 54h-3q-50 -65 -132 -65q-81 0 -123 43
t-42 102q0 90 76 138t213 46v8q0 33 -21 59q-20 26 -86 26t-123 -36l-24 80q70 43 177 43q108 0 154 -58t46 -148z" />
    <glyph glyph-name="uni1EA4" unicode="&#x1ea4;" horiz-adv-x="636" 
d="M486 908h112l-128 -110h-63zM277 829h87l92 -119h-85l-49 66h-2l-50 -66h-83zM226 284h173l-53 166q-9 28 -34 126h-2q-1 -2 -13 -52t-19 -74zM420 191h-214l-58 -191h-127l217 674h156l219 -674h-132z" />
    <glyph glyph-name="uni1EA5" unicode="&#x1ea5;" horiz-adv-x="508" 
d="M419 787h101l-109 -141h-65zM204 698h87l88 -148h-83l-47 90h-3l-47 -90h-82zM154 147q0 -70 72 -70q34 0 66 24t32 70v67q-170 2 -170 -91zM444 292v-175q0 -77 8 -117h-111l-9 54h-3q-50 -65 -132 -65q-81 0 -123 43t-42 102q0 90 76 138t213 46v8q0 33 -21 59
q-20 26 -86 26t-123 -36l-24 80q70 43 177 43q108 0 154 -58t46 -148z" />
    <glyph glyph-name="uni1EA6" unicode="&#x1ea6;" horiz-adv-x="636" 
d="M271 829h87l92 -119h-85l-49 66h-2l-49 -66h-84zM346 892h113l69 -109h-68zM226 284h173l-53 166q-9 28 -34 126h-2q-1 -2 -13 -52t-19 -74zM420 191h-214l-58 -191h-127l217 674h156l219 -674h-132z" />
    <glyph glyph-name="uni1EA7" unicode="&#x1ea7;" horiz-adv-x="508" 
d="M204 698h88l88 -148h-84l-47 90h-2l-47 -90h-83zM288 788h99l66 -142h-64zM154 147q0 -70 72 -70q34 0 66 24t32 70v67q-170 2 -170 -91zM444 292v-175q0 -75 7 -117h-111l-8 54h-3q-50 -65 -132 -65q-81 0 -123 43t-42 102q0 90 76 138t213 46v8q0 33 -21 59
q-20 26 -86 26t-123 -36l-24 80q70 43 177 43q108 0 154 -58t46 -148z" />
    <glyph glyph-name="uni1EA8" unicode="&#x1ea8;" horiz-adv-x="636" 
d="M485 850q0 32 -38 33q-20 0 -41 -36l-39 24q35 69 105 69q36 0 60 -22t25 -52q0 -30 -31 -62t-40 -48l-51 13q7 19 29 43t21 38zM273 829h87l92 -119h-85l-50 66h-2l-49 -66h-84zM226 284h174l-53 166q-12 38 -34 127h-3q-18 -81 -32 -127zM420 191h-214l-57 -191h-128
l217 674h156l219 -674h-132z" />
    <glyph glyph-name="uni1EA9" unicode="&#x1ea9;" horiz-adv-x="508" 
d="M407 726q0 32 -30 32q-22 0 -45 -34l-39 24q35 69 105 69q36 -1 61 -23t25 -48t-12 -44q-12 -16 -30 -34q-19 -18 -28 -34l-55 13q7 19 27 41q20 24 21 38zM203 698h87l88 -148h-83l-47 90h-3l-47 -90h-82zM154 147q0 -70 72 -70q34 0 66 24t32 70v67q-170 2 -170 -91z
M444 292v-175q0 -75 7 -117h-111l-8 54h-3q-50 -65 -132 -65q-81 0 -123 43t-42 102q0 90 76 138t213 46v8q0 33 -21 59q-20 26 -86 26t-123 -36l-24 80q70 43 177 43q108 0 154 -58t46 -148z" />
    <glyph glyph-name="uni1EAA" unicode="&#x1eaa;" horiz-adv-x="636" 
d="M369 912q24 0 26 40h60q3 -107 -76 -107q-23 1 -59 19t-47 18q-22 0 -25 -38h-61q-1 48 19 76t50 29q30 -1 64 -19t49 -18zM270 829h93l103 -119h-92l-56 65h-2l-56 -65h-91zM226 284h173l-53 166q-9 28 -34 126h-2q-2 -8 -14 -55t-18 -71zM419 191h-213l-58 -191h-127
l216 674h157l219 -674h-133z" />
    <glyph glyph-name="uni1EAB" unicode="&#x1eab;" horiz-adv-x="508" 
d="M305 756q24 0 26 40h60q3 -106 -76 -106q-22 0 -58 18t-48 19q-22 0 -25 -38h-61q-1 48 19 76t52 28q30 -1 64 -19t47 -18zM210 674h87l93 -125h-85l-50 72h-2l-51 -72h-85zM154 147q0 -70 72 -70q34 0 66 24t32 70v67q-170 2 -170 -91zM444 292v-175q0 -77 8 -117h-111
l-9 54h-3q-50 -65 -132 -65q-81 0 -123 43t-42 102q0 90 76 138t213 46v8q0 33 -21 59q-20 26 -86 26t-123 -36l-24 80q70 43 177 43q108 0 154 -58t46 -148z" />
    <glyph glyph-name="uni1EAC" unicode="&#x1eac;" horiz-adv-x="636" 
d="M310 -201q-26 0 -42 18q-18 19 -18 43t18 42t43 18t42 -18t17 -43t-17 -43t-43 -17zM271 829h93l103 -119h-92l-56 65h-2l-56 -65h-91zM226 284h173l-53 166q-9 28 -34 126h-2q-2 -8 -14 -55t-18 -71zM419 191h-213l-58 -191h-127l216 674h157l219 -674h-133z" />
    <glyph glyph-name="uni1EAD" unicode="&#x1ead;" horiz-adv-x="508" 
d="M254 -80q26 0 43 -18t17 -44t-17 -44t-43 -18t-44 18t-18 44t18 44t44 18zM212 698h83l98 -148h-85l-54 90h-2l-53 -90h-84zM154 147q0 -70 72 -70q34 0 66 24t32 70v67q-170 2 -170 -91zM444 292v-175q0 -77 8 -117h-111l-9 54h-3q-50 -65 -132 -65q-81 0 -123 43
t-42 102q0 90 76 138t213 46v8q0 33 -21 59q-20 26 -86 26t-123 -36l-24 80q70 43 177 43q108 0 154 -58t46 -148z" />
    <glyph glyph-name="uni1EAE" unicode="&#x1eae;" horiz-adv-x="636" 
d="M346 912h116l-119 -110h-69zM320 765q63 0 76 47h57q-5 -48 -41 -80t-95 -33t-93 31t-40 82h59q14 -47 77 -47zM226 284h174l-53 166q-9 24 -21 72t-14 54h-2q-1 -2 -13 -52t-19 -74zM420 191h-214l-58 -191h-127l216 674h157l219 -674h-132z" />
    <glyph glyph-name="uni1EAF" unicode="&#x1eaf;" horiz-adv-x="508" 
d="M248 600q34 0 55 19t23 46h62q-2 -61 -40 -97t-104 -36q-64 0 -101 38t-38 95h62q5 -29 26 -47t55 -18zM286 793h102l-117 -140h-68zM154 147q0 -70 72 -70q34 0 66 24t32 70v67q-170 2 -170 -91zM444 292v-175q0 -77 8 -117h-111l-9 54h-3q-50 -65 -132 -65
q-81 0 -123 43t-42 102q0 90 76 138t213 46v8q0 33 -21 59q-20 26 -86 26t-123 -36l-24 80q70 43 177 43q108 0 154 -58t46 -148z" />
    <glyph glyph-name="uni1EB0" unicode="&#x1eb0;" horiz-adv-x="636" 
d="M322 765q62 0 76 47h58q-6 -48 -41 -80t-95 -33t-94 31t-39 82h59q14 -47 76 -47zM182 912h116l71 -110h-69zM226 284h173l-53 166q-9 28 -34 126h-2q-1 -2 -13 -52t-19 -74zM420 191h-215l-57 -191h-127l216 674h157l219 -674h-132z" />
    <glyph glyph-name="uni1EB1" unicode="&#x1eb1;" horiz-adv-x="508" 
d="M253 600q34 0 55 19t23 46h62q-3 -61 -41 -97t-102 -36t-102 38q-37 38 -38 95h62q5 -29 26 -47t55 -18zM112 793h102l83 -140h-68zM154 147q0 -70 71 -70q35 0 67 24t32 70v67q-170 2 -170 -91zM444 292v-175q0 -75 7 -117h-111l-8 54h-3q-51 -65 -133 -65t-122 43
q-42 43 -42 102q0 90 76 138t213 46v8q0 33 -21 59t-86 26t-123 -36l-24 80q72 43 178 43q107 0 153 -58t46 -148z" />
    <glyph glyph-name="uni1EB2" unicode="&#x1eb2;" horiz-adv-x="636" 
d="M322 765q62 0 77 48h58q-5 -48 -41 -81t-96 -33q-60 -1 -94 31t-39 83h60q13 -48 75 -48zM335 882q0 32 -30 32q-23 0 -46 -34l-38 23q36 70 105 70q36 -1 60 -23t25 -52q0 -30 -32 -64q-32 -32 -39 -45l-54 13q7 20 28 43t21 37zM226 284h173l-53 166q-9 28 -34 126h-2
q-2 -8 -14 -55t-18 -71zM420 191h-214l-58 -191h-127l216 674h157l219 -674h-132z" />
    <glyph glyph-name="uni1EB3" unicode="&#x1eb3;" horiz-adv-x="508" 
d="M250 600q34 0 56 19t23 46h62q-2 -61 -41 -97t-103 -36t-101 38t-38 95h62q5 -29 26 -47q20 -18 54 -18zM261 734q0 32 -30 33q-22 0 -45 -34l-39 24q35 69 105 69q36 0 61 -22t25 -50q0 -26 -12 -42t-30 -34q-19 -18 -28 -35l-55 13q7 20 27 42t21 36zM154 147
q0 -70 72 -70q34 0 66 24t32 70v67q-170 2 -170 -91zM444 292v-175q0 -75 7 -117h-111l-8 54h-3q-51 -65 -133 -65t-122 43q-42 43 -42 102q0 90 76 138t213 46v8q0 33 -21 59q-20 26 -86 26t-123 -36l-25 80q72 43 178 43t154 -58q46 -58 46 -148z" />
    <glyph glyph-name="uni1EB4" unicode="&#x1eb4;" horiz-adv-x="636" 
d="M316 765q62 0 76 47h57q-6 -48 -41 -80t-95 -33t-93 31t-39 82h59q14 -47 76 -47zM365 904q24 0 27 40h59q3 -106 -75 -106q-25 0 -59 18t-47 18q-20 0 -24 -30h-62q0 44 20 70t50 27q30 -1 65 -19t46 -18zM226 284h173l-53 166q-9 28 -34 126h-2q-1 -2 -13 -52t-19 -74z
M420 191h-214l-57 -191h-128l216 674h157l219 -674h-132z" />
    <glyph glyph-name="uni1EB5" unicode="&#x1eb5;" horiz-adv-x="508" 
d="M254 598q32 0 52 20t22 47h62q-2 -61 -39 -97t-101 -36t-98 38q-36 38 -37 95h61q5 -29 25 -48q21 -19 53 -19zM301 765q24 0 27 40h59q3 -106 -75 -106q-26 0 -60 18t-46 18q-20 0 -24 -30h-62q0 45 20 71t50 26t64 -18q35 -18 47 -19zM154 147q0 -70 72 -70q34 0 66 24
t32 70v67q-170 2 -170 -91zM444 292v-175q0 -77 8 -117h-111l-9 54h-3q-50 -65 -132 -65q-81 0 -123 43t-42 102q0 90 76 138t213 46v8q0 33 -21 59q-20 26 -86 26t-123 -36l-24 80q70 43 177 43q108 0 154 -58t46 -148z" />
    <glyph glyph-name="uni1EB6" unicode="&#x1eb6;" horiz-adv-x="636" 
d="M312 -201q-26 0 -42 18q-18 19 -18 43t18 42t43 18t42 -18t17 -43t-17 -43t-43 -17zM316 793q57 0 66 47h66q-2 -53 -35 -85t-99 -32q-128 0 -132 117h68q9 -47 66 -47zM226 284h173l-53 166q-9 28 -34 126h-2q-2 -8 -14 -55t-18 -71zM419 191h-213l-58 -191h-127
l216 674h157l219 -674h-133z" />
    <glyph glyph-name="uni1EB7" unicode="&#x1eb7;" horiz-adv-x="508" 
d="M254 -80q26 0 43 -18t17 -44t-17 -44t-43 -18t-44 18t-18 44t18 44t44 18zM252 553q-63 0 -96 38t-34 97h67q9 -65 64 -65q31 0 47 19t19 46h67q-1 -61 -36 -98t-98 -37zM154 147q0 -70 72 -70q34 0 66 24t32 70v67q-170 2 -170 -91zM444 292v-175q0 -77 8 -117h-111
l-9 54h-3q-50 -65 -132 -65q-81 0 -123 43t-42 102q0 90 76 138t213 46v8q0 33 -21 59q-20 26 -86 26t-123 -36l-24 80q70 43 177 43q108 0 154 -58t46 -148z" />
    <glyph glyph-name="uni1EB8" unicode="&#x1eb8;" horiz-adv-x="515" 
d="M258 -201q-26 0 -44 18q-18 19 -17 43q0 24 18 42t43 18t42 -18t17 -43t-17 -43q-16 -18 -42 -17zM448 399v-100h-254v-198h284v-101h-407v674h392v-101h-269v-174h254z" />
    <glyph glyph-name="uni1EB9" unicode="&#x1eb9;" horiz-adv-x="516" 
d="M258 -80q26 0 43 -18t17 -43q0 -27 -18 -45t-42 -18q-26 0 -44 18t-18 44t18 44t44 18zM268 414q-54 0 -82 -37t-33 -82h214q1 43 -23 81q-22 38 -76 38zM306 83q68 0 132 22l18 -84q-72 -31 -180 -31t-174 66q-67 66 -67 178q-1 110 63 187t184 77t172 -108
q28 -58 29 -108q0 -51 -4 -73h-326q2 -63 44 -95q41 -32 109 -31z" />
    <glyph glyph-name="uni1EBA" unicode="&#x1eba;" horiz-adv-x="515" 
d="M297 806q0 31 -31 31q-25 0 -47 -35l-42 26q37 73 112 73q37 1 64 -23t27 -52t-12 -46q-12 -17 -32 -36t-30 -37l-60 14q8 21 30 45t21 40zM448 399v-100h-254v-198h284v-101h-407v674h392v-101h-269v-174h254z" />
    <glyph glyph-name="uni1EBB" unicode="&#x1ebb;" horiz-adv-x="516" 
d="M272 637q0 35 -31 35q-25 0 -46 -34l-42 26q36 73 110 73q39 0 66 -23t27 -54t-14 -52q-14 -22 -35 -42t-29 -38l-61 15q7 21 31 49t24 45zM268 414q-54 0 -82 -37t-33 -82h214q1 43 -23 81q-22 38 -76 38zM306 83q68 0 132 22l18 -84q-72 -31 -180 -31t-174 66
q-67 66 -67 178q-1 110 63 187t175 77q156 0 199 -154q11 -40 11 -76t-4 -59h-326q2 -63 44 -95q41 -32 109 -31z" />
    <glyph glyph-name="uni1EBC" unicode="&#x1ebc;" horiz-adv-x="515" 
d="M324 792q24 0 27 41h59q3 -112 -74 -112q-28 0 -64 19t-44 19q-22 0 -25 -44h-60q-1 55 19 85t50 31t64 -19t48 -20zM448 399v-100h-254v-198h284v-101h-407v674h392v-101h-269v-174h254z" />
    <glyph glyph-name="uni1EBD" unicode="&#x1ebd;" horiz-adv-x="516" 
d="M193 681q30 1 66 -19t47 -20q23 0 26 43h60q3 -116 -76 -116q-26 0 -60 19t-46 19q-22 0 -25 -45h-61q-2 56 18 88t51 31zM268 414q-54 0 -82 -37t-33 -82h214q1 43 -23 81q-22 38 -76 38zM306 83q68 0 132 22l18 -84q-72 -31 -180 -31t-174 66q-67 66 -67 178
q-1 110 63 187t175 77q156 0 199 -154q11 -40 11 -76t-4 -59h-326q2 -63 44 -95q41 -32 109 -31z" />
    <glyph glyph-name="uni1EBE" unicode="&#x1ebe;" horiz-adv-x="515" 
d="M436 908h112l-128 -110h-63zM227 829h87l92 -119h-85l-50 66h-2l-49 -66h-84zM448 399v-100h-254v-198h284v-101h-407v674h392v-101h-269v-174h254z" />
    <glyph glyph-name="uni1EBF" unicode="&#x1ebf;" horiz-adv-x="516" 
d="M446 787h101l-109 -141h-65zM231 698h87l88 -148h-83l-47 90h-2l-48 -90h-82zM268 414q-54 0 -82 -37t-33 -82h214q1 43 -23 81q-22 38 -76 38zM306 83q68 0 132 22l18 -84q-72 -31 -180 -31t-174 66q-67 66 -67 178q-1 110 63 187t175 77q156 0 199 -154q11 -40 11 -76
t-4 -59h-326q2 -63 44 -95q41 -32 109 -31z" />
    <glyph glyph-name="uni1EC0" unicode="&#x1ec0;" horiz-adv-x="515" 
d="M225 829h86l92 -119h-85l-49 66h-2l-49 -66h-84zM299 892h113l69 -109h-68zM194 299v-198h284v-101h-407v674h392v-101h-269v-174h253l1 -100h-254z" />
    <glyph glyph-name="uni1EC1" unicode="&#x1ec1;" horiz-adv-x="516" 
d="M228 698h87l88 -148h-84l-47 90h-2l-47 -90h-83zM312 788h98l67 -142h-65zM268 414q-54 0 -82 -37t-33 -82h214q1 43 -23 81q-22 38 -76 38zM306 83q68 0 132 22l18 -84q-72 -31 -180 -31t-174 66q-67 66 -67 178q-1 110 63 187t175 77q156 0 199 -154q11 -40 11 -76
t-4 -59h-326q2 -63 44 -95q41 -32 109 -31z" />
    <glyph glyph-name="uni1EC2" unicode="&#x1ec2;" horiz-adv-x="515" 
d="M438 850q0 32 -38 33q-20 0 -41 -36l-39 23q36 70 105 70q37 0 61 -22t24 -48q0 -27 -12 -43q-12 -17 -30 -35q-19 -18 -29 -36l-51 13q6 19 28 43t22 38zM226 829h87l92 -119h-86l-49 66h-2l-49 -66h-84zM448 399v-100h-254v-198h284v-101h-407v674h392v-101h-269v-174
h254z" />
    <glyph glyph-name="uni1EC3" unicode="&#x1ec3;" horiz-adv-x="516" 
d="M427 726q0 32 -30 32q-22 0 -45 -34l-39 24q35 69 105 69q36 -1 61 -23t25 -52t-32 -63q-32 -32 -38 -45l-55 13q7 19 27 41q20 24 21 38zM223 698h87l88 -148h-83l-47 90h-3l-47 -90h-82zM268 414q-54 0 -82 -37t-33 -82h214q1 43 -23 81q-22 38 -76 38zM306 83
q68 0 132 22l18 -84q-72 -31 -180 -31t-174 66q-67 66 -67 178q-1 110 63 187t175 77q156 0 199 -154q11 -40 11 -78t-5 -57h-325q2 -63 44 -95q41 -32 109 -31z" />
    <glyph glyph-name="uni1EC4" unicode="&#x1ec4;" horiz-adv-x="515" 
d="M332 912q24 0 26 40h60q3 -107 -76 -107q-23 1 -59 19t-47 18q-22 0 -25 -38h-61q0 48 20 76t50 29q30 -1 63 -19q34 -18 49 -18zM233 829h93l103 -119h-92l-56 65h-2l-56 -65h-91zM448 399v-100h-254v-198h284v-101h-407v674h392v-101h-269v-174h254z" />
    <glyph glyph-name="uni1EC5" unicode="&#x1ec5;" horiz-adv-x="516" 
d="M320 756q24 0 26 40h60q3 -106 -76 -106q-22 0 -58 18t-48 19q-22 0 -25 -38h-61q0 48 20 76t50 28q30 -1 65 -19q34 -18 47 -18zM224 674h88l93 -125h-85l-51 72h-2l-50 -72h-85zM268 414q-54 0 -82 -37t-33 -82h214q1 43 -23 81q-22 38 -76 38zM306 83q68 0 132 22
l18 -84q-72 -31 -180 -31t-174 66q-67 66 -67 178q-1 110 63 187t175 77q156 0 199 -154q11 -40 11 -76t-4 -59h-326q2 -63 44 -95q41 -32 109 -31z" />
    <glyph glyph-name="uni1EC6" unicode="&#x1ec6;" horiz-adv-x="515" 
d="M270 -201q-26 0 -44 18q-18 19 -17 43q0 24 18 42t43 18t42 -18t17 -43t-17 -43q-16 -18 -42 -17zM223 829h93l103 -119h-92l-56 65h-2l-56 -65h-91zM448 399v-100h-254v-198h284v-101h-407v674h392v-101h-269v-174h254z" />
    <glyph glyph-name="uni1EC7" unicode="&#x1ec7;" horiz-adv-x="516" 
d="M258 -80q26 0 43 -18t17 -44t-17 -44t-43 -18t-44 18t-18 44t18 44t44 18zM216 698h83l98 -148h-85l-53 90h-2l-54 -90h-84zM268 414q-54 0 -82 -37t-33 -82h214q1 43 -23 81q-22 38 -76 38zM306 83q68 0 132 22l18 -84q-72 -31 -180 -31t-174 66q-67 66 -67 178
q-1 110 63 187t184 77t172 -108q28 -58 29 -108q0 -51 -4 -73h-326q2 -63 44 -95q41 -32 109 -31z" />
    <glyph glyph-name="uni1EC8" unicode="&#x1ec8;" horiz-adv-x="264" 
d="M154 806q0 31 -31 31q-25 0 -47 -35l-42 26q37 73 112 73q38 1 64 -23t26 -52t-12 -46q-12 -17 -32 -36t-29 -37l-60 15q7 20 29 44t22 40zM71 674h123v-674h-123v674z" />
    <glyph glyph-name="uni1EC9" unicode="&#x1ec9;" horiz-adv-x="256" 
d="M142 637q0 35 -31 35q-23 0 -46 -34l-42 26q36 73 110 73q39 0 66 -23t27 -54t-14 -52q-14 -22 -35 -42t-29 -38l-61 15q7 21 31 49t24 45zM189 0h-123v487h123v-487z" />
    <glyph glyph-name="uni1ECA" unicode="&#x1eca;" horiz-adv-x="264" 
d="M132 -201q-26 0 -42 18q-18 19 -18 43t18 42t43 18t42 -18t17 -43t-17 -43t-43 -17zM71 674h123v-674h-123v674z" />
    <glyph glyph-name="uni1ECB" unicode="&#x1ecb;" horiz-adv-x="256" 
d="M128 -80q26 0 43 -18t17 -44t-17 -44t-43 -18t-44 18t-18 44t18 44t44 18zM128 690q30 0 50 -19q18 -19 18 -47t-18 -48q-20 -19 -50 -19t-50 19q-19 20 -19 48q-1 28 19 47t50 19zM189 0h-123v487h123v-487z" />
    <glyph glyph-name="uni1ECC" unicode="&#x1ecc;" horiz-adv-x="704" 
d="M352 -201q-26 0 -42 18q-18 19 -18 43t18 42t43 18t42 -18t17 -43t-17 -43t-43 -17zM353 587q-87 1 -137 -71t-50 -180t50 -178t138 -70q86 0 136 72t49 176q0 106 -49 178t-137 73zM358 686q143 0 227 -96t84 -254t-90 -252q-89 -94 -231 -95q-142 1 -227 97t-85 249
t90 252t232 99z" />
    <glyph glyph-name="uni1ECD" unicode="&#x1ecd;" horiz-adv-x="564" 
d="M282 -79q26 0 43 -18t17 -44t-17 -44t-43 -18t-44 18t-18 44t18 44t44 18zM282 408q-60 0 -90 -48t-30 -119t33 -117t87 -46t87 46t33 116q0 68 -30 118t-90 50zM285 497q110 0 177 -69q67 -70 67 -188t-74 -184t-178 -67q-104 0 -173 68t-69 184t70 186t180 70z" />
    <glyph glyph-name="uni1ECE" unicode="&#x1ece;" horiz-adv-x="704" 
d="M374 807q0 31 -32 31q-23 0 -47 -35l-41 26q37 73 111 73q39 0 65 -24t26 -51t-12 -45t-32 -37t-29 -37l-60 15q7 21 29 45t22 39zM353 587q-87 1 -137 -71t-50 -180t50 -178t138 -70q86 0 136 72t49 176q0 106 -49 178t-137 73zM358 686q143 0 227 -96t84 -254t-90 -252
q-89 -94 -231 -95q-142 1 -227 97t-85 249t90 252t232 99z" />
    <glyph glyph-name="uni1ECF" unicode="&#x1ecf;" horiz-adv-x="564" 
d="M297 639q0 33 -32 33q-24 0 -45 -34l-43 26q36 73 111 73q40 0 66 -23t26 -54t-14 -52q-14 -22 -34 -42t-29 -38l-62 15q6 21 31 49t25 47zM282 409q-60 0 -90 -49t-30 -119q0 -71 33 -117t87 -46t87 46t33 116t-30 120t-90 49zM285 498q110 0 177 -70t67 -188t-74 -184
t-178 -67q-104 0 -173 68q-69 69 -69 185t70 186t180 70z" />
    <glyph glyph-name="uni1ED0" unicode="&#x1ed0;" horiz-adv-x="704" 
d="M526 909h112l-128 -110h-64zM317 830h87l92 -119h-86l-49 66h-2l-49 -66h-84zM166 336q0 -108 50 -178t138 -70q86 0 136 71t49 177q0 106 -49 178t-137 72q-87 0 -137 -70q-50 -72 -50 -180zM669 336q0 -158 -90 -252q-89 -94 -231 -95q-142 1 -227 97t-85 248t89 252
t232 100t227 -96t85 -254z" />
    <glyph glyph-name="uni1ED1" unicode="&#x1ed1;" horiz-adv-x="564" 
d="M458 787h101l-109 -141h-65zM243 698h87l88 -148h-83l-48 90h-2l-47 -90h-82zM282 409q-60 0 -90 -49t-30 -119q0 -71 33 -117t87 -46t87 46t33 116t-30 120t-90 49zM285 498q110 0 177 -70t67 -188t-74 -184t-178 -67q-104 0 -173 68q-69 69 -69 185t70 186t180 70z" />
    <glyph glyph-name="uni1ED2" unicode="&#x1ed2;" horiz-adv-x="704" 
d="M313 830h87l92 -119h-86l-49 66h-2l-49 -66h-84zM388 893h113l68 -109h-68zM166 336q0 -108 50 -178t138 -70q86 0 136 71t49 177q0 106 -49 178t-137 72q-87 0 -137 -70q-50 -72 -50 -180zM669 336q0 -158 -90 -252q-89 -94 -231 -95q-142 1 -227 97t-85 248t89 252
t232 100t227 -96t85 -254z" />
    <glyph glyph-name="uni1ED3" unicode="&#x1ed3;" horiz-adv-x="564" 
d="M244 698h87l88 -148h-84l-47 90h-2l-47 -90h-82zM328 788h98l67 -142h-65zM282 409q-60 0 -90 -49t-30 -119q0 -71 33 -117t87 -46t87 46t33 116t-30 120t-90 49zM285 498q110 0 177 -70t67 -188t-74 -184t-178 -67q-104 0 -173 68q-69 69 -69 185t70 186t180 70z" />
    <glyph glyph-name="uni1ED4" unicode="&#x1ed4;" horiz-adv-x="704" 
d="M530 850q0 32 -38 33q-20 0 -41 -36l-39 24q35 69 104 69q37 0 61 -22t24 -48q1 -27 -11 -43t-31 -34t-29 -36l-51 13q7 18 29 42t22 38zM318 829h86l92 -119h-85l-49 66h-2l-49 -66h-84zM353 587q-87 1 -137 -71t-50 -180t50 -178t138 -70q86 0 136 72t49 176
q0 106 -49 178t-137 73zM358 686q143 0 227 -96t84 -254t-90 -252q-89 -94 -231 -95q-142 1 -227 97t-85 249t90 252t232 99z" />
    <glyph glyph-name="uni1ED5" unicode="&#x1ed5;" horiz-adv-x="564" 
d="M443 726q-1 32 -37 32q-18 0 -38 -34l-39 24q35 69 105 69q36 -1 60 -23t25 -52t-31 -63q-32 -32 -39 -45l-55 13q7 19 28 41q21 24 21 38zM239 698h87l88 -148h-84l-47 90h-2l-47 -90h-82zM282 409q-60 0 -90 -49t-30 -119q0 -71 33 -117t87 -46t87 46t33 116t-30 120
t-90 49zM285 498q110 0 177 -70t67 -188t-74 -184t-178 -67q-104 0 -173 68q-69 69 -69 185t70 186t180 70z" />
    <glyph glyph-name="uni1ED6" unicode="&#x1ed6;" horiz-adv-x="704" 
d="M406 912q24 0 26 40h60q3 -107 -76 -107q-23 1 -59 19t-47 18q-22 0 -25 -38h-61q0 48 20 76t50 29q30 -1 63 -19q34 -18 49 -18zM307 829h93l103 -119h-92l-56 65h-2l-56 -65h-91zM353 587q-87 1 -137 -71t-50 -180t50 -178t138 -70q86 0 136 72t49 176q0 106 -49 178
t-137 73zM358 686q143 0 227 -96t84 -254t-90 -252q-89 -94 -231 -95q-142 1 -227 97t-85 249t90 252t232 99z" />
    <glyph glyph-name="uni1ED7" unicode="&#x1ed7;" horiz-adv-x="564" 
d="M333 756q24 0 26 40h60q3 -106 -76 -106q-22 0 -58 18t-48 19q-22 0 -25 -38h-61q-1 48 19 76t52 28q30 -1 64 -19t47 -18zM238 674h87l93 -125h-85l-51 72h-2l-50 -72h-85zM282 409q-60 0 -90 -49t-30 -119q0 -71 33 -117t87 -46t87 46t33 116t-30 120t-90 49zM285 498
q110 0 177 -70t67 -188t-74 -184t-178 -67q-104 0 -173 68q-69 69 -69 185t70 186t180 70z" />
    <glyph glyph-name="uni1ED8" unicode="&#x1ed8;" horiz-adv-x="704" 
d="M352 -201q-26 0 -42 18q-18 19 -18 43t18 42t43 18t42 -18t17 -43t-17 -43t-43 -17zM305 829h93l103 -119h-92l-56 65h-2l-56 -65h-91zM353 587q-87 1 -137 -71t-50 -180t50 -178t138 -70q86 0 136 72t49 176q0 106 -49 178t-137 73zM358 686q143 0 227 -96t84 -254
t-90 -252q-89 -94 -231 -95q-142 1 -227 97t-85 249t90 252t232 99z" />
    <glyph glyph-name="uni1ED9" unicode="&#x1ed9;" horiz-adv-x="564" 
d="M282 -80q26 0 43 -18t17 -44t-17 -44t-43 -18t-44 18t-18 44t18 44t44 18zM240 698h83l98 -148h-85l-53 90h-2l-54 -90h-84zM282 408q-60 0 -90 -48t-30 -119t33 -117t87 -46t87 46t33 116q0 68 -30 118t-90 50zM285 497q110 0 177 -69q67 -70 67 -188t-74 -184t-178 -67
q-104 0 -173 68t-69 184t70 186t180 70z" />
    <glyph glyph-name="uni1EDA" unicode="&#x1eda;" horiz-adv-x="704" 
d="M385 830h136l-125 -120h-99zM708 666q0 -46 -26 -74t-79 -27q66 -89 66 -238t-90 -243q-89 -94 -231 -95q-142 1 -227 97t-85 249t89 252t231 99q64 0 94 -12t67 -27q36 -16 58 -16q41 0 41 43q0 30 -19 68l90 16q21 -46 21 -92zM352 88q86 0 137 72q50 72 50 176
q0 106 -49 178t-137 73q-87 -1 -137 -73t-50 -178t50 -176q50 -72 136 -72z" />
    <glyph glyph-name="uni1EDB" unicode="&#x1edb;" horiz-adv-x="573" 
d="M311 698h120l-122 -148h-85zM583 490q0 -42 -25 -68t-70 -27q41 -60 41 -147q0 -126 -74 -192t-178 -67q-104 0 -173 68q-69 69 -69 185t70 186t182 70q58 0 103 -20t66 -20q37 0 37 38q0 30 -19 65l89 15q20 -44 20 -86zM282 409q-60 0 -90 -49t-30 -119q0 -71 33 -117
t87 -46t87 46t33 117q0 70 -30 119t-90 49z" />
    <glyph glyph-name="uni1EDC" unicode="&#x1edc;" horiz-adv-x="704" 
d="M200 830h136l88 -119h-99zM708 666q0 -46 -26 -74t-79 -27q66 -89 66 -238t-90 -243q-89 -94 -231 -95q-142 1 -227 97t-85 249t89 252t231 99q64 0 94 -12t67 -27q36 -16 58 -16q41 0 41 43q0 30 -19 68l90 15q21 -45 21 -91zM352 88q86 0 137 72q50 72 50 176
q0 106 -49 178t-137 73q-87 -1 -137 -73t-50 -178t50 -176q50 -72 136 -72z" />
    <glyph glyph-name="uni1EDD" unicode="&#x1edd;" horiz-adv-x="573" 
d="M141 698h120l87 -148h-85zM583 490q0 -42 -25 -68t-70 -27q41 -60 41 -147q0 -126 -74 -192t-178 -67q-104 0 -173 68q-69 69 -69 185t70 186t182 70q58 0 103 -20t66 -20q37 0 37 38q0 30 -19 65l89 15q20 -44 20 -86zM282 409q-60 0 -90 -49t-30 -119q0 -71 33 -117
t87 -46t87 46t33 117q0 70 -30 119t-90 49z" />
    <glyph glyph-name="uni1EDE" unicode="&#x1ede;" horiz-adv-x="704" 
d="M374 807q0 31 -32 31q-23 0 -47 -35l-41 26q37 73 111 73q39 0 65 -24t26 -51t-12 -45t-32 -37t-29 -37l-60 15q7 21 29 45t22 39zM708 666q0 -46 -26 -74t-79 -27q66 -89 66 -238t-90 -243q-89 -94 -231 -95q-142 1 -227 97t-85 249t89 252t231 99q62 0 94 -11t67 -27
q36 -16 58 -16q41 0 41 42q0 31 -19 69l90 16q21 -47 21 -93zM352 88q86 0 137 72q50 72 50 176q0 106 -49 178t-137 73q-87 -1 -137 -73t-50 -178t50 -176q50 -72 136 -72z" />
    <glyph glyph-name="uni1EDF" unicode="&#x1edf;" horiz-adv-x="573" 
d="M296 637q0 35 -31 35q-23 0 -46 -34l-42 26q36 73 110 73q39 0 66 -23t27 -54t-14 -52q-14 -22 -34 -42t-29 -38l-62 15q7 21 31 49t24 45zM583 491q0 -43 -25 -69t-70 -27q41 -60 41 -147q0 -126 -74 -192t-178 -67q-104 0 -173 68q-69 69 -69 185t70 186t182 70
q58 0 103 -20t66 -20q37 0 37 38q0 30 -19 65l89 15q20 -42 20 -85zM282 409q-60 0 -90 -49t-30 -119q0 -71 33 -117t87 -46t87 46t33 117q0 70 -30 119t-90 49z" />
    <glyph glyph-name="uni1EE0" unicode="&#x1ee0;" horiz-adv-x="704" 
d="M407 792q24 0 27 41h59q3 -112 -75 -112q-30 0 -64 19t-43 19q-22 0 -25 -43l-60 -1q-2 55 18 85t51 31t65 -19t47 -20zM708 666q0 -46 -26 -75q-26 -28 -79 -27q66 -90 66 -238t-90 -242q-89 -94 -231 -95q-142 1 -227 97t-85 248t89 252q89 99 231 100q64 0 94 -12
t67 -27q36 -16 58 -16q41 0 41 42q0 31 -19 69l90 16q21 -46 21 -92zM353 88q86 0 136 71t50 177t-49 178t-137 72q-87 0 -137 -72t-50 -178t50 -177t137 -71z" />
    <glyph glyph-name="uni1EE1" unicode="&#x1ee1;" horiz-adv-x="573" 
d="M329 642q25 0 27 43h60q3 -116 -76 -116q-26 0 -60 19t-46 19q-22 0 -25 -45h-61q-2 56 18 88t51 31q30 1 66 -19t46 -20zM583 491q0 -43 -25 -69t-70 -27q41 -60 41 -147q0 -126 -74 -192t-178 -67q-104 0 -173 68q-69 69 -69 185t70 186t182 70q59 0 104 -20t65 -20
q39 0 37 38q0 30 -19 65l89 15q20 -42 20 -85zM282 409q-60 1 -90 -49t-30 -120t33 -116t87 -46t88 46t32 117q0 70 -30 119t-90 49z" />
    <glyph glyph-name="uni1EE2" unicode="&#x1ee2;" horiz-adv-x="704" 
d="M354 -201h-2q-24 0 -42 18q-18 19 -18 43t18 42t43 18t42 -18t17 -42t-17 -43q-17 -18 -41 -18zM708 666q0 -46 -26 -74t-79 -27q66 -89 66 -238t-90 -243q-89 -94 -231 -95q-142 1 -227 97t-85 249t89 252t231 99q62 0 94 -11t67 -27q36 -16 58 -16q41 0 41 42
q0 31 -19 69l90 16q21 -47 21 -93zM352 88q86 0 137 72q50 72 50 176q0 106 -49 178t-137 73q-87 -1 -137 -73t-50 -178t50 -176q50 -72 136 -72z" />
    <glyph glyph-name="uni1EE3" unicode="&#x1ee3;" horiz-adv-x="573" 
d="M284 -80q26 0 43 -18t17 -44t-17 -44t-43 -18t-44 18t-18 44t18 44t44 18zM583 491q0 -43 -25 -69t-70 -27q41 -60 41 -147q0 -126 -74 -192t-178 -67q-104 0 -173 68q-69 69 -69 185t70 186t182 70q58 0 103 -20t66 -20q37 0 37 38q0 30 -19 65l89 15q20 -42 20 -85z
M282 409q-60 0 -90 -49t-30 -119q0 -71 33 -117t87 -46t87 46t33 117q0 70 -30 119t-90 49z" />
    <glyph glyph-name="uni1EE4" unicode="&#x1ee4;" horiz-adv-x="666" 
d="M334 -201q-26 0 -44 18q-18 19 -17 43q0 24 18 42t43 18t42 -18t17 -43t-17 -43q-16 -18 -42 -17zM70 674h123v-393q0 -97 37 -145t101 -48q142 0 142 193v393h123v-385q0 -151 -72 -225t-195 -75q-259 0 -259 299v386z" />
    <glyph glyph-name="uni1EE5" unicode="&#x1ee5;" horiz-adv-x="569" 
d="M285 -80q26 0 43 -18t17 -44t-17 -44t-43 -18t-44 18t-18 44t18 44t44 18zM502 487v-341q0 -66 4 -146h-107l-6 73h-3q-52 -84 -157 -84q-73 1 -121 51t-48 161v286h123v-265q0 -133 91 -133q36 -1 60 19q42 33 41 85v294h123z" />
    <glyph glyph-name="uni1EE6" unicode="&#x1ee6;" horiz-adv-x="666" 
d="M354 806q0 31 -31 31q-25 0 -47 -35l-42 26q37 73 112 73q38 1 64 -23t27 -52q0 -28 -12 -46q-12 -17 -32 -36t-30 -37l-59 15q6 20 28 44t22 40zM70 674h123v-393q0 -97 37 -145t101 -48q142 0 142 193v393h123v-385q0 -151 -72 -225t-195 -75q-259 0 -259 299v386z" />
    <glyph glyph-name="uni1EE7" unicode="&#x1ee7;" horiz-adv-x="569" 
d="M299 637q0 35 -31 35q-25 0 -46 -34l-43 26q36 73 111 73q39 0 66 -23t27 -54t-14 -52q-14 -22 -35 -42t-29 -38l-61 15q6 21 30 49t25 45zM502 487v-341q0 -66 4 -146h-107l-6 73h-3q-52 -84 -157 -84q-73 1 -121 51t-48 161v286h123v-265q0 -133 91 -133q36 -1 60 19
q42 33 41 85v294h123z" />
    <glyph glyph-name="uni1EE8" unicode="&#x1ee8;" horiz-adv-x="705" 
d="M356 830h136l-125 -120h-99zM572 674q49 0 49 39q0 32 -18 62l89 15q20 -44 20 -86t-26 -67q-26 -26 -74 -30l-16 -1v-317q0 -151 -72 -225t-195 -75q-259 0 -259 299v386h123v-393q0 -97 37 -145t101 -48q142 0 142 193v393h99z" />
    <glyph glyph-name="uni1EE9" unicode="&#x1ee9;" horiz-adv-x="569" 
d="M327 698h120l-122 -148h-85zM600 522q0 -84 -98 -95v-281q0 -66 4 -146h-107l-6 74h-3q-52 -85 -157 -85q-73 1 -121 51t-48 161v286h123v-265q0 -132 91 -133q36 -1 60 19q42 33 41 85v294h82q50 0 50 40q0 29 -20 62l89 15q20 -38 20 -82z" />
    <glyph glyph-name="uni1EEA" unicode="&#x1eea;" horiz-adv-x="705" 
d="M178 830h136l88 -119h-99zM572 674q49 0 49 39q0 32 -18 62l89 15q20 -44 20 -86t-26 -67q-26 -26 -74 -30l-16 -1v-317q0 -151 -72 -225t-195 -75q-259 0 -259 299v386h123v-393q0 -97 37 -145t101 -48q142 0 142 193v393h99z" />
    <glyph glyph-name="uni1EEB" unicode="&#x1eeb;" horiz-adv-x="569" 
d="M145 698h120l87 -148h-85zM600 522q0 -84 -98 -95v-281q0 -66 4 -146h-107l-6 74h-3q-52 -85 -157 -85q-73 1 -121 51t-48 161v286h123v-265q0 -132 91 -133q36 -1 60 19q42 33 41 85v294h82q50 0 50 40q0 29 -20 62l89 15q20 -38 20 -82z" />
    <glyph glyph-name="uni1EEC" unicode="&#x1eec;" horiz-adv-x="705" 
d="M374 806q0 31 -31 31q-24 0 -48 -35l-41 26q37 73 112 73q37 1 64 -23t27 -52t-12 -46q-12 -17 -32 -36t-30 -37l-60 15q7 20 29 44t22 40zM572 674q49 0 49 39q0 32 -18 62l89 15q20 -44 20 -86t-26 -67q-26 -26 -74 -30l-16 -1v-317q0 -151 -72 -225t-195 -75
q-259 0 -259 299v386h123v-393q0 -97 37 -145t101 -48q142 0 142 193v393h99z" />
    <glyph glyph-name="uni1EED" unicode="&#x1eed;" horiz-adv-x="569" 
d="M307 639q0 33 -32 33q-25 0 -46 -34l-42 26q36 73 111 73q40 0 66 -23t26 -54t-14 -52q-14 -22 -34 -42t-29 -38l-62 15q6 21 31 49t25 47zM600 522q0 -84 -98 -95v-281q0 -66 4 -146h-107l-6 74h-3q-52 -85 -157 -85q-73 1 -121 51t-48 161v286h123v-265q0 -132 91 -133
q36 -1 60 19q42 33 41 85v294h82q50 0 50 40q0 29 -20 62l89 15q20 -38 20 -82z" />
    <glyph glyph-name="uni1EEE" unicode="&#x1eee;" horiz-adv-x="705" 
d="M400 792q24 0 27 41h59q3 -112 -74 -112q-30 0 -64 19t-44 19q-22 0 -25 -44h-60q-1 55 19 85t50 31t64 -19t48 -20zM572 674q49 0 49 39q0 32 -18 62l89 15q20 -44 20 -86t-26 -67q-26 -26 -74 -30l-16 -1v-317q0 -151 -72 -225t-195 -75q-259 0 -259 299v386h123v-393
q0 -97 37 -145t101 -48q142 0 142 193v393h99z" />
    <glyph glyph-name="uni1EEF" unicode="&#x1eef;" horiz-adv-x="569" 
d="M334 642q25 0 27 43h60q3 -116 -76 -116q-27 0 -61 19t-46 19q-22 0 -25 -45h-61q-2 56 18 88t50 31q30 1 67 -19t47 -20zM600 522q0 -84 -98 -95v-281q0 -66 4 -146h-107l-6 74h-3q-52 -85 -157 -85q-73 1 -121 51t-48 161v286h123v-265q0 -132 91 -133q36 -1 60 19
q42 33 41 85v294h82q50 0 50 40q0 29 -20 62l89 15q20 -38 20 -82z" />
    <glyph glyph-name="uni1EF0" unicode="&#x1ef0;" horiz-adv-x="705" 
d="M353 -80q26 0 43 -18t17 -44t-17 -44t-43 -18t-44 18t-18 44t18 44t44 18zM572 674q49 0 49 39q0 32 -18 62l89 15q20 -44 20 -86t-26 -67q-26 -26 -74 -30l-16 -1v-317q0 -151 -72 -225t-195 -75q-259 0 -259 299v386h123v-393q0 -97 37 -145t101 -48q142 0 142 193v393
h99z" />
    <glyph glyph-name="uni1EF1" unicode="&#x1ef1;" horiz-adv-x="569" 
d="M283 -80q26 0 43 -18t17 -44t-17 -44t-43 -18t-44 18t-18 44t18 44t44 18zM600 522q0 -84 -98 -95v-281q0 -66 4 -146h-107l-6 74h-3q-52 -85 -157 -85q-73 1 -121 51t-48 161v286h123v-265q0 -132 91 -133q36 -1 60 19q42 33 41 85v294h82q50 0 50 40q0 29 -20 62l89 15
q20 -38 20 -82z" />
    <glyph glyph-name="Ygrave" unicode="&#x1ef2;" horiz-adv-x="575" 
d="M136 826h136l88 -119h-99zM347 0h-123v281l-213 393h141l80 -173q36 -78 59 -134h2q19 50 58 134l81 173h139l-224 -390v-284z" />
    <glyph glyph-name="ygrave" unicode="&#x1ef3;" horiz-adv-x="500" 
d="M112 698h120l87 -148h-85zM193 16q0 10 -6 24l-179 447h136l87 -261q16 -49 28 -94h3q19 73 26 95l76 260h131l-122 -332q-50 -135 -88 -205q-83 -153 -210 -170l-28 103q36 8 71 34q42 26 68 77q7 12 7 22z" />
    <glyph glyph-name="uni1EF4" unicode="&#x1ef4;" horiz-adv-x="575" 
d="M288 -201q-26 0 -44 18q-18 19 -17 43q0 24 18 42t43 18t42 -18t17 -43t-17 -43q-16 -18 -42 -17zM347 0h-123v281l-213 393h141l80 -173q36 -78 59 -134h2q19 50 58 134l81 173h139l-224 -390v-284z" />
    <glyph glyph-name="uni1EF5" unicode="&#x1ef5;" horiz-adv-x="500" 
d="M369 -80q26 0 43 -18t17 -44t-17 -44t-43 -18t-44 18t-18 44t18 44t44 18zM193 17q0 9 -6 23l-179 447h136l87 -261q17 -51 28 -95h3q16 64 26 96l76 260h131l-122 -332q-50 -135 -88 -205q-84 -154 -210 -171l-28 104q36 9 74 35t55 58t17 41z" />
    <glyph glyph-name="uni1EF6" unicode="&#x1ef6;" horiz-adv-x="575" 
d="M309 806q0 31 -32 31q-24 0 -46 -35l-42 26q37 73 111 73q38 1 64 -23t27 -52q0 -28 -12 -46q-11 -17 -31 -36t-30 -37l-60 15q8 20 30 44t21 40zM347 0h-123v281l-213 393h141l80 -173q36 -78 59 -134h2q19 50 58 134l81 173h139l-224 -390v-284z" />
    <glyph glyph-name="uni1EF7" unicode="&#x1ef7;" horiz-adv-x="500" 
d="M275 637q0 35 -31 35q-25 0 -46 -34l-42 26q36 73 110 73q39 0 66 -23t27 -54t-14 -52q-14 -22 -35 -42t-29 -38l-61 15q6 21 30 49t25 45zM193 16q0 10 -6 24l-179 447h136l87 -261q16 -49 28 -94h3q19 73 26 95l76 260h131l-122 -332q-50 -135 -88 -205
q-83 -153 -210 -170l-28 103q36 8 71 34q42 26 68 77q7 12 7 22z" />
    <glyph glyph-name="uni1EF8" unicode="&#x1ef8;" horiz-adv-x="575" 
d="M335 792q24 0 27 41h59q3 -112 -74 -112q-31 0 -65 19t-43 19q-22 0 -25 -44h-60q-2 55 18 85t51 31t65 -19t47 -20zM347 0h-123v281l-213 393h141l80 -173q36 -78 59 -134h2q19 50 58 134l81 173h139l-224 -390v-284z" />
    <glyph glyph-name="uni1EF9" unicode="&#x1ef9;" horiz-adv-x="500" 
d="M193 681q30 1 66 -19t47 -20q23 0 26 43h60q3 -116 -76 -116q-26 0 -60 19t-46 19q-22 0 -25 -45h-61q-2 56 18 88t51 31zM193 16q0 10 -6 24l-179 447h136l87 -261q16 -49 28 -94h3q19 73 26 95l76 260h131l-122 -332q-50 -135 -88 -205q-83 -153 -210 -170l-28 103
q36 8 71 34q42 26 68 77q7 12 7 22z" />
    <glyph glyph-name="uni2010" unicode="&#x2010;" horiz-adv-x="315" 
d="M30 309h255v-85h-255v85z" />
    <glyph glyph-name="endash" unicode="&#x2013;" horiz-adv-x="500" 
d="M30 293h440v-78h-440v78z" />
    <glyph glyph-name="emdash" unicode="&#x2014;" horiz-adv-x="1000" 
d="M30 293h940v-78h-940v78z" />
    <glyph glyph-name="quoteleft" unicode="&#x2018;" horiz-adv-x="236" 
d="M149 438l-119 -9q44 149 108 256l76 7q-47 -132 -65 -254z" />
    <glyph glyph-name="quoteright" unicode="&#x2019;" horiz-adv-x="236" 
d="M94 683l119 10q-43 -148 -108 -256l-76 -8q47 135 65 254z" />
    <glyph glyph-name="quotesinglbase" unicode="&#x201a;" horiz-adv-x="236" 
d="M94 -102l-76 -8q47 131 65 253l119 10q-45 -151 -108 -255z" />
    <glyph glyph-name="quotedblleft" unicode="&#x201c;" horiz-adv-x="409" 
d="M323 438l-119 -9q48 155 108 256l76 7q-47 -132 -65 -254zM149 438l-119 -9q44 149 108 256l76 7q-46 -123 -65 -254z" />
    <glyph glyph-name="quotedblright" unicode="&#x201d;" horiz-adv-x="409" 
d="M268 683l119 10q-43 -148 -108 -256l-76 -8q46 126 65 254zM94 683l119 10q-47 -153 -108 -256l-76 -8q47 135 65 254z" />
    <glyph glyph-name="quotedblbase" unicode="&#x201e;" horiz-adv-x="412" 
d="M267 -102l-76 -8q46 123 65 253l119 10q-45 -151 -108 -255zM93 -102l-76 -8q47 131 65 253l119 10q-48 -156 -108 -255z" />
    <glyph glyph-name="dagger" unicode="&#x2020;" horiz-adv-x="513" 
d="M201 674h112l-11 -206l173 10v-97l-173 10l11 -441h-112l11 441l-173 -10v97l173 -10z" />
    <glyph glyph-name="daggerdbl" unicode="&#x2021;" horiz-adv-x="513" 
d="M201 674h111l-9 -193l172 10v-97l-172 10v-178l172 10v-97l-172 10l9 -199h-111l8 199l-171 -10v97l172 -10v178l-172 -10v97l172 -10z" />
    <glyph glyph-name="bullet" unicode="&#x2022;" horiz-adv-x="313" 
d="M156 142q-50 0 -84 34t-34 84t34 85q35 35 85 35q51 0 85 -34t34 -85t-35 -85t-85 -34z" />
    <glyph glyph-name="ellipsis" unicode="&#x2026;" horiz-adv-x="1000" 
d="M835 -11q-34 1 -55 23t-21 56q-1 34 21 56t56 23q34 0 54 -22q21 -23 21 -57t-21 -56t-55 -23zM501 -11q-34 1 -55 23t-21 56q-1 34 21 56t56 23q34 0 54 -22q21 -23 21 -57t-21 -56t-55 -23zM167 -11q-34 1 -55 23t-21 56q-1 34 21 56t56 23q34 0 54 -22q21 -23 21 -57
t-21 -56t-55 -23z" />
    <glyph glyph-name="perthousand" unicode="&#x2030;" horiz-adv-x="1227" 
d="M1030 322q-35 0 -54 -36q-20 -36 -20 -94t20 -94t55 -37q73 1 73 131t-74 130zM1034 391q76 -1 120 -53t44 -144t-49 -148q-49 -54 -120 -54t-118 52t-48 144q0 91 48 147q47 56 123 56zM644 322q-34 0 -54 -37t-20 -94t19 -93q20 -36 56 -37q73 1 73 131t-74 130z
M648 391q76 -1 120 -53t44 -144t-49 -148q-49 -54 -121 -54t-118 52q-47 52 -48 144q0 91 48 147t124 56zM265 -11h-70l377 672h71zM196 330q73 0 73 131t-74 131q-35 0 -54 -36t-19 -95t19 -95q20 -36 55 -36zM200 661q76 -1 119 -53q44 -52 44 -145t-49 -147t-120 -55
q-71 1 -118 53q-48 52 -48 144t48 147q48 56 124 56z" />
    <glyph glyph-name="guilsinglleft" unicode="&#x2039;" horiz-adv-x="264" 
d="M241 440l-125 -188l125 -187h-90l-123 187l123 188h90z" />
    <glyph glyph-name="guilsinglright" unicode="&#x203a;" horiz-adv-x="264" 
d="M148 252l-125 188h89l124 -188l-124 -187h-89z" />
    <glyph glyph-name="fraction" unicode="&#x2044;" horiz-adv-x="124" 
d="M-90 -11h-71l374 672h71z" />
    <glyph glyph-name="zero.superior" unicode="&#x2070;" horiz-adv-x="359" 
d="M115 638q1 -134 65 -135q64 1 64 135t-64 134t-65 -134zM180 437q-78 0 -118 55t-40 145q0 89 41 145t117 56t116 -54t41 -145q0 -90 -40 -146t-117 -56z" />
    <glyph glyph-name="four.superior" unicode="&#x2074;" horiz-adv-x="372" 
d="M209 602v92l4 69h-3q-18 -36 -35 -63l-68 -97l2 -1h100zM299 443h-90v95h-191v53l171 243h110v-233h53v-63h-53v-95z" />
    <glyph glyph-name="five.superior" unicode="&#x2075;" horiz-adv-x="330" 
d="M285 831v-71h-158l-10 -65q7 1 51 1t88 -28t45 -92q-1 -62 -47 -100t-116 -39q-70 0 -118 23l17 65q38 -20 81 -20q44 1 68 17t24 45q0 67 -113 67q-26 0 -56 -4l26 201h218z" />
    <glyph glyph-name="six.superior" unicode="&#x2076;" horiz-adv-x="349" 
d="M176 503q30 0 46 20t16 51q0 30 -17 50t-53 20t-55 -39q-4 -11 -4 -33q1 -22 19 -46t48 -23zM203 704q55 0 89 -34t35 -94q0 -60 -43 -99q-43 -40 -111 -40q-68 1 -109 49t-41 138q-1 90 61 148q62 57 159 63q30 2 39 1l1 -67q-76 9 -119 -25q-43 -33 -52 -73l2 -1
q34 34 89 34z" />
    <glyph glyph-name="seven.superior" unicode="&#x2077;" horiz-adv-x="316" 
d="M22 831h280v-54l-168 -334h-94l168 316v1h-186v71z" />
    <glyph glyph-name="eight.superior" unicode="&#x2078;" horiz-adv-x="346" 
d="M172 778q-25 0 -39 -13t-14 -33q0 -40 61 -56q45 14 45 53q0 21 -14 35t-39 14zM173 498q27 0 43 14t17 37q0 49 -67 65q-54 -15 -54 -60q0 -24 17 -40t44 -16zM307 729q0 -49 -61 -76v-2q77 -29 77 -89t-42 -92q-41 -33 -111 -33q-70 1 -108 33t-38 74q0 65 74 97v2
q-61 29 -61 81q-1 52 39 83q40 30 102 30q62 1 95 -29q34 -30 34 -79z" />
    <glyph glyph-name="nine.superior" unicode="&#x2079;" horiz-adv-x="344" 
d="M110 704q0 -67 66 -67q34 0 54 29q4 7 4 22q0 85 -65 85q-25 0 -42 -20t-17 -49zM147 577q-53 0 -89 33t-36 90q0 58 42 98t112 40q68 0 107 -48t39 -120q0 -114 -62 -170t-160 -61q-25 -2 -42 0v67q71 -8 118 23q46 31 57 79h-2q-31 -31 -84 -31z" />
    <glyph glyph-name="parenleft.superior" unicode="&#x207d;" horiz-adv-x="193" 
d="M113 630q0 -133 64 -242h-64q-73 102 -73 238t73 242h64q-64 -105 -64 -238z" />
    <glyph glyph-name="parenright.superior" unicode="&#x207e;" horiz-adv-x="193" 
d="M81 629q0 132 -64 239h64q72 -104 72 -240t-72 -240h-64q64 109 64 241z" />
    <glyph glyph-name="zero.inferior" unicode="&#x2080;" horiz-adv-x="359" 
d="M115 48q1 -134 65 -134t64 134t-64 134t-65 -134zM180 -152q-76 0 -118 55q-40 55 -40 145t41 144q41 56 117 56t116 -54t41 -144q-1 -90 -41 -146t-116 -56z" />
    <glyph glyph-name="one.inferior" unicode="&#x2081;" horiz-adv-x="275" 
d="M209 -147h-96v310h-1l-76 -35l-14 69l103 46h84v-390z" />
    <glyph glyph-name="two.inferior" unicode="&#x2082;" horiz-adv-x="333" 
d="M13 -147v48l62 56q69 63 95 95t26 60q0 61 -66 61q-44 0 -85 -29l-27 62q55 42 130 42t112 -34t37 -72q0 -62 -31 -100t-92 -91l-27 -24v-2h157v-72h-291z" />
    <glyph glyph-name="three.inferior" unicode="&#x2083;" horiz-adv-x="328" 
d="M204 -30q0 58 -95 60h-29v58h27q32 0 58 12t26 35q-1 46 -53 46t-92 -26l-20 62q50 31 122 31t106 -28t35 -63q0 -71 -79 -95v-2q42 -4 68 -30t27 -70q0 -44 -46 -78q-45 -34 -125 -34t-125 28l21 65q43 -26 87 -26q43 1 65 17t22 38z" />
    <glyph glyph-name="four.inferior" unicode="&#x2084;" horiz-adv-x="372" 
d="M209 12v92l4 69h-3q-18 -36 -35 -63l-68 -97l2 -1h100zM299 -147h-90v96h-191v53l171 242h110v-232h53v-63h-53v-96z" />
    <glyph glyph-name="five.inferior" unicode="&#x2085;" horiz-adv-x="330" 
d="M285 241v-71h-158l-10 -65q7 1 51 1t88 -29t45 -91q-1 -62 -47 -100t-116 -39q-70 0 -118 23l17 65q38 -20 81 -20q44 1 68 17t24 45q0 67 -113 67q-26 0 -56 -4l26 201h218z" />
    <glyph glyph-name="six.inferior" unicode="&#x2086;" horiz-adv-x="349" 
d="M176 -86q30 0 46 20t16 50t-17 50t-53 20t-55 -39q-4 -10 -4 -32q1 -21 19 -45t48 -24zM203 114q55 0 89 -34t35 -93q0 -59 -43 -99t-111 -40t-109 48t-41 140q-1 90 61 147t159 63q30 2 39 1l1 -67q-76 9 -119 -25t-52 -74l2 -1q34 34 89 34z" />
    <glyph glyph-name="seven.inferior" unicode="&#x2087;" horiz-adv-x="316" 
d="M22 242h280v-54l-168 -335h-94l168 317v1h-186v71z" />
    <glyph glyph-name="eight.inferior" unicode="&#x2088;" horiz-adv-x="346" 
d="M225 139q0 20 -14 35t-39 15q-25 1 -39 -13t-14 -34q0 -40 61 -56q45 13 45 53zM173 -91q27 0 43 14t17 37q0 47 -67 65q-54 -17 -54 -61q0 -23 17 -39t44 -16zM323 -27q0 -61 -42 -93q-41 -32 -111 -32t-108 32t-38 75q0 66 74 96v2q-61 29 -61 82q-1 53 39 83t102 30
t95 -30q34 -30 34 -78q0 -50 -61 -77v-2q77 -28 77 -88z" />
    <glyph glyph-name="nine.inferior" unicode="&#x2089;" horiz-adv-x="344" 
d="M234 98q0 85 -65 85q-25 0 -42 -20t-17 -49q0 -30 16 -48t50 -18t54 29q4 7 4 21zM147 -12q-53 0 -89 33t-36 89t42 98q42 40 112 40q68 0 107 -48t39 -119q0 -116 -62 -172t-160 -59q-22 -3 -42 -1v67q71 -8 118 23q46 30 57 80h-2q-31 -31 -84 -31z" />
    <glyph glyph-name="parenleft.inferior" unicode="&#x208d;" horiz-adv-x="193" 
d="M113 40q0 -133 64 -242h-64q-73 102 -73 238t73 242h64q-64 -105 -64 -238z" />
    <glyph glyph-name="parenright.inferior" unicode="&#x208e;" horiz-adv-x="193" 
d="M81 39q0 132 -64 239h64q72 -103 72 -240t-72 -240h-64q64 109 64 241z" />
    <glyph glyph-name="dong" unicode="&#x20ab;" horiz-adv-x="536" 
d="M342 314v44q0 16 -4 31t-26 33t-58 17q-36 1 -58 -29q-24 -30 -24 -77t23 -75t57 -29q34 0 62 20q28 19 28 65zM342 670h104v-62h64v-62h-64v-290q0 -29 3 -98h-93l-4 54h-2q-36 -63 -114 -63t-124 50t-46 133t48 134q50 51 122 51t104 -46h2v75h-122v62h122v62zM88 101
h363v-75h-363v75z" />
    <glyph glyph-name="Euro" unicode="&#x20ac;" horiz-adv-x="536" 
d="M360 -11q-145 0 -226 103q-50 57 -63 148h-64v62h56v15q0 15 2 37h-58v62h67q17 90 75 152q85 93 216 93q79 0 143 -31l-25 -92q-52 26 -121 26t-118 -55q-31 -33 -44 -93h262v-62h-274q-2 -11 -2 -36v-16h276v-62h-265q10 -63 43 -97q50 -54 123 -54t129 29l21 -89
q-66 -40 -153 -40z" />
    <glyph glyph-name="uni2113" unicode="&#x2113;" horiz-adv-x="532" 
d="M283 -11q-144 0 -170 152q0 5 -1 7q-17 -12 -51 -34l-33 66q60 42 82 60v241q0 116 48 174t120 58t112 -44q39 -45 39 -125q0 -153 -202 -329v-13q1 -111 89 -111q66 0 129 82l57 -55q-75 -129 -219 -129zM284 630q-57 0 -57 -131v-171q107 112 107 221q0 81 -50 81z" />
    <glyph glyph-name="uni2116" unicode="&#x2116;" horiz-adv-x="945" 
d="M176 0h-107v653h134l136 -280q44 -92 93 -217l1 1q-10 123 -10 276v220h107v-653h-124l-139 285q-40 81 -94 222h-3q6 -125 6 -284v-223zM890 182h-280v64h280v-64zM750 574q-34 0 -53 -35q-18 -35 -18 -81q1 -46 21 -76q20 -32 52 -32t50 31t18 79t-18 80q-18 34 -52 34
zM752 638q76 0 120 -48t45 -130q0 -83 -48 -128q-49 -45 -121 -45t-119 46q-47 45 -47 127t48 130q46 48 122 48z" />
    <glyph glyph-name="trademark" unicode="&#x2122;" horiz-adv-x="636" 
d="M356 632q0 -37 -2 -93l-8 -138h-66l18 273h107l31 -97q6 -21 17 -79h1q17 69 19 78l33 98h101l17 -273h-68l-8 138q0 57 -1 93h-4q-7 -31 -23 -95l-38 -131h-68l-35 133q-1 3 -8 39t-11 54h-4zM29 674h233v-57h-82v-216h-70v216h-81v57z" />
    <glyph glyph-name="Omega" unicode="&#x2126;" horiz-adv-x="727" 
d="M555 95h140v-95h-277v74q60 43 98 115t39 165q0 93 -51 163q-50 70 -138 70q-88 1 -141 -69t-53 -162t40 -168q40 -78 98 -114v-74h-278v95h138v3q-54 43 -90 112t-36 154q0 138 92 230t234 92t227 -90t85 -222q0 -166 -127 -276v-3z" />
    <glyph glyph-name="estimated" unicode="&#x212e;" horiz-adv-x="817" 
d="M646 340v184q0 12 -10 22q-95 95 -227 95t-227 -98q-10 -10 -10 -23v-180q0 -5 5 -5h464q5 0 5 5zM782 316h-605q-5 0 -5 -4v-183q0 -10 9 -21q93 -99 233 -99t236 111h55q-52 -61 -130 -96t-166 -35q-155 1 -265 99t-109 237q-1 139 109 237t265 99q155 -1 264 -99
t109 -237v-9z" />
    <glyph glyph-name="partialdiff" unicode="&#x2202;" horiz-adv-x="375" 
d="M252 88q50 0 88 54t47 130q-12 34 -43 59q-30 25 -78 25t-83 -43t-35 -103t28 -90q28 -32 76 -32zM246 729q112 -1 193 -97t81 -268t-82 -274q-82 -101 -193 -101q-111 -1 -166 65t-55 161t62 166t158 71q56 0 96 -24t58 -56h1q1 7 1 24q0 106 -50 170t-127 63
q-77 0 -134 -38l-37 83q82 55 194 55z" />
    <glyph glyph-name="Delta" unicode="&#x2206;" horiz-adv-x="603" 
d="M437 100l-94 291q-24 79 -45 159h-3q-17 -73 -40 -148l-97 -302h279zM569 0h-535v64l197 589h144l194 -588v-65z" />
    <glyph glyph-name="product" unicode="&#x220f;" horiz-adv-x="642" 
d="M631 549h-93v-639h-115v639h-205v-639h-115v639h-93v101h621v-101z" />
    <glyph glyph-name="summation" unicode="&#x2211;" horiz-adv-x="527" 
d="M528 -90h-516v71l233 296l-221 292v81h475v-101h-318v-4l197 -263l-208 -267v-4h358v-101z" />
    <glyph glyph-name="minus" unicode="&#x2212;" horiz-adv-x="596" 
d="M40 306h516v-78h-516v78z" />
    <glyph glyph-name="uni2215" unicode="&#x2215;" horiz-adv-x="124" 
d="M-90 -11h-71l374 672h71z" />
    <glyph glyph-name="uni2219" unicode="&#x2219;" horiz-adv-x="236" 
d="M118 182q-34 0 -55 22t-21 57t22 57t54 22q34 0 55 -22t21 -56t-21 -58q-21 -22 -55 -22z" />
    <glyph glyph-name="radical" unicode="&#x221a;" horiz-adv-x="577" 
d="M597 834l-229 -920h-85l-158 419l-77 -31l-22 58l159 66l114 -320q11 -30 21 -73h2l189 801h86z" />
    <glyph glyph-name="infinity" unicode="&#x221e;" horiz-adv-x="741" 
d="M186 183q28 0 56 16t77 63l-25 25q-58 58 -96 58t-62 -24q-23 -25 -23 -59t22 -56q23 -22 51 -23zM558 183q24 -1 47 23t23 58t-22 58q-22 23 -50 23t-56 -15q-26 -14 -38 -26l-40 -40q66 -66 89 -74q23 -7 47 -7zM176 106q-60 0 -102 44t-43 112q-1 66 45 113t107 47
t102 -30t86 -74q61 60 99 82t96 22q60 0 102 -45t42 -111t-46 -114q-46 -46 -111 -46t-129 54q-20 16 -54 50q-61 -60 -98 -82q-36 -22 -96 -22z" />
    <glyph glyph-name="integral" unicode="&#x222b;" horiz-adv-x="339" 
d="M264 802q48 0 67 -7l-13 -75q-20 4 -42 4t-42 -30t-21 -147l14 -456q0 -250 -153 -250q-41 0 -63 11l14 77q20 -6 37 -6q72 0 72 165l-14 467q0 145 57 205q39 42 87 42z" />
    <glyph glyph-name="approxequal" unicode="&#x2248;" horiz-adv-x="596" 
d="M434 81q-32 0 -46 2t-30 7q-14 5 -22 8q-8 2 -24 10t-19 10q-67 34 -119 33q-52 0 -107 -61l-43 54q28 36 70 60t75 25q66 0 104 -19q66 -33 91 -42q24 -9 53 -9q64 0 113 62l46 -50q-26 -39 -68 -65t-74 -25zM180 435q40 0 60 -8q20 -9 40 -17t24 -10q68 -34 118 -34
t103 61l48 -51q-26 -39 -68 -64q-41 -25 -75 -25q-34 1 -54 5t-30 7q-9 3 -32 13t-24 11q-68 34 -120 34t-105 -61l-44 53q65 86 159 86z" />
    <glyph glyph-name="notequal" unicode="&#x2260;" horiz-adv-x="596" 
d="M556 126h-309l-69 -111h-83l71 111h-126v78h176l82 128h-258v78h308l68 111h83l-71 -111h128v-78h-178l-81 -128h259v-78z" />
    <glyph glyph-name="lessequal" unicode="&#x2264;" horiz-adv-x="596" 
d="M534 0h-471v74h471v-74zM534 109l-472 184v77l472 183v-85l-364 -136v-2l364 -135v-86z" />
    <glyph glyph-name="greaterequal" unicode="&#x2265;" horiz-adv-x="596" 
d="M533 0h-471v74h471v-74zM534 293l-472 -184v86l364 135v2l-364 136v85l472 -183v-77z" />
    <glyph glyph-name="lozenge" unicode="&#x25ca;" horiz-adv-x="550" 
d="M407 322l-121 245q-8 15 -12 27h-2q-5 -12 -12 -27l-117 -240l120 -245q11 -21 12 -27h2q1 4 13 27zM508 325l-187 -360h-92l-187 360l187 359h92z" />
    <glyph glyph-name="G_tildecomb" unicode="&#xe000;" horiz-adv-x="666" 
d="M425 792q24 0 27 41h59q3 -112 -74 -112q-29 0 -63 19t-44 19q-22 0 -25 -44h-60q-1 55 19 85t50 31q32 1 64 -19t47 -20zM611 372v-341q-102 -38 -216 -38q-171 -1 -265 89t-94 250t104 254q103 95 271 95q113 0 179 -32l-27 -99q-63 29 -163 29q-100 1 -168 -63
q-67 -64 -67 -178t64 -180t170 -65q63 0 93 13v169h-119v97h238z" />
    <glyph glyph-name="M_uni0302" unicode="&#xe001;" horiz-adv-x="827" 
d="M366 829h93l103 -119h-92l-56 65h-2l-56 -65h-91zM653 0l-13 275q-9 195 -8 283h-3q-35 -131 -80 -258l-99 -292h-94l-90 288q-41 135 -68 262h-2q-6 -178 -12 -287l-15 -271h-115l45 674h162l88 -271q35 -116 62 -234h3q31 125 67 235l93 270h160l39 -674h-120z" />
    <glyph glyph-name="N_uni0302" unicode="&#xe002;" horiz-adv-x="676" 
d="M291 829h93l103 -119h-92l-56 65h-2l-56 -65h-91zM184 0h-114v674h141l174 -289q69 -117 115 -226h2q-11 110 -11 280v235h114v-674h-128l-176 297q-76 131 -120 232l-4 -1q7 -122 7 -287v-241z" />
    <glyph glyph-name="g_tildecomb" unicode="&#xe005;" horiz-adv-x="573" 
d="M222 681q30 1 66 -19t47 -20q23 0 26 43h60q3 -116 -76 -116q-27 0 -61 19t-45 19q-22 0 -25 -45h-61q-1 56 19 88t50 31zM377 213v79q0 56 -33 84q-32 28 -78 28t-80 -43t-33 -112q-1 -69 31 -111t77 -43q116 0 116 118zM500 347v-276q0 -156 -69 -218t-182 -62t-179 39
l27 93q64 -37 135 -37q147 0 147 147v42h-2q-47 -72 -140 -72t-151 67t-58 177q0 111 65 181t159 70t138 -76h2l5 65h107q-4 -66 -4 -140z" />
    <glyph glyph-name="m_uni0302" unicode="&#xe006;" horiz-adv-x="848" 
d="M382 698h83l98 -148h-85l-53 90h-2l-54 -90h-84zM784 287v-287h-120v269q0 129 -87 129q-30 0 -61 -25t-31 -81v-292h-120v282q1 52 -21 84t-58 32q-69 0 -94 -69q-6 -19 -6 -41v-288h-120v342q0 61 -4 145h105l6 -72h3q50 83 150 83q47 0 83 -24t52 -66h2q58 90 159 90
q68 0 115 -52t47 -159z" />
    <glyph glyph-name="n_uni0302" unicode="&#xe007;" horiz-adv-x="572" 
d="M178 414q47 84 164 84q64 0 114 -51t51 -158v-289h-123v275q0 123 -93 123q-35 0 -69 -28t-33 -83v-287h-123v342q0 61 -4 145h107l6 -73h3zM244 698h83l98 -148h-85l-53 90h-2l-54 -90h-84z" />
    <glyph glyph-name="zero.slashfitted" unicode="&#xe008;" horiz-adv-x="536" 
d="M502 325q0 -155 -61 -245t-176 -91q-79 0 -134 49l-38 -61l-52 37l49 74q-56 86 -56 238t62 244q63 92 176 91q81 0 133 -47l41 66l53 -36l-52 -79q55 -85 55 -240zM272 83q52 -1 82 63t30 154t-13 145l-179 -318q29 -44 80 -44zM268 567q-52 0 -84 -64t-32 -154t16 -141
l177 313q-25 46 -77 46z" />
    <glyph glyph-name="dong.alt" unicode="&#xe184;" horiz-adv-x="536" 
d="M342 314v44q0 41 -26 61t-62 20q-36 1 -59 -29t-23 -77t23 -75t57 -29q71 0 87 60q3 10 3 25zM342 670h104v-62h64v-62h-64v-290q0 -29 3 -98h-93l-4 54h-2q-36 -63 -114 -63t-124 50t-46 133t48 134q50 51 122 51t104 -46h2v75h-122v62h122v62z" />
    <glyph glyph-name="breve_acutecomb" unicode="&#xe300;" 
d="M152 600q34 0 55 19t23 46h62q-2 -60 -40 -97t-104 -37q-64 1 -101 39t-38 95h62q5 -29 26 -47t55 -18zM190 793h102l-118 -140h-67z" />
    <glyph glyph-name="breve_gravecomb" unicode="&#xe301;" 
d="M149 600q34 0 55 19t23 46h62q-3 -61 -41 -97t-102 -36t-101 38t-39 95h62q5 -29 26 -47t55 -18zM8 793h103l82 -140h-67z" />
    <glyph glyph-name="breve_hookabovecomb" unicode="&#xe302;" 
d="M151 600q33 0 55 19t24 46h62q-2 -61 -41 -97t-103 -36t-101 38t-39 95h63q4 -29 25 -47t55 -18zM162 735q0 32 -35 32q-17 0 -40 -34l-39 24q35 69 105 69q36 0 61 -22t25 -50q1 -26 -11 -42t-31 -34t-28 -35l-55 13q8 20 28 42t20 37z" />
    <glyph glyph-name="breve_tildecomb" unicode="&#xe303;" 
d="M152 598q32 0 52 20t22 47h62q-2 -61 -39 -97t-101 -36t-98 38q-36 38 -37 95h61q5 -29 25 -48q21 -19 53 -19zM199 765q24 0 27 40h59q3 -106 -75 -106q-26 0 -60 18t-46 18q-20 0 -24 -30h-62q0 45 20 71t50 26t64 -18q35 -18 47 -19z" />
    <glyph glyph-name="circumflex_acutecomb" unicode="&#xe304;" 
d="M321 787h101l-109 -141h-65zM106 698h87l88 -148h-83l-47 90h-3l-47 -90h-82z" />
    <glyph glyph-name="circumflex_gravecomb" unicode="&#xe305;" 
d="M106 698h87l88 -148h-83l-47 90h-3l-47 -90h-82zM190 788h98l67 -142h-65z" />
    <glyph glyph-name="circumflex_hookabovecomb" unicode="&#xe306;" 
d="M310 726q0 32 -35 32q-17 0 -40 -34l-39 24q35 69 105 69q37 -1 61 -23t24 -52t-32 -63q-32 -32 -38 -45l-54 13q8 19 28 42t20 37zM106 698h87l88 -148h-83l-47 90h-3l-47 -90h-82z" />
    <glyph glyph-name="circumflex_tildecomb" unicode="&#xe307;" 
d="M202 756q24 0 26 40h60q3 -106 -76 -106q-22 0 -58 18t-48 19q-22 0 -25 -38h-61q0 48 20 76t50 28q30 -1 65 -19q34 -18 47 -18zM107 674h87l93 -125h-85l-51 72h-2l-50 -72h-85z" />
    <glyph glyph-name="space_dotbelowcomb" unicode="&#xe308;" 
d="M151 -80q26 0 43 -18t17 -44t-17 -44t-43 -18t-44 18t-18 44t18 44t44 18z" />
    <glyph glyph-name="space_hookabovecomb" unicode="&#xe309;" 
d="M160 637q0 35 -31 35q-25 0 -46 -34l-42 25q35 74 110 74q39 0 66 -23q27 -22 27 -54t-14 -52t-35 -42q-21 -20 -29 -38l-61 15q7 21 31 49t24 45z" />
    <glyph glyph-name="space_uni031B" unicode="&#xe310;" 
d="M154 423v64h16q51 0 51 40q0 31 -20 62l89 15q21 -40 21 -83q-1 -43 -31 -71t-84 -27h-42z" />
    <glyph glyph-name="breve_acutecomb.cap" unicode="&#xe311;" 
d="M180 911h116l-118 -109h-69zM154 764q62 0 76 48h57q-5 -48 -41 -81t-95 -33t-93 32t-40 82h60q14 -48 76 -48z" />
    <glyph glyph-name="breve_gravecomb.cap" unicode="&#xe312;" 
d="M154 764q62 0 76 48h58q-6 -48 -41 -81t-95 -33t-94 32q-33 32 -39 82h59q14 -48 76 -48zM14 911h116l71 -109h-69z" />
    <glyph glyph-name="breve_hookabovecomb.cap" unicode="&#xe313;" 
d="M154 765q62 0 77 48h58q-6 -48 -41 -81q-36 -33 -96 -33t-94 32t-39 82h60q13 -48 75 -48zM167 882q0 32 -35 32q-18 0 -41 -34l-38 23q36 70 106 70q35 -1 59 -23t25 -52t-31 -64q-32 -32 -39 -45l-54 13q7 20 27 43t21 37z" />
    <glyph glyph-name="breve_tildecomb.cap" unicode="&#xe314;" 
d="M151 764q63 0 77 48h57q-6 -48 -41 -81q-36 -33 -96 -33t-93 32t-39 82h59q13 -48 76 -48zM201 904q24 0 27 40h59q3 -107 -75 -107q-22 1 -58 19t-49 18q-20 0 -24 -31h-62q1 44 21 71t49 27q29 -1 66 -19t46 -18z" />
    <glyph glyph-name="circumflex_acutecomb.cap" unicode="&#xe315;" 
d="M319 908h112l-128 -110h-64zM110 829h87l92 -119h-86l-49 66h-2l-49 -66h-84z" />
    <glyph glyph-name="circumflex_gravecomb.cap" unicode="&#xe316;" 
d="M106 829h87l92 -119h-86l-49 66h-2l-49 -66h-84zM181 892h113l68 -109h-68z" />
    <glyph glyph-name="circumflex_hookabovecomb.cap" unicode="&#xe317;" 
d="M323 850q0 32 -38 33q-20 0 -41 -36l-39 24q35 69 104 69q37 0 61 -22t25 -52q0 -30 -31 -62t-40 -47l-51 13q7 20 29 43t21 37zM111 829h87l92 -119h-86l-49 66h-2l-49 -66h-84z" />
    <glyph glyph-name="circumflex_tildecomb.cap" unicode="&#xe318;" 
d="M204 912q24 0 26 40h60q3 -107 -76 -107q-23 1 -59 19t-47 18q-22 0 -25 -38h-61q0 48 20 76t50 29q30 -1 63 -19q34 -18 49 -18zM105 829h93l103 -119h-92l-56 65h-2l-56 -65h-91z" />
    <glyph glyph-name="space_dotbelowcomb.cap" unicode="&#xe319;" 
d="M150 -201q-26 0 -42 18q-18 19 -18 43t18 42t43 18t42 -18t17 -43t-17 -43t-43 -17z" />
    <glyph glyph-name="space_hookabovecomb.cap" unicode="&#xe320;" 
d="M165 806q0 31 -31 31q-25 0 -47 -35l-41 26q37 73 111 73q39 1 65 -23t26 -52t-12 -46t-32 -36q-20 -19 -30 -37l-59 15q7 20 29 44t21 40z" />
    <glyph glyph-name="space_uni031B.cap" unicode="&#xe321;" 
d="M177 674q51 0 51 38q0 31 -19 63l89 15q20 -44 20 -88t-30 -70t-89 -26h-38v68h16z" />
    <glyph glyph-name="dotaccent.cap" unicode="&#xefed;" 
d="M150 717q-26 0 -42 18q-18 18 -18 43q0 24 18 42t44 18t42 -18t16 -42q0 -25 -17 -43t-43 -18z" />
    <glyph glyph-name="breve.cap" unicode="&#xefee;" 
d="M151 793q57 0 66 47h66q-2 -53 -35 -85t-99 -32q-128 0 -132 117h68q9 -47 66 -47z" />
    <glyph glyph-name="ogonek.cap" unicode="&#xeff1;" 
d="M133 -78q0 -56 52 -56q25 0 45 9l18 -60q-36 -28 -88 -28q-108 0 -108 98q0 59 48 118h70q-37 -55 -37 -81z" />
    <glyph glyph-name="cedilla.cap" unicode="&#xeff2;" 
d="M243 -132q-1 -38 -33 -60t-79 -21q-47 0 -79 18l18 55q24 -14 59 -14t35 29t-78 38l44 90h68l-26 -50q71 -14 71 -85z" />
    <glyph glyph-name="ring.cap" unicode="&#xeff3;" horiz-adv-x="400" 
d="M200 842q-22 0 -34 -15t-12 -35t13 -34t33 -15q20 0 34 14q13 14 13 35q0 22 -13 36q-12 14 -34 14zM202 886q50 0 78 -27t29 -67t-29 -68q-30 -26 -79 -26t-79 27t-30 67t30 67t80 27z" />
    <glyph glyph-name="tilde.cap" unicode="&#xeff5;" 
d="M198 792q24 0 27 41h59q3 -112 -74 -112q-31 0 -63 20q-38 18 -45 18q-22 0 -25 -43h-60q-1 54 19 84t50 31t64 -19t48 -20z" />
    <glyph glyph-name="circumflex.cap" unicode="&#xeff7;" 
d="M103 829h93l103 -119h-92l-56 65h-2l-56 -65h-91z" />
    <glyph glyph-name="cent.denominator" unicode="&#xf629;" horiz-adv-x="323" 
d="M218 -6h-57v58q-57 8 -91 46t-34 96t33 100t92 53v56h57v-54q31 0 60 -12l-14 -65q-26 12 -60 12t-56 -23t-23 -62t23 -61t58 -21q34 0 64 11l11 -62q-24 -12 -63 -15v-57z" />
    <glyph glyph-name="dollar.denominator" unicode="&#xf62a;" horiz-adv-x="336" 
d="M158 71q58 0 58 41q0 18 -15 29t-63 27t-74 41q-27 24 -27 65q-1 42 27 70t77 36v56h56v-52q52 -1 89 -21l-18 -64q-40 22 -92 22t-52 -36q0 -17 16 -28t66 -27q98 -32 97 -111q-1 -40 -29 -70t-79 -39v-61h-56v57q-65 3 -106 27l18 65q49 -27 107 -27z" />
    <glyph glyph-name="hyphen.denominator" unicode="&#xf62b;" horiz-adv-x="199" 
d="M18 215h163v-61h-163v61z" />
    <glyph glyph-name="parenleft.denominator" unicode="&#xf62c;" horiz-adv-x="193" 
d="M113 187q0 -133 64 -242h-64q-73 103 -73 239t73 241h64q-64 -105 -64 -238z" />
    <glyph glyph-name="parenright.denominator" unicode="&#xf62d;" horiz-adv-x="193" 
d="M81 186q0 132 -64 239h64q72 -103 72 -240t-72 -240h-64q64 109 64 241z" />
    <glyph glyph-name="cent.numerator" unicode="&#xf62e;" horiz-adv-x="323" 
d="M218 260h-57v58q-57 8 -91 46t-34 96t33 100t92 53v56h57v-54q31 0 60 -12l-14 -65q-26 12 -60 12t-56 -23t-23 -62t23 -61t58 -21q34 0 64 11l11 -62q-24 -12 -63 -15v-57z" />
    <glyph glyph-name="dollar.numerator" unicode="&#xf62f;" horiz-adv-x="336" 
d="M157 337q59 0 59 41q0 18 -15 29t-63 27t-74 41q-27 24 -27 65q-1 42 27 70t77 37v55h56v-52q52 -1 89 -21l-18 -64q-40 22 -92 22t-52 -36q0 -16 16 -27t65 -28q98 -33 98 -111q-1 -40 -29 -70t-79 -39v-61h-56v57q-65 3 -106 27l18 66q47 -28 106 -28z" />
    <glyph glyph-name="hyphen.numerator" unicode="&#xf630;" horiz-adv-x="199" 
d="M18 481h163v-61h-163v61z" />
    <glyph glyph-name="parenleft.numerator" unicode="&#xf631;" horiz-adv-x="193" 
d="M113 453q0 -133 64 -242h-64q-73 103 -73 239t73 241h64q-64 -105 -64 -238z" />
    <glyph glyph-name="parenright.numerator" unicode="&#xf632;" horiz-adv-x="193" 
d="M81 452q0 132 -64 239h64q72 -103 72 -240t-72 -240h-64q64 109 64 241z" />
    <glyph glyph-name="at.cap" unicode="&#xf633;" horiz-adv-x="755" 
d="M342 -12q-115 0 -205 86t-90 229q0 103 45 190q44 87 130 140t206 53t203 -82t83 -198t-53 -182t-131 -66q-36 0 -58 21t-23 61h-3q-50 -82 -135 -82q-48 0 -79 35t-31 94q0 95 66 165q67 70 153 69q86 0 130 -23l-31 -183q-18 -97 27 -98q38 -3 70 45t32 142t-64 160
t-181 67q-118 -1 -203 -89t-85 -222t71 -204q71 -72 170 -72t163 33l17 -51q-79 -38 -194 -38zM423 454q-57 0 -97 -47t-40 -113t58 -67q34 0 64 36t37 82l17 103q-18 6 -39 6z" />
    <glyph glyph-name="space_uni0326.cap" unicode="&#xf634;" 
d="M137 -114q0 27 -31 58l87 16q39 -28 39 -80t-42 -82t-103 -31l-20 54q70 12 70 65z" />
    <glyph glyph-name="zero.slash" unicode="&#xf638;" horiz-adv-x="536" 
d="M502 325q0 -155 -61 -245t-176 -91q-79 0 -134 49l-38 -61l-52 37l49 74q-56 86 -56 238t62 244q63 92 176 91q81 0 133 -47l41 66l53 -36l-52 -79q55 -85 55 -240zM272 83q52 -1 82 63t30 154t-13 145l-179 -318q29 -44 80 -44zM268 567q-52 0 -84 -64t-32 -154t16 -141
l177 313q-25 46 -77 46z" />
    <glyph glyph-name="zero.fitted" unicode="&#xf639;" horiz-adv-x="536" 
d="M269 567q-51 -1 -81 -63t-30 -180t30 -179q30 -62 80 -62q110 0 110 242t-109 242zM272 661q112 -1 172 -91q58 -90 58 -245t-62 -245t-173 -91q-112 0 -172 91q-61 90 -61 244t63 246t175 91z" />
    <glyph glyph-name="two.fitted" unicode="&#xf63a;" horiz-adv-x="472" 
d="M443 0h-440v75l77 71q125 116 175 180q51 64 51 120q1 115 -116 115q-68 0 -139 -54l-36 87q83 67 193 67t166 -56t55 -138q0 -82 -49 -153t-147 -161l-56 -49v-2h266v-102z" />
    <glyph glyph-name="three.fitted" unicode="&#xf63b;" horiz-adv-x="476" 
d="M294 477q0 86 -114 86q-62 0 -123 -41l-28 89q75 50 180 50q104 1 157 -45t53 -114q0 -109 -120 -152v-2q62 -12 102 -55q41 -43 41 -117t-68 -131q-68 -56 -184 -56t-183 45l28 93q67 -40 141 -40q74 1 106 31t32 78t-43 77q-43 28 -105 28h-56v90h56q48 0 88 23t40 63z
" />
    <glyph glyph-name="four.fitted" unicode="&#xf63c;" horiz-adv-x="527" 
d="M132 258h177v177q0 35 4 113h-4q-30 -61 -57 -110l-120 -178v-2zM425 0h-116v165h-295v80l266 405h145v-392h84v-93h-84v-165z" />
    <glyph glyph-name="five.fitted" unicode="&#xf63d;" horiz-adv-x="485" 
d="M428 650v-102h-250l-19 -130q21 3 46 3q96 0 158 -42q85 -54 85 -157t-72 -168t-184 -65q-111 0 -179 38l25 93q63 -34 132 -34q68 0 110 32t42 86q0 124 -184 124q-39 0 -89 -6l42 328h337z" />
    <glyph glyph-name="six.fitted" unicode="&#xf63e;" horiz-adv-x="537" 
d="M273 81q52 0 81 37q29 38 29 96t-30 94t-74 35q-82 0 -116 -67q-8 -16 -7 -62t33 -89q32 -44 84 -44zM306 433q90 1 146 -57t56 -154t-64 -165q-64 -68 -172 -68q-108 1 -174 79q-65 78 -65 202q0 184 113 290q90 85 232 96q33 5 62 3v-97q-140 5 -214 -66
q-54 -52 -67 -126h3q54 63 144 63z" />
    <glyph glyph-name="seven.fitted" unicode="&#xf63f;" horiz-adv-x="440" 
d="M3 650h437v-79l-275 -571h-129l274 546v2h-307v102z" />
    <glyph glyph-name="eight.fitted" unicode="&#xf640;" horiz-adv-x="536" 
d="M269 576q-45 0 -70 -26t-25 -62q0 -73 106 -102q35 10 58 36t23 64q1 36 -23 63t-69 27zM268 76q49 0 79 28t30 69q0 89 -121 122q-95 -27 -97 -115q-1 -42 29 -73t80 -31zM378 347q124 -47 124 -179q0 -72 -66 -126t-172 -53q-106 0 -168 53t-62 126q0 114 122 168v3
q-99 47 -99 135t62 138t158 49q97 0 149 -49t52 -115q0 -98 -100 -147v-3z" />
    <glyph glyph-name="nine.fitted" unicode="&#xf641;" horiz-adv-x="539" 
d="M157 440q-1 -122 117 -123q60 0 95 54q7 15 7 61t-28 92t-80 46t-82 -38q-30 -36 -29 -92zM234 228q-88 0 -144 56t-55 148t67 161q66 68 172 68t166 -77t61 -200q0 -195 -113 -303q-86 -80 -222 -89q-37 -4 -74 -2v98q124 -10 195 47t89 150h-2q-52 -57 -140 -57z" />
    <glyph glyph-name="percent.oldstyle" unicode="&#xf642;" horiz-adv-x="858" 
d="M667 322q-35 0 -54 -36t-19 -94t19 -94q20 -36 55 -37q73 1 73 131t-74 130zM672 391q76 -1 119 -53q44 -52 44 -144t-49 -148q-49 -54 -120 -54q-70 0 -118 52t-48 144q0 91 48 147t124 56zM288 -11h-70l352 624h69zM190 541q-35 -1 -54 -37q-20 -36 -20 -94t20 -94
t55 -36q73 0 73 130t-74 131zM194 610q76 0 120 -52t44 -146q0 -92 -49 -146t-120 -55q-71 1 -119 53t-47 143q0 91 48 147q47 56 123 56z" />
    <glyph glyph-name="zero.taboldstyle" unicode="&#xf643;" horiz-adv-x="547" 
d="M273 80h2q55 0 87 45t32 119t-32 119t-89 45q-56 0 -88 -45t-32 -119t32 -119t88 -45zM272 -11q-108 0 -172 71q-65 72 -65 184q-1 112 65 184t174 71q108 0 172 -71q66 -72 66 -184t-66 -184t-174 -71z" />
    <glyph glyph-name="one.taboldstyle" unicode="&#xf644;" horiz-adv-x="547" 
d="M392 0h-119v384h-2l-178 -75l-19 91l218 88h100v-488z" />
    <glyph glyph-name="two.taboldstyle" unicode="&#xf645;" horiz-adv-x="547" 
d="M319 318q0 85 -97 85q-62 0 -126 -41l-29 78q83 60 179 60t146 -44t51 -117q0 -109 -157 -215l-46 -32v-2q45 6 95 6h142v-96h-414v67l55 37q107 68 154 116t47 98z" />
    <glyph glyph-name="three.taboldstyle" unicode="&#xf646;" horiz-adv-x="547" 
d="M436 365q0 -57 -34 -95t-85 -51v-2q63 -9 104 -47t41 -96q0 -87 -77 -141t-173 -54t-152 21l14 91q44 -17 112 -17t108 27q41 27 41 71t-37 66q-37 24 -82 24t-73 -2l-1 87l24 2q65 5 106 27t41 60q0 68 -94 68q-57 0 -125 -34l-22 81q70 48 165 48q95 -1 147 -39t52 -95
z" />
    <glyph glyph-name="four.taboldstyle" unicode="&#xf647;" horiz-adv-x="547" 
d="M317 131v161q0 52 3 105h-4q-30 -63 -58 -106l-113 -156l2 -4h170zM516 40h-84v-161h-115v161h-287v79l257 373h145v-361h84v-91z" />
    <glyph glyph-name="five.taboldstyle" unicode="&#xf648;" horiz-adv-x="547" 
d="M203 267q261 0 261 -190q0 -81 -71 -139t-171 -59q-100 0 -148 19l14 87q42 -13 104 -13t104 29t42 72t-25 68q-50 47 -220 40l53 307h309l-15 -100h-214z" />
    <glyph glyph-name="six.taboldstyle" unicode="&#xf649;" horiz-adv-x="547" 
d="M278 81q46 0 76 32t31 87q-1 55 -29 87t-78 32q-50 -1 -79 -33t-29 -81t31 -87t77 -37zM315 402q83 0 137 -52t55 -146q-1 -92 -67 -154t-166 -61q-100 -1 -162 69q-64 70 -64 184q0 160 110 262t299 108l8 -89q-126 -6 -197 -56t-87 -124h2q49 59 132 59z" />
    <glyph glyph-name="seven.taboldstyle" unicode="&#xf64a;" horiz-adv-x="547" 
d="M475 488v-76q-45 -116 -123 -266t-153 -266l-117 17q68 99 148 245t119 243v2h-286v101h412z" />
    <glyph glyph-name="eight.taboldstyle" unicode="&#xf64b;" horiz-adv-x="547" 
d="M255 277q-91 -29 -91 -109q0 -40 30 -67t76 -27t76 26t30 64q0 80 -121 113zM289 357q78 25 78 96q-1 37 -27 59t-65 22t-65 -23t-26 -59q0 -66 105 -95zM503 173q-1 -82 -67 -133t-168 -51t-164 48q-63 48 -63 123q0 101 118 153v4q-95 45 -95 123t60 126q60 47 154 47
t147 -45q54 -45 54 -109q0 -87 -98 -133v-4q122 -49 122 -149z" />
    <glyph glyph-name="nine.taboldstyle" unicode="&#xf64c;" horiz-adv-x="547" 
d="M260 174q74 0 106 53q13 19 13 65q1 46 -31 81q-32 36 -76 36q-44 1 -76 -31t-32 -88t30 -86q28 -30 66 -30zM231 91q-81 0 -135 53t-54 143q0 91 66 153t167 62q100 0 163 -68t63 -181q-1 -175 -117 -272t-298 -99l-8 89q242 8 289 176h-2q-17 -23 -53 -39t-81 -17z" />
    <glyph glyph-name="Euro.taboldstyle" unicode="&#xf64e;" horiz-adv-x="547" 
d="M41 289v59h65q18 66 64 114q77 77 197 77q72 0 128 -27l-24 -84q-43 21 -105 21q-62 -1 -96 -35t-42 -66h227v-59h-240q-2 -9 -2 -25t1 -27h240v-59h-226q10 -34 30 -54q46 -43 112 -43t113 24l14 -83q-57 -33 -157 -33t-172 72q-46 46 -63 117h-64v59h55l-1 23
q0 18 2 29h-56z" />
    <glyph glyph-name="florin.taboldstyle" unicode="&#xf64f;" horiz-adv-x="547" 
d="M124 270v76h94l5 51q8 71 38 122q56 93 168 93q48 0 76 -16l-21 -87q-23 9 -49 9q-78 0 -92 -112l-7 -60h111v-76h-120l-22 -174q-13 -106 -54 -162t-133 -56q-53 0 -85 16l19 87q24 -9 58 -9t52 32t29 116l17 150h-84z" />
    <glyph glyph-name="numbersign.taboldstyle" unicode="&#xf650;" horiz-adv-x="547" 
d="M49 158v77h95l17 127h-85v77h97l22 159h75l-22 -159h97l22 159h76l-22 -159h81v-77h-93l-17 -127h84v-77h-96l-22 -164h-77l23 164h-97l-22 -164h-77l23 164h-82zM220 235h96l17 127h-96z" />
    <glyph glyph-name="sterling.taboldstyle" unicode="&#xf651;" horiz-adv-x="547" 
d="M498 0h-437v66q49 20 77 53t29 61q0 28 -3 46h-95v71h80q-6 34 -6 53q-1 88 57 145t140 57t127 -24l-22 -90q-36 19 -86 19q-49 1 -75 -29t-26 -68t6 -63h146v-71h-133q1 -8 1 -23q-4 -67 -58 -104v-2h278v-97z" />
    <glyph glyph-name="yen.taboldstyle" unicode="&#xf652;" horiz-adv-x="547" 
d="M329 0h-116v109h-151v61h151v56h-151v61h121l-147 241h128l70 -138q34 -77 40 -91h3q15 37 42 92l73 137h125l-156 -241h121v-61h-153v-56h153v-61h-153v-109z" />
    <glyph glyph-name="dollar.taboldstyle" unicode="&#xf653;" horiz-adv-x="547" 
d="M230 85q110 0 110 55q0 22 -20 37t-88 37t-103 55q-36 31 -36 83q1 52 41 87t108 46v90h75v-86q80 -4 130 -32l-27 -81q-55 31 -106 31q-98 0 -98 -48q0 -21 20 -35t90 -36q142 -45 142 -143q0 -51 -41 -91t-116 -52v-86h-74v82q-95 3 -156 42l28 83q61 -38 121 -38z" />
    <glyph glyph-name="cent.taboldstyle" unicode="&#xf654;" horiz-adv-x="547" 
d="M335 -31h-72v74q-83 11 -133 64t-50 135t50 140t133 72v71h72v-68q52 -1 94 -18l-19 -80q-36 16 -90 16q-54 -1 -90 -35q-35 -34 -35 -92q-1 -58 35 -91q36 -32 91 -32t95 17l16 -79q-47 -20 -97 -21v-73z" />
    <glyph glyph-name="zero.denominator" unicode="&#xf655;" horiz-adv-x="359" 
d="M115 195q1 -134 65 -134t64 134t-64 134t-65 -134zM180 -5q-76 0 -118 55q-40 54 -40 144t41 146t117 55t116 -55t41 -144q-1 -90 -41 -145q-40 -56 -116 -56z" />
    <glyph glyph-name="one.denominator" unicode="&#xf656;" horiz-adv-x="275" 
d="M209 0h-96v310h-1l-76 -35l-14 69l103 46h84v-390z" />
    <glyph glyph-name="two.denominator" unicode="&#xf657;" horiz-adv-x="333" 
d="M13 0v48l62 56q69 62 95 94t26 61q0 61 -66 61q-44 0 -85 -29l-27 62q55 42 130 42q75 1 112 -33t37 -72q0 -63 -31 -101t-92 -91l-27 -24v-2h157v-72h-291z" />
    <glyph glyph-name="three.denominator" unicode="&#xf658;" horiz-adv-x="328" 
d="M204 117q0 58 -95 60h-29v58h27q32 1 58 13t26 34q1 46 -51 46t-94 -25l-20 61q50 31 122 31q72 1 106 -27t35 -64q0 -71 -79 -95v-2q42 -5 68 -31t27 -70q0 -44 -46 -78q-45 -34 -125 -33q-80 0 -125 28l21 65q43 -26 87 -26q43 0 65 16t22 39z" />
    </font>
</defs>
</svg>
